<?xml version="1.0" encoding="utf-8" standalone="no"?>
<!DOCTYPE svg PUBLIC "-//W3C//DTD SVG 1.1//EN"
  "http://www.w3.org/Graphics/SVG/1.1/DTD/svg11.dtd">
<svg xmlns:xlink="http://www.w3.org/1999/xlink" width="460.8pt" height="345.6pt" viewBox="0 0 460.8 345.6" xmlns="http://www.w3.org/2000/svg" version="1.1">
 <metadata>
  <rdf:RDF xmlns:dc="http://purl.org/dc/elements/1.1/" xmlns:cc="http://creativecommons.org/ns#" xmlns:rdf="http://www.w3.org/1999/02/22-rdf-syntax-ns#">
   <cc:Work>
    <dc:type rdf:resource="http://purl.org/dc/dcmitype/StillImage"/>
    <dc:date>2023-11-03T13:13:32.833505</dc:date>
    <dc:format>image/svg+xml</dc:format>
    <dc:creator>
     <cc:Agent>
      <dc:title>Matplotlib v3.7.0, https://matplotlib.org/</dc:title>
     </cc:Agent>
    </dc:creator>
   </cc:Work>
  </rdf:RDF>
 </metadata>
 <defs>
  <style type="text/css">*{stroke-linejoin: round; stroke-linecap: butt}</style>
 </defs>
 <g id="figure_1">
  <g id="patch_1">
   <path d="M 0 345.6 
L 460.8 345.6 
L 460.8 0 
L 0 0 
z
" style="fill: #ffffff"/>
  </g>
  <g id="axes_1">
   <g id="patch_2">
    <path d="M 46.2 296.4525 
L 443.937921 296.4525 
L 443.937921 15.12 
L 46.2 15.12 
z
" style="fill: #ffffff"/>
   </g>
   <g id="matplotlib.axis_1">
    <g id="xtick_1">
     <g id="line2d_1">
      <defs>
       <path id="mc5d24ef1cb" d="M 0 0 
L 0 -3.5 
" style="stroke: #000000; stroke-width: 0.8"/>
      </defs>
      <g>
       <use xlink:href="#mc5d24ef1cb" x="48.169" y="296.4525" style="stroke: #000000; stroke-width: 0.8"/>
      </g>
     </g>
     <g id="line2d_2">
      <defs>
       <path id="m1da83c22d9" d="M 0 0 
L 0 3.5 
" style="stroke: #000000; stroke-width: 0.8"/>
      </defs>
      <g>
       <use xlink:href="#m1da83c22d9" x="48.169" y="15.12" style="stroke: #000000; stroke-width: 0.8"/>
      </g>
     </g>
     <g id="text_1">
      <!-- −3 -->
      <g transform="translate(39.223218 309.669375) scale(0.14 -0.14)">
       <defs>
        <path id="LatinModernMath-Regular-2212" d="M 4621 1600 
C 4621 1670 4563 1728 4493 1728 
L 486 1728 
C 416 1728 358 1670 358 1600 
C 358 1530 416 1472 486 1472 
L 4493 1472 
C 4563 1472 4621 1530 4621 1600 
z
" transform="scale(0.015625)"/>
        <path id="LatinModernMath-Regular-33" d="M 2925 1094 
C 2925 1619 2522 2118 1856 2253 
C 2381 2426 2752 2874 2752 3379 
C 2752 3904 2189 4262 1574 4262 
C 928 4262 442 3878 442 3392 
C 442 3181 582 3059 768 3059 
C 966 3059 1094 3200 1094 3386 
C 1094 3706 794 3706 698 3706 
C 896 4019 1318 4102 1549 4102 
C 1811 4102 2163 3962 2163 3386 
C 2163 3309 2150 2938 1984 2656 
C 1792 2349 1574 2330 1414 2323 
C 1363 2317 1210 2304 1165 2304 
C 1114 2298 1069 2291 1069 2227 
C 1069 2157 1114 2157 1222 2157 
L 1504 2157 
C 2029 2157 2266 1722 2266 1094 
C 2266 224 1824 38 1542 38 
C 1267 38 787 147 563 525 
C 787 493 986 634 986 877 
C 986 1107 813 1235 627 1235 
C 474 1235 269 1146 269 864 
C 269 282 864 -141 1562 -141 
C 2342 -141 2925 442 2925 1094 
z
" transform="scale(0.015625)"/>
       </defs>
       <use xlink:href="#LatinModernMath-Regular-2212"/>
       <use xlink:href="#LatinModernMath-Regular-33" x="77.799988"/>
      </g>
     </g>
    </g>
    <g id="xtick_2">
     <g id="line2d_3">
      <g>
       <use xlink:href="#mc5d24ef1cb" x="113.80232" y="296.4525" style="stroke: #000000; stroke-width: 0.8"/>
      </g>
     </g>
     <g id="line2d_4">
      <g>
       <use xlink:href="#m1da83c22d9" x="113.80232" y="15.12" style="stroke: #000000; stroke-width: 0.8"/>
      </g>
     </g>
     <g id="text_2">
      <!-- −2 -->
      <g transform="translate(104.856539 309.669375) scale(0.14 -0.14)">
       <defs>
        <path id="LatinModernMath-Regular-32" d="M 2874 1114 
L 2714 1114 
C 2682 922 2637 640 2573 544 
C 2528 493 2106 493 1965 493 
L 813 493 
L 1491 1152 
C 2490 2035 2874 2381 2874 3021 
C 2874 3750 2298 4262 1517 4262 
C 794 4262 320 3674 320 3104 
C 320 2746 640 2746 659 2746 
C 768 2746 992 2822 992 3085 
C 992 3251 877 3418 653 3418 
C 602 3418 589 3418 570 3411 
C 717 3827 1062 4064 1434 4064 
C 2016 4064 2291 3546 2291 3021 
C 2291 2509 1971 2003 1619 1606 
L 390 237 
C 320 166 320 154 320 0 
L 2694 0 
L 2874 1114 
z
" transform="scale(0.015625)"/>
       </defs>
       <use xlink:href="#LatinModernMath-Regular-2212"/>
       <use xlink:href="#LatinModernMath-Regular-32" x="77.799988"/>
      </g>
     </g>
    </g>
    <g id="xtick_3">
     <g id="line2d_5">
      <g>
       <use xlink:href="#mc5d24ef1cb" x="179.43564" y="296.4525" style="stroke: #000000; stroke-width: 0.8"/>
      </g>
     </g>
     <g id="line2d_6">
      <g>
       <use xlink:href="#m1da83c22d9" x="179.43564" y="15.12" style="stroke: #000000; stroke-width: 0.8"/>
      </g>
     </g>
     <g id="text_3">
      <!-- −1 -->
      <g transform="translate(170.489859 309.669375) scale(0.14 -0.14)">
       <defs>
        <path id="LatinModernMath-Regular-31" d="M 2682 0 
L 2682 198 
L 2477 198 
C 1901 198 1882 269 1882 506 
L 1882 4096 
C 1882 4250 1882 4262 1734 4262 
C 1338 3853 774 3853 570 3853 
L 570 3654 
C 698 3654 1075 3654 1408 3821 
L 1408 506 
C 1408 275 1389 198 813 198 
L 608 198 
L 608 0 
C 832 19 1389 19 1645 19 
C 1901 19 2458 19 2682 0 
z
" transform="scale(0.015625)"/>
       </defs>
       <use xlink:href="#LatinModernMath-Regular-2212"/>
       <use xlink:href="#LatinModernMath-Regular-31" x="77.799988"/>
      </g>
     </g>
    </g>
    <g id="xtick_4">
     <g id="line2d_7">
      <g>
       <use xlink:href="#mc5d24ef1cb" x="245.06896" y="296.4525" style="stroke: #000000; stroke-width: 0.8"/>
      </g>
     </g>
     <g id="line2d_8">
      <g>
       <use xlink:href="#m1da83c22d9" x="245.06896" y="15.12" style="stroke: #000000; stroke-width: 0.8"/>
      </g>
     </g>
     <g id="text_4">
      <!-- 0 -->
      <g transform="translate(241.56896 309.669375) scale(0.14 -0.14)">
       <defs>
        <path id="LatinModernMath-Regular-30" d="M 2944 2048 
C 2944 2560 2912 3072 2688 3546 
C 2394 4160 1869 4262 1600 4262 
C 1216 4262 749 4096 486 3501 
C 282 3059 250 2560 250 2048 
C 250 1568 275 992 538 506 
C 813 -13 1280 -141 1594 -141 
C 1939 -141 2426 -6 2707 602 
C 2912 1043 2944 1542 2944 2048 
z
M 2413 2125 
C 2413 1645 2413 1210 2342 800 
C 2246 192 1882 0 1594 0 
C 1344 0 966 160 851 774 
C 781 1158 781 1747 781 2125 
C 781 2534 781 2957 832 3302 
C 954 4064 1434 4122 1594 4122 
C 1805 4122 2227 4006 2349 3373 
C 2413 3014 2413 2528 2413 2125 
z
" transform="scale(0.015625)"/>
       </defs>
       <use xlink:href="#LatinModernMath-Regular-30"/>
      </g>
     </g>
    </g>
    <g id="xtick_5">
     <g id="line2d_9">
      <g>
       <use xlink:href="#mc5d24ef1cb" x="310.702281" y="296.4525" style="stroke: #000000; stroke-width: 0.8"/>
      </g>
     </g>
     <g id="line2d_10">
      <g>
       <use xlink:href="#m1da83c22d9" x="310.702281" y="15.12" style="stroke: #000000; stroke-width: 0.8"/>
      </g>
     </g>
     <g id="text_5">
      <!-- 1 -->
      <g transform="translate(307.202281 309.669375) scale(0.14 -0.14)">
       <use xlink:href="#LatinModernMath-Regular-31"/>
      </g>
     </g>
    </g>
    <g id="xtick_6">
     <g id="line2d_11">
      <g>
       <use xlink:href="#mc5d24ef1cb" x="376.335601" y="296.4525" style="stroke: #000000; stroke-width: 0.8"/>
      </g>
     </g>
     <g id="line2d_12">
      <g>
       <use xlink:href="#m1da83c22d9" x="376.335601" y="15.12" style="stroke: #000000; stroke-width: 0.8"/>
      </g>
     </g>
     <g id="text_6">
      <!-- 2 -->
      <g transform="translate(372.835601 309.669375) scale(0.14 -0.14)">
       <use xlink:href="#LatinModernMath-Regular-32"/>
      </g>
     </g>
    </g>
    <g id="xtick_7">
     <g id="line2d_13">
      <g>
       <use xlink:href="#mc5d24ef1cb" x="441.968921" y="296.4525" style="stroke: #000000; stroke-width: 0.8"/>
      </g>
     </g>
     <g id="line2d_14">
      <g>
       <use xlink:href="#m1da83c22d9" x="441.968921" y="15.12" style="stroke: #000000; stroke-width: 0.8"/>
      </g>
     </g>
     <g id="text_7">
      <!-- 3 -->
      <g transform="translate(438.468921 309.669375) scale(0.14 -0.14)">
       <use xlink:href="#LatinModernMath-Regular-33"/>
      </g>
     </g>
    </g>
    <g id="xtick_8">
     <g id="line2d_15">
      <defs>
       <path id="m6662aecf97" d="M 0 0 
L 0 -2 
" style="stroke: #000000; stroke-width: 0.6"/>
      </defs>
      <g>
       <use xlink:href="#m6662aecf97" x="61.295664" y="296.4525" style="stroke: #000000; stroke-width: 0.6"/>
      </g>
     </g>
     <g id="line2d_16">
      <defs>
       <path id="m8aab7fbfd3" d="M 0 0 
L 0 2 
" style="stroke: #000000; stroke-width: 0.6"/>
      </defs>
      <g>
       <use xlink:href="#m8aab7fbfd3" x="61.295664" y="15.12" style="stroke: #000000; stroke-width: 0.6"/>
      </g>
     </g>
    </g>
    <g id="xtick_9">
     <g id="line2d_17">
      <g>
       <use xlink:href="#m6662aecf97" x="74.422328" y="296.4525" style="stroke: #000000; stroke-width: 0.6"/>
      </g>
     </g>
     <g id="line2d_18">
      <g>
       <use xlink:href="#m8aab7fbfd3" x="74.422328" y="15.12" style="stroke: #000000; stroke-width: 0.6"/>
      </g>
     </g>
    </g>
    <g id="xtick_10">
     <g id="line2d_19">
      <g>
       <use xlink:href="#m6662aecf97" x="87.548992" y="296.4525" style="stroke: #000000; stroke-width: 0.6"/>
      </g>
     </g>
     <g id="line2d_20">
      <g>
       <use xlink:href="#m8aab7fbfd3" x="87.548992" y="15.12" style="stroke: #000000; stroke-width: 0.6"/>
      </g>
     </g>
    </g>
    <g id="xtick_11">
     <g id="line2d_21">
      <g>
       <use xlink:href="#m6662aecf97" x="100.675656" y="296.4525" style="stroke: #000000; stroke-width: 0.6"/>
      </g>
     </g>
     <g id="line2d_22">
      <g>
       <use xlink:href="#m8aab7fbfd3" x="100.675656" y="15.12" style="stroke: #000000; stroke-width: 0.6"/>
      </g>
     </g>
    </g>
    <g id="xtick_12">
     <g id="line2d_23">
      <g>
       <use xlink:href="#m6662aecf97" x="126.928984" y="296.4525" style="stroke: #000000; stroke-width: 0.6"/>
      </g>
     </g>
     <g id="line2d_24">
      <g>
       <use xlink:href="#m8aab7fbfd3" x="126.928984" y="15.12" style="stroke: #000000; stroke-width: 0.6"/>
      </g>
     </g>
    </g>
    <g id="xtick_13">
     <g id="line2d_25">
      <g>
       <use xlink:href="#m6662aecf97" x="140.055648" y="296.4525" style="stroke: #000000; stroke-width: 0.6"/>
      </g>
     </g>
     <g id="line2d_26">
      <g>
       <use xlink:href="#m8aab7fbfd3" x="140.055648" y="15.12" style="stroke: #000000; stroke-width: 0.6"/>
      </g>
     </g>
    </g>
    <g id="xtick_14">
     <g id="line2d_27">
      <g>
       <use xlink:href="#m6662aecf97" x="153.182312" y="296.4525" style="stroke: #000000; stroke-width: 0.6"/>
      </g>
     </g>
     <g id="line2d_28">
      <g>
       <use xlink:href="#m8aab7fbfd3" x="153.182312" y="15.12" style="stroke: #000000; stroke-width: 0.6"/>
      </g>
     </g>
    </g>
    <g id="xtick_15">
     <g id="line2d_29">
      <g>
       <use xlink:href="#m6662aecf97" x="166.308976" y="296.4525" style="stroke: #000000; stroke-width: 0.6"/>
      </g>
     </g>
     <g id="line2d_30">
      <g>
       <use xlink:href="#m8aab7fbfd3" x="166.308976" y="15.12" style="stroke: #000000; stroke-width: 0.6"/>
      </g>
     </g>
    </g>
    <g id="xtick_16">
     <g id="line2d_31">
      <g>
       <use xlink:href="#m6662aecf97" x="192.562304" y="296.4525" style="stroke: #000000; stroke-width: 0.6"/>
      </g>
     </g>
     <g id="line2d_32">
      <g>
       <use xlink:href="#m8aab7fbfd3" x="192.562304" y="15.12" style="stroke: #000000; stroke-width: 0.6"/>
      </g>
     </g>
    </g>
    <g id="xtick_17">
     <g id="line2d_33">
      <g>
       <use xlink:href="#m6662aecf97" x="205.688968" y="296.4525" style="stroke: #000000; stroke-width: 0.6"/>
      </g>
     </g>
     <g id="line2d_34">
      <g>
       <use xlink:href="#m8aab7fbfd3" x="205.688968" y="15.12" style="stroke: #000000; stroke-width: 0.6"/>
      </g>
     </g>
    </g>
    <g id="xtick_18">
     <g id="line2d_35">
      <g>
       <use xlink:href="#m6662aecf97" x="218.815632" y="296.4525" style="stroke: #000000; stroke-width: 0.6"/>
      </g>
     </g>
     <g id="line2d_36">
      <g>
       <use xlink:href="#m8aab7fbfd3" x="218.815632" y="15.12" style="stroke: #000000; stroke-width: 0.6"/>
      </g>
     </g>
    </g>
    <g id="xtick_19">
     <g id="line2d_37">
      <g>
       <use xlink:href="#m6662aecf97" x="231.942296" y="296.4525" style="stroke: #000000; stroke-width: 0.6"/>
      </g>
     </g>
     <g id="line2d_38">
      <g>
       <use xlink:href="#m8aab7fbfd3" x="231.942296" y="15.12" style="stroke: #000000; stroke-width: 0.6"/>
      </g>
     </g>
    </g>
    <g id="xtick_20">
     <g id="line2d_39">
      <g>
       <use xlink:href="#m6662aecf97" x="258.195624" y="296.4525" style="stroke: #000000; stroke-width: 0.6"/>
      </g>
     </g>
     <g id="line2d_40">
      <g>
       <use xlink:href="#m8aab7fbfd3" x="258.195624" y="15.12" style="stroke: #000000; stroke-width: 0.6"/>
      </g>
     </g>
    </g>
    <g id="xtick_21">
     <g id="line2d_41">
      <g>
       <use xlink:href="#m6662aecf97" x="271.322289" y="296.4525" style="stroke: #000000; stroke-width: 0.6"/>
      </g>
     </g>
     <g id="line2d_42">
      <g>
       <use xlink:href="#m8aab7fbfd3" x="271.322289" y="15.12" style="stroke: #000000; stroke-width: 0.6"/>
      </g>
     </g>
    </g>
    <g id="xtick_22">
     <g id="line2d_43">
      <g>
       <use xlink:href="#m6662aecf97" x="284.448953" y="296.4525" style="stroke: #000000; stroke-width: 0.6"/>
      </g>
     </g>
     <g id="line2d_44">
      <g>
       <use xlink:href="#m8aab7fbfd3" x="284.448953" y="15.12" style="stroke: #000000; stroke-width: 0.6"/>
      </g>
     </g>
    </g>
    <g id="xtick_23">
     <g id="line2d_45">
      <g>
       <use xlink:href="#m6662aecf97" x="297.575617" y="296.4525" style="stroke: #000000; stroke-width: 0.6"/>
      </g>
     </g>
     <g id="line2d_46">
      <g>
       <use xlink:href="#m8aab7fbfd3" x="297.575617" y="15.12" style="stroke: #000000; stroke-width: 0.6"/>
      </g>
     </g>
    </g>
    <g id="xtick_24">
     <g id="line2d_47">
      <g>
       <use xlink:href="#m6662aecf97" x="323.828945" y="296.4525" style="stroke: #000000; stroke-width: 0.6"/>
      </g>
     </g>
     <g id="line2d_48">
      <g>
       <use xlink:href="#m8aab7fbfd3" x="323.828945" y="15.12" style="stroke: #000000; stroke-width: 0.6"/>
      </g>
     </g>
    </g>
    <g id="xtick_25">
     <g id="line2d_49">
      <g>
       <use xlink:href="#m6662aecf97" x="336.955609" y="296.4525" style="stroke: #000000; stroke-width: 0.6"/>
      </g>
     </g>
     <g id="line2d_50">
      <g>
       <use xlink:href="#m8aab7fbfd3" x="336.955609" y="15.12" style="stroke: #000000; stroke-width: 0.6"/>
      </g>
     </g>
    </g>
    <g id="xtick_26">
     <g id="line2d_51">
      <g>
       <use xlink:href="#m6662aecf97" x="350.082273" y="296.4525" style="stroke: #000000; stroke-width: 0.6"/>
      </g>
     </g>
     <g id="line2d_52">
      <g>
       <use xlink:href="#m8aab7fbfd3" x="350.082273" y="15.12" style="stroke: #000000; stroke-width: 0.6"/>
      </g>
     </g>
    </g>
    <g id="xtick_27">
     <g id="line2d_53">
      <g>
       <use xlink:href="#m6662aecf97" x="363.208937" y="296.4525" style="stroke: #000000; stroke-width: 0.6"/>
      </g>
     </g>
     <g id="line2d_54">
      <g>
       <use xlink:href="#m8aab7fbfd3" x="363.208937" y="15.12" style="stroke: #000000; stroke-width: 0.6"/>
      </g>
     </g>
    </g>
    <g id="xtick_28">
     <g id="line2d_55">
      <g>
       <use xlink:href="#m6662aecf97" x="389.462265" y="296.4525" style="stroke: #000000; stroke-width: 0.6"/>
      </g>
     </g>
     <g id="line2d_56">
      <g>
       <use xlink:href="#m8aab7fbfd3" x="389.462265" y="15.12" style="stroke: #000000; stroke-width: 0.6"/>
      </g>
     </g>
    </g>
    <g id="xtick_29">
     <g id="line2d_57">
      <g>
       <use xlink:href="#m6662aecf97" x="402.588929" y="296.4525" style="stroke: #000000; stroke-width: 0.6"/>
      </g>
     </g>
     <g id="line2d_58">
      <g>
       <use xlink:href="#m8aab7fbfd3" x="402.588929" y="15.12" style="stroke: #000000; stroke-width: 0.6"/>
      </g>
     </g>
    </g>
    <g id="xtick_30">
     <g id="line2d_59">
      <g>
       <use xlink:href="#m6662aecf97" x="415.715593" y="296.4525" style="stroke: #000000; stroke-width: 0.6"/>
      </g>
     </g>
     <g id="line2d_60">
      <g>
       <use xlink:href="#m8aab7fbfd3" x="415.715593" y="15.12" style="stroke: #000000; stroke-width: 0.6"/>
      </g>
     </g>
    </g>
    <g id="xtick_31">
     <g id="line2d_61">
      <g>
       <use xlink:href="#m6662aecf97" x="428.842257" y="296.4525" style="stroke: #000000; stroke-width: 0.6"/>
      </g>
     </g>
     <g id="line2d_62">
      <g>
       <use xlink:href="#m8aab7fbfd3" x="428.842257" y="15.12" style="stroke: #000000; stroke-width: 0.6"/>
      </g>
     </g>
    </g>
    <g id="text_8">
     <!-- $\gamma$ -->
     <g transform="translate(240.86896 325.88) scale(0.14 -0.14)">
      <defs>
       <path id="DejaVuSans-Oblique-3b3" d="M 1491 2950 
L 1838 788 
L 3456 3500 
L 4066 3500 
L 1972 0 
L 1713 -1331 
L 1138 -1331 
L 1397 0 
L 988 2613 
Q 925 3006 628 3006 
L 475 3006 
L 569 3500 
L 788 3500 
Q 1403 3500 1491 2950 
z
" transform="scale(0.015625)"/>
      </defs>
      <use xlink:href="#DejaVuSans-Oblique-3b3" transform="translate(0 0.3125)"/>
     </g>
    </g>
   </g>
   <g id="matplotlib.axis_2">
    <g id="ytick_1">
     <g id="line2d_63">
      <defs>
       <path id="mdedd82a36b" d="M 0 0 
L 3.5 0 
" style="stroke: #000000; stroke-width: 0.8"/>
      </defs>
      <g>
       <use xlink:href="#mdedd82a36b" x="46.2" y="283.664659" style="stroke: #000000; stroke-width: 0.8"/>
      </g>
     </g>
     <g id="line2d_64">
      <defs>
       <path id="m1b71eb1896" d="M 0 0 
L -3.5 0 
" style="stroke: #000000; stroke-width: 0.8"/>
      </defs>
      <g>
       <use xlink:href="#m1b71eb1896" x="443.937921" y="283.664659" style="stroke: #000000; stroke-width: 0.8"/>
      </g>
     </g>
     <g id="text_9">
      <!-- 0 -->
      <g transform="translate(35.7 288.523097) scale(0.14 -0.14)">
       <use xlink:href="#LatinModernMath-Regular-30"/>
      </g>
     </g>
    </g>
    <g id="ytick_2">
     <g id="line2d_65">
      <g>
       <use xlink:href="#mdedd82a36b" x="46.2" y="226.652948" style="stroke: #000000; stroke-width: 0.8"/>
      </g>
     </g>
     <g id="line2d_66">
      <g>
       <use xlink:href="#m1b71eb1896" x="443.937921" y="226.652948" style="stroke: #000000; stroke-width: 0.8"/>
      </g>
     </g>
     <g id="text_10">
      <!-- 2 -->
      <g transform="translate(35.7 231.511385) scale(0.14 -0.14)">
       <use xlink:href="#LatinModernMath-Regular-32"/>
      </g>
     </g>
    </g>
    <g id="ytick_3">
     <g id="line2d_67">
      <g>
       <use xlink:href="#mdedd82a36b" x="46.2" y="169.641236" style="stroke: #000000; stroke-width: 0.8"/>
      </g>
     </g>
     <g id="line2d_68">
      <g>
       <use xlink:href="#m1b71eb1896" x="443.937921" y="169.641236" style="stroke: #000000; stroke-width: 0.8"/>
      </g>
     </g>
     <g id="text_11">
      <!-- 4 -->
      <g transform="translate(35.7 174.499674) scale(0.14 -0.14)">
       <defs>
        <path id="LatinModernMath-Regular-34" d="M 3014 1056 
L 3014 1254 
L 2374 1254 
L 2374 4166 
C 2374 4294 2374 4333 2272 4333 
C 2214 4333 2195 4333 2144 4256 
L 179 1254 
L 179 1056 
L 1882 1056 
L 1882 499 
C 1882 269 1869 198 1395 198 
L 1261 198 
L 1261 0 
C 1523 19 1856 19 2125 19 
C 2394 19 2733 19 2995 0 
L 2995 198 
L 2861 198 
C 2387 198 2374 269 2374 499 
L 2374 1056 
L 3014 1056 
z
M 1920 1254 
L 358 1254 
L 1920 3642 
L 1920 1254 
z
" transform="scale(0.015625)"/>
       </defs>
       <use xlink:href="#LatinModernMath-Regular-34"/>
      </g>
     </g>
    </g>
    <g id="ytick_4">
     <g id="line2d_69">
      <g>
       <use xlink:href="#mdedd82a36b" x="46.2" y="112.629525" style="stroke: #000000; stroke-width: 0.8"/>
      </g>
     </g>
     <g id="line2d_70">
      <g>
       <use xlink:href="#m1b71eb1896" x="443.937921" y="112.629525" style="stroke: #000000; stroke-width: 0.8"/>
      </g>
     </g>
     <g id="text_12">
      <!-- 6 -->
      <g transform="translate(35.7 117.487962) scale(0.14 -0.14)">
       <defs>
        <path id="LatinModernMath-Regular-36" d="M 2925 1306 
C 2925 2118 2355 2733 1645 2733 
C 1210 2733 973 2406 845 2099 
L 845 2253 
C 845 3872 1638 4102 1965 4102 
C 2118 4102 2387 4064 2528 3846 
C 2432 3846 2176 3846 2176 3558 
C 2176 3360 2330 3264 2470 3264 
C 2573 3264 2765 3322 2765 3571 
C 2765 3955 2483 4262 1952 4262 
C 1133 4262 269 3437 269 2022 
C 269 314 1011 -141 1606 -141 
C 2317 -141 2925 461 2925 1306 
z
M 2349 1312 
C 2349 1005 2349 685 2240 454 
C 2048 70 1754 38 1606 38 
C 1203 38 1011 422 973 518 
C 858 819 858 1331 858 1446 
C 858 1946 1062 2586 1638 2586 
C 1741 2586 2035 2586 2234 2189 
C 2349 1952 2349 1626 2349 1312 
z
" transform="scale(0.015625)"/>
       </defs>
       <use xlink:href="#LatinModernMath-Regular-36"/>
      </g>
     </g>
    </g>
    <g id="ytick_5">
     <g id="line2d_71">
      <g>
       <use xlink:href="#mdedd82a36b" x="46.2" y="55.617813" style="stroke: #000000; stroke-width: 0.8"/>
      </g>
     </g>
     <g id="line2d_72">
      <g>
       <use xlink:href="#m1b71eb1896" x="443.937921" y="55.617813" style="stroke: #000000; stroke-width: 0.8"/>
      </g>
     </g>
     <g id="text_13">
      <!-- 8 -->
      <g transform="translate(35.7 60.476251) scale(0.14 -0.14)">
       <defs>
        <path id="LatinModernMath-Regular-38" d="M 2925 1075 
C 2925 1306 2854 1594 2611 1862 
C 2490 1997 2387 2061 1978 2317 
C 2438 2554 2752 2886 2752 3309 
C 2752 3898 2182 4262 1600 4262 
C 960 4262 442 3789 442 3194 
C 442 3078 454 2790 723 2490 
C 794 2413 1030 2253 1190 2144 
C 819 1958 269 1600 269 966 
C 269 288 922 -141 1594 -141 
C 2317 -141 2925 390 2925 1075 
z
M 2470 3309 
C 2470 2944 2221 2637 1837 2413 
L 1043 2925 
C 749 3117 723 3334 723 3443 
C 723 3834 1139 4102 1594 4102 
C 2061 4102 2470 3770 2470 3309 
z
M 2605 845 
C 2605 371 2125 38 1600 38 
C 1050 38 589 435 589 966 
C 589 1338 794 1747 1338 2048 
L 2125 1549 
C 2304 1427 2605 1235 2605 845 
z
" transform="scale(0.015625)"/>
       </defs>
       <use xlink:href="#LatinModernMath-Regular-38"/>
      </g>
     </g>
    </g>
    <g id="ytick_6">
     <g id="line2d_73">
      <defs>
       <path id="mccf36aa87a" d="M 0 0 
L 2 0 
" style="stroke: #000000; stroke-width: 0.6"/>
      </defs>
      <g>
       <use xlink:href="#mccf36aa87a" x="46.2" y="269.411731" style="stroke: #000000; stroke-width: 0.6"/>
      </g>
     </g>
     <g id="line2d_74">
      <defs>
       <path id="ma37ca59cc5" d="M 0 0 
L -2 0 
" style="stroke: #000000; stroke-width: 0.6"/>
      </defs>
      <g>
       <use xlink:href="#ma37ca59cc5" x="443.937921" y="269.411731" style="stroke: #000000; stroke-width: 0.6"/>
      </g>
     </g>
    </g>
    <g id="ytick_7">
     <g id="line2d_75">
      <g>
       <use xlink:href="#mccf36aa87a" x="46.2" y="255.158803" style="stroke: #000000; stroke-width: 0.6"/>
      </g>
     </g>
     <g id="line2d_76">
      <g>
       <use xlink:href="#ma37ca59cc5" x="443.937921" y="255.158803" style="stroke: #000000; stroke-width: 0.6"/>
      </g>
     </g>
    </g>
    <g id="ytick_8">
     <g id="line2d_77">
      <g>
       <use xlink:href="#mccf36aa87a" x="46.2" y="240.905875" style="stroke: #000000; stroke-width: 0.6"/>
      </g>
     </g>
     <g id="line2d_78">
      <g>
       <use xlink:href="#ma37ca59cc5" x="443.937921" y="240.905875" style="stroke: #000000; stroke-width: 0.6"/>
      </g>
     </g>
    </g>
    <g id="ytick_9">
     <g id="line2d_79">
      <g>
       <use xlink:href="#mccf36aa87a" x="46.2" y="212.40002" style="stroke: #000000; stroke-width: 0.6"/>
      </g>
     </g>
     <g id="line2d_80">
      <g>
       <use xlink:href="#ma37ca59cc5" x="443.937921" y="212.40002" style="stroke: #000000; stroke-width: 0.6"/>
      </g>
     </g>
    </g>
    <g id="ytick_10">
     <g id="line2d_81">
      <g>
       <use xlink:href="#mccf36aa87a" x="46.2" y="198.147092" style="stroke: #000000; stroke-width: 0.6"/>
      </g>
     </g>
     <g id="line2d_82">
      <g>
       <use xlink:href="#ma37ca59cc5" x="443.937921" y="198.147092" style="stroke: #000000; stroke-width: 0.6"/>
      </g>
     </g>
    </g>
    <g id="ytick_11">
     <g id="line2d_83">
      <g>
       <use xlink:href="#mccf36aa87a" x="46.2" y="183.894164" style="stroke: #000000; stroke-width: 0.6"/>
      </g>
     </g>
     <g id="line2d_84">
      <g>
       <use xlink:href="#ma37ca59cc5" x="443.937921" y="183.894164" style="stroke: #000000; stroke-width: 0.6"/>
      </g>
     </g>
    </g>
    <g id="ytick_12">
     <g id="line2d_85">
      <g>
       <use xlink:href="#mccf36aa87a" x="46.2" y="155.388308" style="stroke: #000000; stroke-width: 0.6"/>
      </g>
     </g>
     <g id="line2d_86">
      <g>
       <use xlink:href="#ma37ca59cc5" x="443.937921" y="155.388308" style="stroke: #000000; stroke-width: 0.6"/>
      </g>
     </g>
    </g>
    <g id="ytick_13">
     <g id="line2d_87">
      <g>
       <use xlink:href="#mccf36aa87a" x="46.2" y="141.13538" style="stroke: #000000; stroke-width: 0.6"/>
      </g>
     </g>
     <g id="line2d_88">
      <g>
       <use xlink:href="#ma37ca59cc5" x="443.937921" y="141.13538" style="stroke: #000000; stroke-width: 0.6"/>
      </g>
     </g>
    </g>
    <g id="ytick_14">
     <g id="line2d_89">
      <g>
       <use xlink:href="#mccf36aa87a" x="46.2" y="126.882453" style="stroke: #000000; stroke-width: 0.6"/>
      </g>
     </g>
     <g id="line2d_90">
      <g>
       <use xlink:href="#ma37ca59cc5" x="443.937921" y="126.882453" style="stroke: #000000; stroke-width: 0.6"/>
      </g>
     </g>
    </g>
    <g id="ytick_15">
     <g id="line2d_91">
      <g>
       <use xlink:href="#mccf36aa87a" x="46.2" y="98.376597" style="stroke: #000000; stroke-width: 0.6"/>
      </g>
     </g>
     <g id="line2d_92">
      <g>
       <use xlink:href="#ma37ca59cc5" x="443.937921" y="98.376597" style="stroke: #000000; stroke-width: 0.6"/>
      </g>
     </g>
    </g>
    <g id="ytick_16">
     <g id="line2d_93">
      <g>
       <use xlink:href="#mccf36aa87a" x="46.2" y="84.123669" style="stroke: #000000; stroke-width: 0.6"/>
      </g>
     </g>
     <g id="line2d_94">
      <g>
       <use xlink:href="#ma37ca59cc5" x="443.937921" y="84.123669" style="stroke: #000000; stroke-width: 0.6"/>
      </g>
     </g>
    </g>
    <g id="ytick_17">
     <g id="line2d_95">
      <g>
       <use xlink:href="#mccf36aa87a" x="46.2" y="69.870741" style="stroke: #000000; stroke-width: 0.6"/>
      </g>
     </g>
     <g id="line2d_96">
      <g>
       <use xlink:href="#ma37ca59cc5" x="443.937921" y="69.870741" style="stroke: #000000; stroke-width: 0.6"/>
      </g>
     </g>
    </g>
    <g id="ytick_18">
     <g id="line2d_97">
      <g>
       <use xlink:href="#mccf36aa87a" x="46.2" y="41.364885" style="stroke: #000000; stroke-width: 0.6"/>
      </g>
     </g>
     <g id="line2d_98">
      <g>
       <use xlink:href="#ma37ca59cc5" x="443.937921" y="41.364885" style="stroke: #000000; stroke-width: 0.6"/>
      </g>
     </g>
    </g>
    <g id="ytick_19">
     <g id="line2d_99">
      <g>
       <use xlink:href="#mccf36aa87a" x="46.2" y="27.111957" style="stroke: #000000; stroke-width: 0.6"/>
      </g>
     </g>
     <g id="line2d_100">
      <g>
       <use xlink:href="#ma37ca59cc5" x="443.937921" y="27.111957" style="stroke: #000000; stroke-width: 0.6"/>
      </g>
     </g>
    </g>
    <g id="text_14">
     <!-- $I(\gamma)$ -->
     <g transform="translate(28.76 167.47625) rotate(-90) scale(0.14 -0.14)">
      <defs>
       <path id="DejaVuSans-Oblique-49" d="M 1081 4666 
L 1716 4666 
L 806 0 
L 172 0 
L 1081 4666 
z
" transform="scale(0.015625)"/>
       <path id="DejaVuSans-28" d="M 1984 4856 
Q 1566 4138 1362 3434 
Q 1159 2731 1159 2009 
Q 1159 1288 1364 580 
Q 1569 -128 1984 -844 
L 1484 -844 
Q 1016 -109 783 600 
Q 550 1309 550 2009 
Q 550 2706 781 3412 
Q 1013 4119 1484 4856 
L 1984 4856 
z
" transform="scale(0.015625)"/>
       <path id="DejaVuSans-29" d="M 513 4856 
L 1013 4856 
Q 1481 4119 1714 3412 
Q 1947 2706 1947 2009 
Q 1947 1309 1714 600 
Q 1481 -109 1013 -844 
L 513 -844 
Q 928 -128 1133 580 
Q 1338 1288 1338 2009 
Q 1338 2731 1133 3434 
Q 928 4138 513 4856 
z
" transform="scale(0.015625)"/>
      </defs>
      <use xlink:href="#DejaVuSans-Oblique-49" transform="translate(0 0.125)"/>
      <use xlink:href="#DejaVuSans-28" transform="translate(29.492188 0.125)"/>
      <use xlink:href="#DejaVuSans-Oblique-3b3" transform="translate(68.505859 0.125)"/>
      <use xlink:href="#DejaVuSans-29" transform="translate(127.685547 0.125)"/>
     </g>
    </g>
   </g>
   <g id="line2d_101">
    <path d="M 48.169 283.664659 
L 48.5628 278.758488 
L 49.350399 275.163016 
L 50.137999 272.684004 
L 51.319399 269.765375 
L 52.894599 266.625369 
L 54.469798 263.970277 
L 56.438798 261.073939 
L 58.801597 258.010016 
L 61.558197 254.822719 
L 64.708596 251.53856 
L 68.252796 248.172588 
L 72.190795 244.732502 
L 76.916394 240.912717 
L 82.035793 237.0573 
L 87.942792 232.878341 
L 95.03119 228.138958 
L 103.694789 222.621364 
L 116.690186 214.64286 
L 134.411182 203.729394 
L 142.287181 198.616868 
L 148.58798 194.278847 
L 153.707379 190.507237 
L 158.039178 187.068291 
L 161.977177 183.664977 
L 165.127576 180.677848 
L 167.884176 177.794196 
L 170.246975 175.040815 
L 172.215975 172.462176 
L 174.184975 169.498137 
L 175.760174 166.686034 
L 176.941574 164.137896 
L 177.729174 162.071221 
L 178.516774 159.424452 
L 178.910574 157.633715 
L 179.698173 152.054548 
L 190.330771 153.152879 
L 201.357169 154.061076 
L 212.777367 154.771156 
L 224.197565 155.260032 
L 236.405362 155.547086 
L 248.61316 155.596686 
L 260.427157 155.41938 
L 272.634955 154.999773 
L 284.055153 154.382337 
L 295.08155 153.569635 
L 305.714148 152.570789 
L 310.439747 152.054548 
L 311.227347 157.633715 
L 312.014947 160.850885 
L 312.802547 163.154444 
L 313.983947 165.890721 
L 315.559146 168.840792 
L 317.134346 171.332774 
L 319.103346 174.046246 
L 321.466145 176.910229 
L 324.222745 179.883675 
L 327.373144 182.943779 
L 330.917343 186.079138 
L 335.249142 189.595335 
L 339.974741 193.14631 
L 345.88174 197.290206 
L 352.970139 201.970012 
L 362.027537 207.665767 
L 396.28813 228.912037 
L 403.376529 233.694749 
L 409.677328 238.216918 
L 414.796727 242.154147 
L 419.522326 246.076268 
L 423.460325 249.632088 
L 427.004524 253.140304 
L 430.154924 256.601171 
L 432.517723 259.495827 
L 434.880523 262.765334 
L 436.849522 265.925323 
L 438.424722 268.918751 
L 439.606122 271.633164 
L 440.393721 273.845532 
L 441.181321 276.72468 
L 441.575121 278.758488 
L 441.968921 283.664659 
L 441.968921 283.664659 
" clip-path="url(#p3a99bcc098)" style="fill: none; stroke: #1f77b4; stroke-width: 2; stroke-linecap: square"/>
   </g>
   <g id="line2d_102">
    <path d="M 48.169 283.664659 
L 51.319399 283.521624 
L 56.044998 283.088697 
L 61.558197 282.359373 
L 67.465196 281.350254 
L 73.372195 280.121082 
L 79.279193 278.67535 
L 85.186192 277.009539 
L 91.093191 275.114983 
L 97.00019 272.978598 
L 102.513389 270.750951 
L 108.026588 268.279051 
L 113.145987 265.745166 
L 118.265386 262.958718 
L 122.990985 260.138491 
L 127.716584 257.052875 
L 132.048383 253.96341 
L 136.380182 250.591595 
L 140.318181 247.248571 
L 144.25618 243.602387 
L 147.80038 240.022336 
L 151.344579 236.112901 
L 154.494978 232.31364 
L 157.645378 228.1515 
L 160.401977 224.152984 
L 163.158577 219.747974 
L 165.521376 215.572721 
L 167.884176 210.93097 
L 169.853175 206.604637 
L 171.822175 201.723009 
L 173.397375 197.272532 
L 174.972574 192.122237 
L 176.153974 187.570279 
L 177.335374 182.035725 
L 178.122974 177.359909 
L 178.910574 170.827365 
L 179.698173 159.517952 
L 282.873753 159.516811 
L 310.439747 159.517952 
L 311.227347 170.827365 
L 312.014947 177.359909 
L 312.802547 182.035725 
L 313.983947 187.570279 
L 315.165346 192.122237 
L 316.740546 197.272532 
L 318.315746 201.723009 
L 320.284745 206.604637 
L 322.253745 210.93097 
L 324.616545 215.572721 
L 326.979344 219.747974 
L 329.735944 224.152984 
L 332.492543 228.1515 
L 335.642942 232.31364 
L 338.793342 236.112901 
L 342.337541 240.022336 
L 345.88174 243.602387 
L 349.81974 247.248571 
L 353.757739 250.591595 
L 358.089538 253.96341 
L 362.421337 257.052875 
L 367.146936 260.138491 
L 371.872535 262.958718 
L 376.991934 265.745166 
L 382.111333 268.279051 
L 387.624532 270.750951 
L 393.137731 272.978598 
L 399.04473 275.114983 
L 404.951729 277.009539 
L 410.858727 278.67535 
L 416.765726 280.121082 
L 422.672725 281.350254 
L 428.579724 282.359373 
L 434.092923 283.088697 
L 439.212322 283.547765 
L 441.968921 283.664659 
L 441.968921 283.664659 
" clip-path="url(#p3a99bcc098)" style="fill: none; stroke: #ff7f0e; stroke-width: 2; stroke-linecap: square"/>
   </g>
   <g id="line2d_103">
    <path d="M 48.169 283.664659 
L 48.5628 278.752233 
L 49.350399 275.130417 
L 50.137999 272.613651 
L 51.319399 269.62234 
L 52.894599 266.360983 
L 54.863598 262.909913 
L 57.226398 259.297084 
L 59.982997 255.526227 
L 63.133397 251.588017 
L 67.071396 247.021892 
L 72.190795 241.452076 
L 78.885393 234.51348 
L 105.663788 207.101209 
L 112.358387 199.767507 
L 118.265386 192.978838 
L 123.778585 186.304477 
L 128.897984 179.750268 
L 133.623583 173.334597 
L 137.955382 167.085544 
L 141.893381 161.043728 
L 145.83138 154.595418 
L 149.375579 148.379288 
L 152.919779 141.695663 
L 156.070178 135.282273 
L 159.220577 128.326274 
L 161.977177 121.691536 
L 164.733776 114.413564 
L 167.096576 107.522416 
L 169.065576 101.184424 
L 171.034575 94.135353 
L 172.609775 87.810759 
L 174.184975 80.636548 
L 175.366374 74.459899 
L 176.547774 67.243356 
L 177.729174 58.244628 
L 178.516774 50.222082 
L 178.910574 44.79642 
L 179.698173 27.907841 
L 190.724571 29.041376 
L 201.357169 29.91337 
L 212.777367 30.623309 
L 224.197565 31.112184 
L 236.405362 31.399238 
L 248.61316 31.448838 
L 260.427157 31.271532 
L 272.634955 30.851926 
L 284.055153 30.234489 
L 295.08155 29.421929 
L 305.714148 28.423084 
L 310.439747 27.907841 
L 311.227347 44.79642 
L 312.014947 54.546136 
L 312.802547 61.525509 
L 313.983947 69.796341 
L 315.165346 76.613089 
L 316.740546 84.34972 
L 318.315746 91.062137 
L 320.284745 98.461972 
L 322.253745 105.060507 
L 324.616545 112.19139 
L 326.979344 118.660223 
L 329.735944 125.552369 
L 332.492543 131.879244 
L 335.642942 138.550469 
L 338.793342 144.729684 
L 342.337541 151.194669 
L 345.88174 157.227934 
L 349.81974 163.505493 
L 354.151539 169.973614 
L 358.877138 176.590394 
L 363.602737 182.822344 
L 368.722136 189.209366 
L 374.235335 195.734926 
L 380.142333 202.394749 
L 386.836932 209.615967 
L 395.106731 218.192894 
L 421.097525 244.841251 
L 425.823124 250.184018 
L 429.367324 254.510844 
L 432.123923 258.179884 
L 434.486723 261.654843 
L 436.455722 264.917053 
L 438.030922 267.916914 
L 439.212322 270.549237 
L 440.393721 273.795268 
L 441.181321 276.706963 
L 441.575121 278.752233 
L 441.968921 283.664659 
L 441.968921 283.664659 
" clip-path="url(#p3a99bcc098)" style="fill: none; stroke: #2ca02c; stroke-width: 2; stroke-linecap: square"/>
   </g>
   <g id="patch_3">
    <path d="M 46.2 296.4525 
L 46.2 15.12 
" style="fill: none; stroke: #000000; stroke-width: 0.8; stroke-linejoin: miter; stroke-linecap: square"/>
   </g>
   <g id="patch_4">
    <path d="M 443.937921 296.4525 
L 443.937921 15.12 
" style="fill: none; stroke: #000000; stroke-width: 0.8; stroke-linejoin: miter; stroke-linecap: square"/>
   </g>
   <g id="patch_5">
    <path d="M 46.2 296.4525 
L 443.937921 296.4525 
" style="fill: none; stroke: #000000; stroke-width: 0.8; stroke-linejoin: miter; stroke-linecap: square"/>
   </g>
   <g id="patch_6">
    <path d="M 46.2 15.12 
L 443.937921 15.12 
" style="fill: none; stroke: #000000; stroke-width: 0.8; stroke-linejoin: miter; stroke-linecap: square"/>
   </g>
   <g id="legend_1">
    <g id="patch_7">
     <path d="M 350.557921 85.12 
L 434.137921 85.12 
Q 436.937921 85.12 436.937921 82.32 
L 436.937921 24.92 
Q 436.937921 22.12 434.137921 22.12 
L 350.557921 22.12 
Q 347.757921 22.12 347.757921 24.92 
L 347.757921 82.32 
Q 347.757921 85.12 350.557921 85.12 
z
" style="fill: #ffffff; opacity: 0.8; stroke: #cccccc; stroke-linejoin: miter"/>
    </g>
    <g id="line2d_104">
     <path d="M 353.357921 32.703125 
L 367.357921 32.703125 
L 381.357921 32.703125 
" style="fill: none; stroke: #1f77b4; stroke-width: 2; stroke-linecap: square"/>
    </g>
    <g id="text_15">
     <!-- $I_1$ -->
     <g transform="translate(392.557921 37.603125) scale(0.14 -0.14)">
      <defs>
       <path id="DejaVuSans-31" d="M 794 531 
L 1825 531 
L 1825 4091 
L 703 3866 
L 703 4441 
L 1819 4666 
L 2450 4666 
L 2450 531 
L 3481 531 
L 3481 0 
L 794 0 
L 794 531 
z
" transform="scale(0.015625)"/>
      </defs>
      <use xlink:href="#DejaVuSans-Oblique-49" transform="translate(0 0.09375)"/>
      <use xlink:href="#DejaVuSans-31" transform="translate(29.492188 -16.3125) scale(0.7)"/>
     </g>
    </g>
    <g id="line2d_105">
     <path d="M 353.357921 52.303125 
L 367.357921 52.303125 
L 381.357921 52.303125 
" style="fill: none; stroke: #ff7f0e; stroke-width: 2; stroke-linecap: square"/>
    </g>
    <g id="text_16">
     <!-- $-I_2$ -->
     <g transform="translate(392.557921 57.203125) scale(0.14 -0.14)">
      <defs>
       <path id="DejaVuSans-2212" d="M 678 2272 
L 4684 2272 
L 4684 1741 
L 678 1741 
L 678 2272 
z
" transform="scale(0.015625)"/>
       <path id="DejaVuSans-32" d="M 1228 531 
L 3431 531 
L 3431 0 
L 469 0 
L 469 531 
Q 828 903 1448 1529 
Q 2069 2156 2228 2338 
Q 2531 2678 2651 2914 
Q 2772 3150 2772 3378 
Q 2772 3750 2511 3984 
Q 2250 4219 1831 4219 
Q 1534 4219 1204 4116 
Q 875 4013 500 3803 
L 500 4441 
Q 881 4594 1212 4672 
Q 1544 4750 1819 4750 
Q 2544 4750 2975 4387 
Q 3406 4025 3406 3419 
Q 3406 3131 3298 2873 
Q 3191 2616 2906 2266 
Q 2828 2175 2409 1742 
Q 1991 1309 1228 531 
z
" transform="scale(0.015625)"/>
      </defs>
      <use xlink:href="#DejaVuSans-2212" transform="translate(0 0.09375)"/>
      <use xlink:href="#DejaVuSans-Oblique-49" transform="translate(83.789062 0.09375)"/>
      <use xlink:href="#DejaVuSans-32" transform="translate(113.28125 -16.3125) scale(0.7)"/>
     </g>
    </g>
    <g id="line2d_106">
     <path d="M 353.357921 71.903125 
L 367.357921 71.903125 
L 381.357921 71.903125 
" style="fill: none; stroke: #2ca02c; stroke-width: 2; stroke-linecap: square"/>
    </g>
    <g id="text_17">
     <!-- $I_1 - I_2$ -->
     <g transform="translate(392.557921 76.803125) scale(0.14 -0.14)">
      <use xlink:href="#DejaVuSans-Oblique-49" transform="translate(0 0.09375)"/>
      <use xlink:href="#DejaVuSans-31" transform="translate(29.492188 -16.3125) scale(0.7)"/>
      <use xlink:href="#DejaVuSans-2212" transform="translate(96.245117 0.09375)"/>
      <use xlink:href="#DejaVuSans-Oblique-49" transform="translate(199.516602 0.09375)"/>
      <use xlink:href="#DejaVuSans-32" transform="translate(229.008789 -16.3125) scale(0.7)"/>
     </g>
    </g>
   </g>
  </g>
 </g>
 <defs>
  <clipPath id="p3a99bcc098">
   <rect x="46.2" y="15.12" width="397.737921" height="281.3325"/>
  </clipPath>
 </defs>
</svg>
