<?xml version="1.0" encoding="utf-8" standalone="no"?>
<!DOCTYPE svg PUBLIC "-//W3C//DTD SVG 1.1//EN"
  "http://www.w3.org/Graphics/SVG/1.1/DTD/svg11.dtd">
<svg xmlns:xlink="http://www.w3.org/1999/xlink" width="460.8pt" height="345.6pt" viewBox="0 0 460.8 345.6" xmlns="http://www.w3.org/2000/svg" version="1.1">
 <metadata>
  <rdf:RDF xmlns:dc="http://purl.org/dc/elements/1.1/" xmlns:cc="http://creativecommons.org/ns#" xmlns:rdf="http://www.w3.org/1999/02/22-rdf-syntax-ns#">
   <cc:Work>
    <dc:type rdf:resource="http://purl.org/dc/dcmitype/StillImage"/>
    <dc:date>2023-11-06T16:06:35.493880</dc:date>
    <dc:format>image/svg+xml</dc:format>
    <dc:creator>
     <cc:Agent>
      <dc:title>Matplotlib v3.7.0, https://matplotlib.org/</dc:title>
     </cc:Agent>
    </dc:creator>
   </cc:Work>
  </rdf:RDF>
 </metadata>
 <defs>
  <style type="text/css">*{stroke-linejoin: round; stroke-linecap: butt}</style>
 </defs>
 <g id="figure_1">
  <g id="patch_1">
   <path d="M 0 345.6 
L 460.8 345.6 
L 460.8 0 
L 0 0 
z
" style="fill: #ffffff"/>
  </g>
  <g id="axes_1">
   <g id="patch_2">
    <path d="M 62.886 295.7325 
L 445.68 295.7325 
L 445.68 15.12 
L 62.886 15.12 
z
" style="fill: #ffffff"/>
   </g>
   <g id="matplotlib.axis_1">
    <g id="xtick_1">
     <g id="line2d_1">
      <defs>
       <path id="mdfd364cb89" d="M 0 0 
L 0 -3.5 
" style="stroke: #000000; stroke-width: 0.8"/>
      </defs>
      <g>
       <use xlink:href="#mdfd364cb89" x="102.681416" y="295.7325" style="stroke: #000000; stroke-width: 0.8"/>
      </g>
     </g>
     <g id="line2d_2">
      <defs>
       <path id="m688bbb3985" d="M 0 0 
L 0 3.5 
" style="stroke: #000000; stroke-width: 0.8"/>
      </defs>
      <g>
       <use xlink:href="#m688bbb3985" x="102.681416" y="15.12" style="stroke: #000000; stroke-width: 0.8"/>
      </g>
     </g>
     <g id="text_1">
      <!-- 3.8 -->
      <g transform="translate(93.735635 308.949375) scale(0.14 -0.14)">
       <defs>
        <path id="LatinModernMath-Regular-33" d="M 2925 1094 
C 2925 1619 2522 2118 1856 2253 
C 2381 2426 2752 2874 2752 3379 
C 2752 3904 2189 4262 1574 4262 
C 928 4262 442 3878 442 3392 
C 442 3181 582 3059 768 3059 
C 966 3059 1094 3200 1094 3386 
C 1094 3706 794 3706 698 3706 
C 896 4019 1318 4102 1549 4102 
C 1811 4102 2163 3962 2163 3386 
C 2163 3309 2150 2938 1984 2656 
C 1792 2349 1574 2330 1414 2323 
C 1363 2317 1210 2304 1165 2304 
C 1114 2298 1069 2291 1069 2227 
C 1069 2157 1114 2157 1222 2157 
L 1504 2157 
C 2029 2157 2266 1722 2266 1094 
C 2266 224 1824 38 1542 38 
C 1267 38 787 147 563 525 
C 787 493 986 634 986 877 
C 986 1107 813 1235 627 1235 
C 474 1235 269 1146 269 864 
C 269 282 864 -141 1562 -141 
C 2342 -141 2925 442 2925 1094 
z
" transform="scale(0.015625)"/>
        <path id="LatinModernMath-Regular-2e" d="M 1229 339 
C 1229 525 1075 678 890 678 
C 704 678 550 525 550 339 
C 550 154 704 0 890 0 
C 1075 0 1229 154 1229 339 
z
" transform="scale(0.015625)"/>
        <path id="LatinModernMath-Regular-38" d="M 2925 1075 
C 2925 1306 2854 1594 2611 1862 
C 2490 1997 2387 2061 1978 2317 
C 2438 2554 2752 2886 2752 3309 
C 2752 3898 2182 4262 1600 4262 
C 960 4262 442 3789 442 3194 
C 442 3078 454 2790 723 2490 
C 794 2413 1030 2253 1190 2144 
C 819 1958 269 1600 269 966 
C 269 288 922 -141 1594 -141 
C 2317 -141 2925 390 2925 1075 
z
M 2470 3309 
C 2470 2944 2221 2637 1837 2413 
L 1043 2925 
C 749 3117 723 3334 723 3443 
C 723 3834 1139 4102 1594 4102 
C 2061 4102 2470 3770 2470 3309 
z
M 2605 845 
C 2605 371 2125 38 1600 38 
C 1050 38 589 435 589 966 
C 589 1338 794 1747 1338 2048 
L 2125 1549 
C 2304 1427 2605 1235 2605 845 
z
" transform="scale(0.015625)"/>
       </defs>
       <use xlink:href="#LatinModernMath-Regular-33"/>
       <use xlink:href="#LatinModernMath-Regular-2e" x="49.999985"/>
       <use xlink:href="#LatinModernMath-Regular-38" x="77.799973"/>
      </g>
     </g>
    </g>
    <g id="xtick_2">
     <g id="line2d_3">
      <g>
       <use xlink:href="#mdfd364cb89" x="178.482208" y="295.7325" style="stroke: #000000; stroke-width: 0.8"/>
      </g>
     </g>
     <g id="line2d_4">
      <g>
       <use xlink:href="#m688bbb3985" x="178.482208" y="15.12" style="stroke: #000000; stroke-width: 0.8"/>
      </g>
     </g>
     <g id="text_2">
      <!-- 3.9 -->
      <g transform="translate(169.536427 308.949375) scale(0.14 -0.14)">
       <defs>
        <path id="LatinModernMath-Regular-39" d="M 2925 2106 
C 2925 3827 2189 4262 1619 4262 
C 1267 4262 954 4147 678 3859 
C 416 3571 269 3302 269 2822 
C 269 2022 832 1395 1549 1395 
C 1939 1395 2202 1664 2349 2035 
L 2349 1830 
C 2349 333 1683 38 1312 38 
C 1203 38 858 51 685 269 
C 966 269 1018 454 1018 563 
C 1018 762 864 858 723 858 
C 621 858 429 800 429 550 
C 429 122 774 -141 1318 -141 
C 2144 -141 2925 730 2925 2106 
z
M 2336 2694 
C 2336 2163 2118 1542 1555 1542 
C 1453 1542 1158 1542 960 1946 
C 845 2182 845 2502 845 2816 
C 845 3162 845 3462 979 3699 
C 1152 4019 1395 4102 1619 4102 
C 1914 4102 2125 3885 2234 3597 
C 2310 3392 2336 2989 2336 2694 
z
" transform="scale(0.015625)"/>
       </defs>
       <use xlink:href="#LatinModernMath-Regular-33"/>
       <use xlink:href="#LatinModernMath-Regular-2e" x="49.999985"/>
       <use xlink:href="#LatinModernMath-Regular-39" x="77.799973"/>
      </g>
     </g>
    </g>
    <g id="xtick_3">
     <g id="line2d_5">
      <g>
       <use xlink:href="#mdfd364cb89" x="254.283" y="295.7325" style="stroke: #000000; stroke-width: 0.8"/>
      </g>
     </g>
     <g id="line2d_6">
      <g>
       <use xlink:href="#m688bbb3985" x="254.283" y="15.12" style="stroke: #000000; stroke-width: 0.8"/>
      </g>
     </g>
     <g id="text_3">
      <!-- 4.0 -->
      <g transform="translate(245.337219 308.949375) scale(0.14 -0.14)">
       <defs>
        <path id="LatinModernMath-Regular-34" d="M 3014 1056 
L 3014 1254 
L 2374 1254 
L 2374 4166 
C 2374 4294 2374 4333 2272 4333 
C 2214 4333 2195 4333 2144 4256 
L 179 1254 
L 179 1056 
L 1882 1056 
L 1882 499 
C 1882 269 1869 198 1395 198 
L 1261 198 
L 1261 0 
C 1523 19 1856 19 2125 19 
C 2394 19 2733 19 2995 0 
L 2995 198 
L 2861 198 
C 2387 198 2374 269 2374 499 
L 2374 1056 
L 3014 1056 
z
M 1920 1254 
L 358 1254 
L 1920 3642 
L 1920 1254 
z
" transform="scale(0.015625)"/>
        <path id="LatinModernMath-Regular-30" d="M 2944 2048 
C 2944 2560 2912 3072 2688 3546 
C 2394 4160 1869 4262 1600 4262 
C 1216 4262 749 4096 486 3501 
C 282 3059 250 2560 250 2048 
C 250 1568 275 992 538 506 
C 813 -13 1280 -141 1594 -141 
C 1939 -141 2426 -6 2707 602 
C 2912 1043 2944 1542 2944 2048 
z
M 2413 2125 
C 2413 1645 2413 1210 2342 800 
C 2246 192 1882 0 1594 0 
C 1344 0 966 160 851 774 
C 781 1158 781 1747 781 2125 
C 781 2534 781 2957 832 3302 
C 954 4064 1434 4122 1594 4122 
C 1805 4122 2227 4006 2349 3373 
C 2413 3014 2413 2528 2413 2125 
z
" transform="scale(0.015625)"/>
       </defs>
       <use xlink:href="#LatinModernMath-Regular-34"/>
       <use xlink:href="#LatinModernMath-Regular-2e" x="49.999985"/>
       <use xlink:href="#LatinModernMath-Regular-30" x="77.799973"/>
      </g>
     </g>
    </g>
    <g id="xtick_4">
     <g id="line2d_7">
      <g>
       <use xlink:href="#mdfd364cb89" x="330.083792" y="295.7325" style="stroke: #000000; stroke-width: 0.8"/>
      </g>
     </g>
     <g id="line2d_8">
      <g>
       <use xlink:href="#m688bbb3985" x="330.083792" y="15.12" style="stroke: #000000; stroke-width: 0.8"/>
      </g>
     </g>
     <g id="text_4">
      <!-- 4.1 -->
      <g transform="translate(321.138011 308.949375) scale(0.14 -0.14)">
       <defs>
        <path id="LatinModernMath-Regular-31" d="M 2682 0 
L 2682 198 
L 2477 198 
C 1901 198 1882 269 1882 506 
L 1882 4096 
C 1882 4250 1882 4262 1734 4262 
C 1338 3853 774 3853 570 3853 
L 570 3654 
C 698 3654 1075 3654 1408 3821 
L 1408 506 
C 1408 275 1389 198 813 198 
L 608 198 
L 608 0 
C 832 19 1389 19 1645 19 
C 1901 19 2458 19 2682 0 
z
" transform="scale(0.015625)"/>
       </defs>
       <use xlink:href="#LatinModernMath-Regular-34"/>
       <use xlink:href="#LatinModernMath-Regular-2e" x="49.999985"/>
       <use xlink:href="#LatinModernMath-Regular-31" x="77.799973"/>
      </g>
     </g>
    </g>
    <g id="xtick_5">
     <g id="line2d_9">
      <g>
       <use xlink:href="#mdfd364cb89" x="405.884584" y="295.7325" style="stroke: #000000; stroke-width: 0.8"/>
      </g>
     </g>
     <g id="line2d_10">
      <g>
       <use xlink:href="#m688bbb3985" x="405.884584" y="15.12" style="stroke: #000000; stroke-width: 0.8"/>
      </g>
     </g>
     <g id="text_5">
      <!-- 4.2 -->
      <g transform="translate(396.938803 308.949375) scale(0.14 -0.14)">
       <defs>
        <path id="LatinModernMath-Regular-32" d="M 2874 1114 
L 2714 1114 
C 2682 922 2637 640 2573 544 
C 2528 493 2106 493 1965 493 
L 813 493 
L 1491 1152 
C 2490 2035 2874 2381 2874 3021 
C 2874 3750 2298 4262 1517 4262 
C 794 4262 320 3674 320 3104 
C 320 2746 640 2746 659 2746 
C 768 2746 992 2822 992 3085 
C 992 3251 877 3418 653 3418 
C 602 3418 589 3418 570 3411 
C 717 3827 1062 4064 1434 4064 
C 2016 4064 2291 3546 2291 3021 
C 2291 2509 1971 2003 1619 1606 
L 390 237 
C 320 166 320 154 320 0 
L 2694 0 
L 2874 1114 
z
" transform="scale(0.015625)"/>
       </defs>
       <use xlink:href="#LatinModernMath-Regular-34"/>
       <use xlink:href="#LatinModernMath-Regular-2e" x="49.999985"/>
       <use xlink:href="#LatinModernMath-Regular-32" x="77.799973"/>
      </g>
     </g>
    </g>
    <g id="xtick_6">
     <g id="line2d_11">
      <defs>
       <path id="mb16bf99fac" d="M 0 0 
L 0 -2 
" style="stroke: #000000; stroke-width: 0.6"/>
      </defs>
      <g>
       <use xlink:href="#mb16bf99fac" x="72.361099" y="295.7325" style="stroke: #000000; stroke-width: 0.6"/>
      </g>
     </g>
     <g id="line2d_12">
      <defs>
       <path id="m1aa096d83a" d="M 0 0 
L 0 2 
" style="stroke: #000000; stroke-width: 0.6"/>
      </defs>
      <g>
       <use xlink:href="#m1aa096d83a" x="72.361099" y="15.12" style="stroke: #000000; stroke-width: 0.6"/>
      </g>
     </g>
    </g>
    <g id="xtick_7">
     <g id="line2d_13">
      <g>
       <use xlink:href="#mb16bf99fac" x="87.521257" y="295.7325" style="stroke: #000000; stroke-width: 0.6"/>
      </g>
     </g>
     <g id="line2d_14">
      <g>
       <use xlink:href="#m1aa096d83a" x="87.521257" y="15.12" style="stroke: #000000; stroke-width: 0.6"/>
      </g>
     </g>
    </g>
    <g id="xtick_8">
     <g id="line2d_15">
      <g>
       <use xlink:href="#mb16bf99fac" x="117.841574" y="295.7325" style="stroke: #000000; stroke-width: 0.6"/>
      </g>
     </g>
     <g id="line2d_16">
      <g>
       <use xlink:href="#m1aa096d83a" x="117.841574" y="15.12" style="stroke: #000000; stroke-width: 0.6"/>
      </g>
     </g>
    </g>
    <g id="xtick_9">
     <g id="line2d_17">
      <g>
       <use xlink:href="#mb16bf99fac" x="133.001733" y="295.7325" style="stroke: #000000; stroke-width: 0.6"/>
      </g>
     </g>
     <g id="line2d_18">
      <g>
       <use xlink:href="#m1aa096d83a" x="133.001733" y="15.12" style="stroke: #000000; stroke-width: 0.6"/>
      </g>
     </g>
    </g>
    <g id="xtick_10">
     <g id="line2d_19">
      <g>
       <use xlink:href="#mb16bf99fac" x="148.161891" y="295.7325" style="stroke: #000000; stroke-width: 0.6"/>
      </g>
     </g>
     <g id="line2d_20">
      <g>
       <use xlink:href="#m1aa096d83a" x="148.161891" y="15.12" style="stroke: #000000; stroke-width: 0.6"/>
      </g>
     </g>
    </g>
    <g id="xtick_11">
     <g id="line2d_21">
      <g>
       <use xlink:href="#mb16bf99fac" x="163.32205" y="295.7325" style="stroke: #000000; stroke-width: 0.6"/>
      </g>
     </g>
     <g id="line2d_22">
      <g>
       <use xlink:href="#m1aa096d83a" x="163.32205" y="15.12" style="stroke: #000000; stroke-width: 0.6"/>
      </g>
     </g>
    </g>
    <g id="xtick_12">
     <g id="line2d_23">
      <g>
       <use xlink:href="#mb16bf99fac" x="193.642366" y="295.7325" style="stroke: #000000; stroke-width: 0.6"/>
      </g>
     </g>
     <g id="line2d_24">
      <g>
       <use xlink:href="#m1aa096d83a" x="193.642366" y="15.12" style="stroke: #000000; stroke-width: 0.6"/>
      </g>
     </g>
    </g>
    <g id="xtick_13">
     <g id="line2d_25">
      <g>
       <use xlink:href="#mb16bf99fac" x="208.802525" y="295.7325" style="stroke: #000000; stroke-width: 0.6"/>
      </g>
     </g>
     <g id="line2d_26">
      <g>
       <use xlink:href="#m1aa096d83a" x="208.802525" y="15.12" style="stroke: #000000; stroke-width: 0.6"/>
      </g>
     </g>
    </g>
    <g id="xtick_14">
     <g id="line2d_27">
      <g>
       <use xlink:href="#mb16bf99fac" x="223.962683" y="295.7325" style="stroke: #000000; stroke-width: 0.6"/>
      </g>
     </g>
     <g id="line2d_28">
      <g>
       <use xlink:href="#m1aa096d83a" x="223.962683" y="15.12" style="stroke: #000000; stroke-width: 0.6"/>
      </g>
     </g>
    </g>
    <g id="xtick_15">
     <g id="line2d_29">
      <g>
       <use xlink:href="#mb16bf99fac" x="239.122842" y="295.7325" style="stroke: #000000; stroke-width: 0.6"/>
      </g>
     </g>
     <g id="line2d_30">
      <g>
       <use xlink:href="#m1aa096d83a" x="239.122842" y="15.12" style="stroke: #000000; stroke-width: 0.6"/>
      </g>
     </g>
    </g>
    <g id="xtick_16">
     <g id="line2d_31">
      <g>
       <use xlink:href="#mb16bf99fac" x="269.443158" y="295.7325" style="stroke: #000000; stroke-width: 0.6"/>
      </g>
     </g>
     <g id="line2d_32">
      <g>
       <use xlink:href="#m1aa096d83a" x="269.443158" y="15.12" style="stroke: #000000; stroke-width: 0.6"/>
      </g>
     </g>
    </g>
    <g id="xtick_17">
     <g id="line2d_33">
      <g>
       <use xlink:href="#mb16bf99fac" x="284.603317" y="295.7325" style="stroke: #000000; stroke-width: 0.6"/>
      </g>
     </g>
     <g id="line2d_34">
      <g>
       <use xlink:href="#m1aa096d83a" x="284.603317" y="15.12" style="stroke: #000000; stroke-width: 0.6"/>
      </g>
     </g>
    </g>
    <g id="xtick_18">
     <g id="line2d_35">
      <g>
       <use xlink:href="#mb16bf99fac" x="299.763475" y="295.7325" style="stroke: #000000; stroke-width: 0.6"/>
      </g>
     </g>
     <g id="line2d_36">
      <g>
       <use xlink:href="#m1aa096d83a" x="299.763475" y="15.12" style="stroke: #000000; stroke-width: 0.6"/>
      </g>
     </g>
    </g>
    <g id="xtick_19">
     <g id="line2d_37">
      <g>
       <use xlink:href="#mb16bf99fac" x="314.923634" y="295.7325" style="stroke: #000000; stroke-width: 0.6"/>
      </g>
     </g>
     <g id="line2d_38">
      <g>
       <use xlink:href="#m1aa096d83a" x="314.923634" y="15.12" style="stroke: #000000; stroke-width: 0.6"/>
      </g>
     </g>
    </g>
    <g id="xtick_20">
     <g id="line2d_39">
      <g>
       <use xlink:href="#mb16bf99fac" x="345.24395" y="295.7325" style="stroke: #000000; stroke-width: 0.6"/>
      </g>
     </g>
     <g id="line2d_40">
      <g>
       <use xlink:href="#m1aa096d83a" x="345.24395" y="15.12" style="stroke: #000000; stroke-width: 0.6"/>
      </g>
     </g>
    </g>
    <g id="xtick_21">
     <g id="line2d_41">
      <g>
       <use xlink:href="#mb16bf99fac" x="360.404109" y="295.7325" style="stroke: #000000; stroke-width: 0.6"/>
      </g>
     </g>
     <g id="line2d_42">
      <g>
       <use xlink:href="#m1aa096d83a" x="360.404109" y="15.12" style="stroke: #000000; stroke-width: 0.6"/>
      </g>
     </g>
    </g>
    <g id="xtick_22">
     <g id="line2d_43">
      <g>
       <use xlink:href="#mb16bf99fac" x="375.564267" y="295.7325" style="stroke: #000000; stroke-width: 0.6"/>
      </g>
     </g>
     <g id="line2d_44">
      <g>
       <use xlink:href="#m1aa096d83a" x="375.564267" y="15.12" style="stroke: #000000; stroke-width: 0.6"/>
      </g>
     </g>
    </g>
    <g id="xtick_23">
     <g id="line2d_45">
      <g>
       <use xlink:href="#mb16bf99fac" x="390.724426" y="295.7325" style="stroke: #000000; stroke-width: 0.6"/>
      </g>
     </g>
     <g id="line2d_46">
      <g>
       <use xlink:href="#m1aa096d83a" x="390.724426" y="15.12" style="stroke: #000000; stroke-width: 0.6"/>
      </g>
     </g>
    </g>
    <g id="xtick_24">
     <g id="line2d_47">
      <g>
       <use xlink:href="#mb16bf99fac" x="421.044743" y="295.7325" style="stroke: #000000; stroke-width: 0.6"/>
      </g>
     </g>
     <g id="line2d_48">
      <g>
       <use xlink:href="#m1aa096d83a" x="421.044743" y="15.12" style="stroke: #000000; stroke-width: 0.6"/>
      </g>
     </g>
    </g>
    <g id="xtick_25">
     <g id="line2d_49">
      <g>
       <use xlink:href="#mb16bf99fac" x="436.204901" y="295.7325" style="stroke: #000000; stroke-width: 0.6"/>
      </g>
     </g>
     <g id="line2d_50">
      <g>
       <use xlink:href="#m1aa096d83a" x="436.204901" y="15.12" style="stroke: #000000; stroke-width: 0.6"/>
      </g>
     </g>
    </g>
    <g id="text_6">
     <!-- $U / t$ -->
     <g transform="translate(243.993 325.383125) scale(0.14 -0.14)">
      <defs>
       <path id="DejaVuSans-Oblique-55" d="M 991 4666 
L 1625 4666 
L 1075 1831 
Q 1041 1641 1027 1517 
Q 1013 1394 1013 1300 
Q 1013 869 1253 645 
Q 1494 422 1959 422 
Q 2563 422 2898 753 
Q 3234 1084 3378 1831 
L 3928 4666 
L 4563 4666 
L 4000 1753 
Q 3816 809 3300 359 
Q 2784 -91 1888 -91 
Q 1188 -91 780 261 
Q 372 613 372 1216 
Q 372 1325 387 1461 
Q 403 1597 434 1753 
L 991 4666 
z
" transform="scale(0.015625)"/>
       <path id="DejaVuSans-2f" d="M 1625 4666 
L 2156 4666 
L 531 -594 
L 0 -594 
L 1625 4666 
z
" transform="scale(0.015625)"/>
       <path id="DejaVuSans-Oblique-74" d="M 2706 3500 
L 2619 3053 
L 1472 3053 
L 1100 1153 
Q 1081 1047 1072 975 
Q 1063 903 1063 863 
Q 1063 663 1183 572 
Q 1303 481 1569 481 
L 2150 481 
L 2053 0 
L 1503 0 
Q 991 0 739 200 
Q 488 400 488 806 
Q 488 878 497 964 
Q 506 1050 525 1153 
L 897 3053 
L 409 3053 
L 500 3500 
L 978 3500 
L 1172 4494 
L 1747 4494 
L 1556 3500 
L 2706 3500 
z
" transform="scale(0.015625)"/>
      </defs>
      <use xlink:href="#DejaVuSans-Oblique-55" transform="translate(0 0.09375)"/>
      <use xlink:href="#DejaVuSans-2f" transform="translate(73.193359 0.09375)"/>
      <use xlink:href="#DejaVuSans-Oblique-74" transform="translate(106.884766 0.09375)"/>
     </g>
    </g>
   </g>
   <g id="matplotlib.axis_2">
    <g id="ytick_1">
     <g id="line2d_51">
      <defs>
       <path id="me3e587f2b7" d="M 0 0 
L 3.5 0 
" style="stroke: #000000; stroke-width: 0.8"/>
      </defs>
      <g>
       <use xlink:href="#me3e587f2b7" x="62.886" y="264.955572" style="stroke: #000000; stroke-width: 0.8"/>
      </g>
     </g>
     <g id="line2d_52">
      <defs>
       <path id="m01c9c8a301" d="M 0 0 
L -3.5 0 
" style="stroke: #000000; stroke-width: 0.8"/>
      </defs>
      <g>
       <use xlink:href="#m01c9c8a301" x="445.68" y="264.955572" style="stroke: #000000; stroke-width: 0.8"/>
      </g>
     </g>
     <g id="text_7">
      <!-- 2.50 -->
      <g transform="translate(34.494438 269.81401) scale(0.14 -0.14)">
       <defs>
        <path id="LatinModernMath-Regular-35" d="M 2874 1286 
C 2874 2048 2349 2688 1658 2688 
C 1350 2688 1075 2586 845 2362 
L 845 3610 
C 973 3571 1184 3526 1389 3526 
C 2176 3526 2624 4109 2624 4192 
C 2624 4230 2605 4262 2560 4262 
C 2560 4262 2541 4262 2509 4243 
C 2381 4186 2067 4058 1638 4058 
C 1382 4058 1088 4102 787 4237 
C 736 4256 710 4256 710 4256 
C 646 4256 646 4205 646 4102 
L 646 2208 
C 646 2093 646 2042 736 2042 
C 781 2042 794 2061 819 2099 
C 890 2202 1126 2547 1645 2547 
C 1978 2547 2138 2253 2189 2138 
C 2291 1901 2304 1651 2304 1331 
C 2304 1107 2304 723 2150 454 
C 1997 205 1760 38 1466 38 
C 998 38 634 378 525 755 
C 544 749 563 742 634 742 
C 845 742 954 902 954 1056 
C 954 1210 845 1370 634 1370 
C 544 1370 320 1325 320 1030 
C 320 480 762 -141 1478 -141 
C 2221 -141 2874 474 2874 1286 
z
" transform="scale(0.015625)"/>
       </defs>
       <use xlink:href="#LatinModernMath-Regular-32"/>
       <use xlink:href="#LatinModernMath-Regular-2e" x="49.999985"/>
       <use xlink:href="#LatinModernMath-Regular-35" x="77.799973"/>
       <use xlink:href="#LatinModernMath-Regular-30" x="127.799957"/>
      </g>
     </g>
    </g>
    <g id="ytick_2">
     <g id="line2d_53">
      <g>
       <use xlink:href="#me3e587f2b7" x="62.886" y="219.846904" style="stroke: #000000; stroke-width: 0.8"/>
      </g>
     </g>
     <g id="line2d_54">
      <g>
       <use xlink:href="#m01c9c8a301" x="445.68" y="219.846904" style="stroke: #000000; stroke-width: 0.8"/>
      </g>
     </g>
     <g id="text_8">
      <!-- 2.55 -->
      <g transform="translate(34.494438 224.705342) scale(0.14 -0.14)">
       <use xlink:href="#LatinModernMath-Regular-32"/>
       <use xlink:href="#LatinModernMath-Regular-2e" x="49.999985"/>
       <use xlink:href="#LatinModernMath-Regular-35" x="77.799973"/>
       <use xlink:href="#LatinModernMath-Regular-35" x="127.799957"/>
      </g>
     </g>
    </g>
    <g id="ytick_3">
     <g id="line2d_55">
      <g>
       <use xlink:href="#me3e587f2b7" x="62.886" y="174.738236" style="stroke: #000000; stroke-width: 0.8"/>
      </g>
     </g>
     <g id="line2d_56">
      <g>
       <use xlink:href="#m01c9c8a301" x="445.68" y="174.738236" style="stroke: #000000; stroke-width: 0.8"/>
      </g>
     </g>
     <g id="text_9">
      <!-- 2.60 -->
      <g transform="translate(34.494438 179.596674) scale(0.14 -0.14)">
       <defs>
        <path id="LatinModernMath-Regular-36" d="M 2925 1306 
C 2925 2118 2355 2733 1645 2733 
C 1210 2733 973 2406 845 2099 
L 845 2253 
C 845 3872 1638 4102 1965 4102 
C 2118 4102 2387 4064 2528 3846 
C 2432 3846 2176 3846 2176 3558 
C 2176 3360 2330 3264 2470 3264 
C 2573 3264 2765 3322 2765 3571 
C 2765 3955 2483 4262 1952 4262 
C 1133 4262 269 3437 269 2022 
C 269 314 1011 -141 1606 -141 
C 2317 -141 2925 461 2925 1306 
z
M 2349 1312 
C 2349 1005 2349 685 2240 454 
C 2048 70 1754 38 1606 38 
C 1203 38 1011 422 973 518 
C 858 819 858 1331 858 1446 
C 858 1946 1062 2586 1638 2586 
C 1741 2586 2035 2586 2234 2189 
C 2349 1952 2349 1626 2349 1312 
z
" transform="scale(0.015625)"/>
       </defs>
       <use xlink:href="#LatinModernMath-Regular-32"/>
       <use xlink:href="#LatinModernMath-Regular-2e" x="49.999985"/>
       <use xlink:href="#LatinModernMath-Regular-36" x="77.799973"/>
       <use xlink:href="#LatinModernMath-Regular-30" x="127.799957"/>
      </g>
     </g>
    </g>
    <g id="ytick_4">
     <g id="line2d_57">
      <g>
       <use xlink:href="#me3e587f2b7" x="62.886" y="129.629568" style="stroke: #000000; stroke-width: 0.8"/>
      </g>
     </g>
     <g id="line2d_58">
      <g>
       <use xlink:href="#m01c9c8a301" x="445.68" y="129.629568" style="stroke: #000000; stroke-width: 0.8"/>
      </g>
     </g>
     <g id="text_10">
      <!-- 2.65 -->
      <g transform="translate(34.494438 134.488006) scale(0.14 -0.14)">
       <use xlink:href="#LatinModernMath-Regular-32"/>
       <use xlink:href="#LatinModernMath-Regular-2e" x="49.999985"/>
       <use xlink:href="#LatinModernMath-Regular-36" x="77.799973"/>
       <use xlink:href="#LatinModernMath-Regular-35" x="127.799957"/>
      </g>
     </g>
    </g>
    <g id="ytick_5">
     <g id="line2d_59">
      <g>
       <use xlink:href="#me3e587f2b7" x="62.886" y="84.5209" style="stroke: #000000; stroke-width: 0.8"/>
      </g>
     </g>
     <g id="line2d_60">
      <g>
       <use xlink:href="#m01c9c8a301" x="445.68" y="84.5209" style="stroke: #000000; stroke-width: 0.8"/>
      </g>
     </g>
     <g id="text_11">
      <!-- 2.70 -->
      <g transform="translate(34.494438 89.379338) scale(0.14 -0.14)">
       <defs>
        <path id="LatinModernMath-Regular-37" d="M 3104 4122 
L 1549 4122 
C 768 4122 755 4205 730 4326 
L 570 4326 
L 358 3008 
L 518 3008 
C 538 3110 595 3514 678 3590 
C 723 3629 1222 3629 1306 3629 
L 2630 3629 
L 1914 2618 
C 1338 1754 1126 864 1126 211 
C 1126 147 1126 -141 1421 -141 
C 1715 -141 1715 147 1715 211 
L 1715 538 
C 1715 890 1734 1242 1786 1587 
C 1811 1734 1901 2285 2182 2682 
L 3046 3898 
C 3104 3974 3104 3987 3104 4122 
z
" transform="scale(0.015625)"/>
       </defs>
       <use xlink:href="#LatinModernMath-Regular-32"/>
       <use xlink:href="#LatinModernMath-Regular-2e" x="49.999985"/>
       <use xlink:href="#LatinModernMath-Regular-37" x="77.799973"/>
       <use xlink:href="#LatinModernMath-Regular-30" x="127.799957"/>
      </g>
     </g>
    </g>
    <g id="ytick_6">
     <g id="line2d_61">
      <g>
       <use xlink:href="#me3e587f2b7" x="62.886" y="39.412232" style="stroke: #000000; stroke-width: 0.8"/>
      </g>
     </g>
     <g id="line2d_62">
      <g>
       <use xlink:href="#m01c9c8a301" x="445.68" y="39.412232" style="stroke: #000000; stroke-width: 0.8"/>
      </g>
     </g>
     <g id="text_12">
      <!-- 2.75 -->
      <g transform="translate(34.494438 44.27067) scale(0.14 -0.14)">
       <use xlink:href="#LatinModernMath-Regular-32"/>
       <use xlink:href="#LatinModernMath-Regular-2e" x="49.999985"/>
       <use xlink:href="#LatinModernMath-Regular-37" x="77.799973"/>
       <use xlink:href="#LatinModernMath-Regular-35" x="127.799957"/>
      </g>
     </g>
    </g>
    <g id="ytick_7">
     <g id="line2d_63">
      <defs>
       <path id="m88920c32e7" d="M 0 0 
L 2 0 
" style="stroke: #000000; stroke-width: 0.6"/>
      </defs>
      <g>
       <use xlink:href="#m88920c32e7" x="62.886" y="292.020773" style="stroke: #000000; stroke-width: 0.6"/>
      </g>
     </g>
     <g id="line2d_64">
      <defs>
       <path id="m25985e664c" d="M 0 0 
L -2 0 
" style="stroke: #000000; stroke-width: 0.6"/>
      </defs>
      <g>
       <use xlink:href="#m25985e664c" x="445.68" y="292.020773" style="stroke: #000000; stroke-width: 0.6"/>
      </g>
     </g>
    </g>
    <g id="ytick_8">
     <g id="line2d_65">
      <g>
       <use xlink:href="#m88920c32e7" x="62.886" y="282.99904" style="stroke: #000000; stroke-width: 0.6"/>
      </g>
     </g>
     <g id="line2d_66">
      <g>
       <use xlink:href="#m25985e664c" x="445.68" y="282.99904" style="stroke: #000000; stroke-width: 0.6"/>
      </g>
     </g>
    </g>
    <g id="ytick_9">
     <g id="line2d_67">
      <g>
       <use xlink:href="#m88920c32e7" x="62.886" y="273.977306" style="stroke: #000000; stroke-width: 0.6"/>
      </g>
     </g>
     <g id="line2d_68">
      <g>
       <use xlink:href="#m25985e664c" x="445.68" y="273.977306" style="stroke: #000000; stroke-width: 0.6"/>
      </g>
     </g>
    </g>
    <g id="ytick_10">
     <g id="line2d_69">
      <g>
       <use xlink:href="#m88920c32e7" x="62.886" y="255.933839" style="stroke: #000000; stroke-width: 0.6"/>
      </g>
     </g>
     <g id="line2d_70">
      <g>
       <use xlink:href="#m25985e664c" x="445.68" y="255.933839" style="stroke: #000000; stroke-width: 0.6"/>
      </g>
     </g>
    </g>
    <g id="ytick_11">
     <g id="line2d_71">
      <g>
       <use xlink:href="#m88920c32e7" x="62.886" y="246.912105" style="stroke: #000000; stroke-width: 0.6"/>
      </g>
     </g>
     <g id="line2d_72">
      <g>
       <use xlink:href="#m25985e664c" x="445.68" y="246.912105" style="stroke: #000000; stroke-width: 0.6"/>
      </g>
     </g>
    </g>
    <g id="ytick_12">
     <g id="line2d_73">
      <g>
       <use xlink:href="#m88920c32e7" x="62.886" y="237.890372" style="stroke: #000000; stroke-width: 0.6"/>
      </g>
     </g>
     <g id="line2d_74">
      <g>
       <use xlink:href="#m25985e664c" x="445.68" y="237.890372" style="stroke: #000000; stroke-width: 0.6"/>
      </g>
     </g>
    </g>
    <g id="ytick_13">
     <g id="line2d_75">
      <g>
       <use xlink:href="#m88920c32e7" x="62.886" y="228.868638" style="stroke: #000000; stroke-width: 0.6"/>
      </g>
     </g>
     <g id="line2d_76">
      <g>
       <use xlink:href="#m25985e664c" x="445.68" y="228.868638" style="stroke: #000000; stroke-width: 0.6"/>
      </g>
     </g>
    </g>
    <g id="ytick_14">
     <g id="line2d_77">
      <g>
       <use xlink:href="#m88920c32e7" x="62.886" y="210.825171" style="stroke: #000000; stroke-width: 0.6"/>
      </g>
     </g>
     <g id="line2d_78">
      <g>
       <use xlink:href="#m25985e664c" x="445.68" y="210.825171" style="stroke: #000000; stroke-width: 0.6"/>
      </g>
     </g>
    </g>
    <g id="ytick_15">
     <g id="line2d_79">
      <g>
       <use xlink:href="#m88920c32e7" x="62.886" y="201.803437" style="stroke: #000000; stroke-width: 0.6"/>
      </g>
     </g>
     <g id="line2d_80">
      <g>
       <use xlink:href="#m25985e664c" x="445.68" y="201.803437" style="stroke: #000000; stroke-width: 0.6"/>
      </g>
     </g>
    </g>
    <g id="ytick_16">
     <g id="line2d_81">
      <g>
       <use xlink:href="#m88920c32e7" x="62.886" y="192.781704" style="stroke: #000000; stroke-width: 0.6"/>
      </g>
     </g>
     <g id="line2d_82">
      <g>
       <use xlink:href="#m25985e664c" x="445.68" y="192.781704" style="stroke: #000000; stroke-width: 0.6"/>
      </g>
     </g>
    </g>
    <g id="ytick_17">
     <g id="line2d_83">
      <g>
       <use xlink:href="#m88920c32e7" x="62.886" y="183.75997" style="stroke: #000000; stroke-width: 0.6"/>
      </g>
     </g>
     <g id="line2d_84">
      <g>
       <use xlink:href="#m25985e664c" x="445.68" y="183.75997" style="stroke: #000000; stroke-width: 0.6"/>
      </g>
     </g>
    </g>
    <g id="ytick_18">
     <g id="line2d_85">
      <g>
       <use xlink:href="#m88920c32e7" x="62.886" y="165.716503" style="stroke: #000000; stroke-width: 0.6"/>
      </g>
     </g>
     <g id="line2d_86">
      <g>
       <use xlink:href="#m25985e664c" x="445.68" y="165.716503" style="stroke: #000000; stroke-width: 0.6"/>
      </g>
     </g>
    </g>
    <g id="ytick_19">
     <g id="line2d_87">
      <g>
       <use xlink:href="#m88920c32e7" x="62.886" y="156.694769" style="stroke: #000000; stroke-width: 0.6"/>
      </g>
     </g>
     <g id="line2d_88">
      <g>
       <use xlink:href="#m25985e664c" x="445.68" y="156.694769" style="stroke: #000000; stroke-width: 0.6"/>
      </g>
     </g>
    </g>
    <g id="ytick_20">
     <g id="line2d_89">
      <g>
       <use xlink:href="#m88920c32e7" x="62.886" y="147.673036" style="stroke: #000000; stroke-width: 0.6"/>
      </g>
     </g>
     <g id="line2d_90">
      <g>
       <use xlink:href="#m25985e664c" x="445.68" y="147.673036" style="stroke: #000000; stroke-width: 0.6"/>
      </g>
     </g>
    </g>
    <g id="ytick_21">
     <g id="line2d_91">
      <g>
       <use xlink:href="#m88920c32e7" x="62.886" y="138.651302" style="stroke: #000000; stroke-width: 0.6"/>
      </g>
     </g>
     <g id="line2d_92">
      <g>
       <use xlink:href="#m25985e664c" x="445.68" y="138.651302" style="stroke: #000000; stroke-width: 0.6"/>
      </g>
     </g>
    </g>
    <g id="ytick_22">
     <g id="line2d_93">
      <g>
       <use xlink:href="#m88920c32e7" x="62.886" y="120.607835" style="stroke: #000000; stroke-width: 0.6"/>
      </g>
     </g>
     <g id="line2d_94">
      <g>
       <use xlink:href="#m25985e664c" x="445.68" y="120.607835" style="stroke: #000000; stroke-width: 0.6"/>
      </g>
     </g>
    </g>
    <g id="ytick_23">
     <g id="line2d_95">
      <g>
       <use xlink:href="#m88920c32e7" x="62.886" y="111.586101" style="stroke: #000000; stroke-width: 0.6"/>
      </g>
     </g>
     <g id="line2d_96">
      <g>
       <use xlink:href="#m25985e664c" x="445.68" y="111.586101" style="stroke: #000000; stroke-width: 0.6"/>
      </g>
     </g>
    </g>
    <g id="ytick_24">
     <g id="line2d_97">
      <g>
       <use xlink:href="#m88920c32e7" x="62.886" y="102.564368" style="stroke: #000000; stroke-width: 0.6"/>
      </g>
     </g>
     <g id="line2d_98">
      <g>
       <use xlink:href="#m25985e664c" x="445.68" y="102.564368" style="stroke: #000000; stroke-width: 0.6"/>
      </g>
     </g>
    </g>
    <g id="ytick_25">
     <g id="line2d_99">
      <g>
       <use xlink:href="#m88920c32e7" x="62.886" y="93.542634" style="stroke: #000000; stroke-width: 0.6"/>
      </g>
     </g>
     <g id="line2d_100">
      <g>
       <use xlink:href="#m25985e664c" x="445.68" y="93.542634" style="stroke: #000000; stroke-width: 0.6"/>
      </g>
     </g>
    </g>
    <g id="ytick_26">
     <g id="line2d_101">
      <g>
       <use xlink:href="#m88920c32e7" x="62.886" y="75.499167" style="stroke: #000000; stroke-width: 0.6"/>
      </g>
     </g>
     <g id="line2d_102">
      <g>
       <use xlink:href="#m25985e664c" x="445.68" y="75.499167" style="stroke: #000000; stroke-width: 0.6"/>
      </g>
     </g>
    </g>
    <g id="ytick_27">
     <g id="line2d_103">
      <g>
       <use xlink:href="#m88920c32e7" x="62.886" y="66.477433" style="stroke: #000000; stroke-width: 0.6"/>
      </g>
     </g>
     <g id="line2d_104">
      <g>
       <use xlink:href="#m25985e664c" x="445.68" y="66.477433" style="stroke: #000000; stroke-width: 0.6"/>
      </g>
     </g>
    </g>
    <g id="ytick_28">
     <g id="line2d_105">
      <g>
       <use xlink:href="#m88920c32e7" x="62.886" y="57.4557" style="stroke: #000000; stroke-width: 0.6"/>
      </g>
     </g>
     <g id="line2d_106">
      <g>
       <use xlink:href="#m25985e664c" x="445.68" y="57.4557" style="stroke: #000000; stroke-width: 0.6"/>
      </g>
     </g>
    </g>
    <g id="ytick_29">
     <g id="line2d_107">
      <g>
       <use xlink:href="#m88920c32e7" x="62.886" y="48.433966" style="stroke: #000000; stroke-width: 0.6"/>
      </g>
     </g>
     <g id="line2d_108">
      <g>
       <use xlink:href="#m25985e664c" x="445.68" y="48.433966" style="stroke: #000000; stroke-width: 0.6"/>
      </g>
     </g>
    </g>
    <g id="ytick_30">
     <g id="line2d_109">
      <g>
       <use xlink:href="#m88920c32e7" x="62.886" y="30.390499" style="stroke: #000000; stroke-width: 0.6"/>
      </g>
     </g>
     <g id="line2d_110">
      <g>
       <use xlink:href="#m25985e664c" x="445.68" y="30.390499" style="stroke: #000000; stroke-width: 0.6"/>
      </g>
     </g>
    </g>
    <g id="ytick_31">
     <g id="line2d_111">
      <g>
       <use xlink:href="#m88920c32e7" x="62.886" y="21.368765" style="stroke: #000000; stroke-width: 0.6"/>
      </g>
     </g>
     <g id="line2d_112">
      <g>
       <use xlink:href="#m25985e664c" x="445.68" y="21.368765" style="stroke: #000000; stroke-width: 0.6"/>
      </g>
     </g>
    </g>
    <g id="text_13">
     <!-- $z_0 / t$ -->
     <g transform="translate(27.777563 167.53625) rotate(-90) scale(0.14 -0.14)">
      <defs>
       <path id="DejaVuSans-Oblique-7a" d="M 744 3500 
L 3475 3500 
L 3372 2975 
L 738 459 
L 2913 459 
L 2822 0 
L -19 0 
L 84 525 
L 2719 3041 
L 653 3041 
L 744 3500 
z
" transform="scale(0.015625)"/>
       <path id="DejaVuSans-30" d="M 2034 4250 
Q 1547 4250 1301 3770 
Q 1056 3291 1056 2328 
Q 1056 1369 1301 889 
Q 1547 409 2034 409 
Q 2525 409 2770 889 
Q 3016 1369 3016 2328 
Q 3016 3291 2770 3770 
Q 2525 4250 2034 4250 
z
M 2034 4750 
Q 2819 4750 3233 4129 
Q 3647 3509 3647 2328 
Q 3647 1150 3233 529 
Q 2819 -91 2034 -91 
Q 1250 -91 836 529 
Q 422 1150 422 2328 
Q 422 3509 836 4129 
Q 1250 4750 2034 4750 
z
" transform="scale(0.015625)"/>
      </defs>
      <use xlink:href="#DejaVuSans-Oblique-7a" transform="translate(0 0.09375)"/>
      <use xlink:href="#DejaVuSans-30" transform="translate(52.490234 -16.3125) scale(0.7)"/>
      <use xlink:href="#DejaVuSans-2f" transform="translate(99.760742 0.09375)"/>
      <use xlink:href="#DejaVuSans-Oblique-74" transform="translate(133.452148 0.09375)"/>
     </g>
    </g>
   </g>
   <g id="line2d_113">
    <defs>
     <path id="m32660c4007" d="M -1.5 3 
L 0 1.5 
L 1.5 3 
L 3 1.5 
L 1.5 0 
L 3 -1.5 
L 1.5 -3 
L 0 -1.5 
L -1.5 -3 
L -3 -1.5 
L -1.5 0 
L -3 1.5 
z
" style="stroke: #ffa500; stroke-linejoin: miter"/>
    </defs>
    <g clip-path="url(#paf7eb88e16)">
     <use xlink:href="#m32660c4007" x="64.78102" y="27.875114" style="fill: #ffa500; stroke: #ffa500; stroke-linejoin: miter"/>
     <use xlink:href="#m32660c4007" x="102.681416" y="78.444459" style="fill: #ffa500; stroke: #ffa500; stroke-linejoin: miter"/>
     <use xlink:href="#m32660c4007" x="140.581812" y="129.28447" style="fill: #ffa500; stroke: #ffa500; stroke-linejoin: miter"/>
     <use xlink:href="#m32660c4007" x="178.482208" y="180.440257" style="fill: #ffa500; stroke: #ffa500; stroke-linejoin: miter"/>
     <use xlink:href="#m32660c4007" x="197.432406" y="206.153484" style="fill: #ffa500; stroke: #ffa500; stroke-linejoin: miter"/>
     <use xlink:href="#m32660c4007" x="216.382604" y="232.002043" style="fill: #ffa500; stroke: #ffa500; stroke-linejoin: miter"/>
     <use xlink:href="#m32660c4007" x="235.332802" y="257.895713" style="fill: #ffa500; stroke: #ffa500; stroke-linejoin: miter"/>
     <use xlink:href="#m32660c4007" x="246.702921" y="273.549203" style="fill: #ffa500; stroke: #ffa500; stroke-linejoin: miter"/>
     <use xlink:href="#m32660c4007" x="250.49296" y="278.73696" style="fill: #ffa500; stroke: #ffa500; stroke-linejoin: miter"/>
     <use xlink:href="#m32660c4007" x="253.524992" y="282.932275" style="fill: #ffa500; stroke: #ffa500; stroke-linejoin: miter"/>
     <use xlink:href="#m32660c4007" x="255.041008" y="282.977386" style="fill: #ffa500; stroke: #ffa500; stroke-linejoin: miter"/>
     <use xlink:href="#m32660c4007" x="258.07304" y="279.142958" style="fill: #ffa500; stroke: #ffa500; stroke-linejoin: miter"/>
     <use xlink:href="#m32660c4007" x="261.863079" y="274.316089" style="fill: #ffa500; stroke: #ffa500; stroke-linejoin: miter"/>
     <use xlink:href="#m32660c4007" x="273.233198" y="259.880594" style="fill: #ffa500; stroke: #ffa500; stroke-linejoin: miter"/>
     <use xlink:href="#m32660c4007" x="292.183396" y="235.79136" style="fill: #ffa500; stroke: #ffa500; stroke-linejoin: miter"/>
     <use xlink:href="#m32660c4007" x="311.133594" y="211.657016" style="fill: #ffa500; stroke: #ffa500; stroke-linejoin: miter"/>
     <use xlink:href="#m32660c4007" x="330.083792" y="187.477561" style="fill: #ffa500; stroke: #ffa500; stroke-linejoin: miter"/>
     <use xlink:href="#m32660c4007" x="367.984188" y="139.118651" style="fill: #ffa500; stroke: #ffa500; stroke-linejoin: miter"/>
     <use xlink:href="#m32660c4007" x="405.884584" y="90.624408" style="fill: #ffa500; stroke: #ffa500; stroke-linejoin: miter"/>
     <use xlink:href="#m32660c4007" x="443.78498" y="42.039944" style="fill: #ffa500; stroke: #ffa500; stroke-linejoin: miter"/>
    </g>
   </g>
   <g id="line2d_114">
    <defs>
     <path id="md21c9296ea" d="M -1.5 3 
L 0 1.5 
L 1.5 3 
L 3 1.5 
L 1.5 0 
L 3 -1.5 
L 1.5 -3 
L 0 -1.5 
L -1.5 -3 
L -3 -1.5 
L -1.5 0 
L -3 1.5 
z
" style="stroke: #800080; stroke-linejoin: miter"/>
    </defs>
    <g clip-path="url(#paf7eb88e16)">
     <use xlink:href="#md21c9296ea" x="64.78102" y="42.039944" style="fill: #800080; stroke: #800080; stroke-linejoin: miter"/>
     <use xlink:href="#md21c9296ea" x="102.681416" y="90.624408" style="fill: #800080; stroke: #800080; stroke-linejoin: miter"/>
     <use xlink:href="#md21c9296ea" x="140.581812" y="139.118651" style="fill: #800080; stroke: #800080; stroke-linejoin: miter"/>
     <use xlink:href="#md21c9296ea" x="178.482208" y="187.477561" style="fill: #800080; stroke: #800080; stroke-linejoin: miter"/>
     <use xlink:href="#md21c9296ea" x="197.432406" y="211.657016" style="fill: #800080; stroke: #800080; stroke-linejoin: miter"/>
     <use xlink:href="#md21c9296ea" x="216.382604" y="235.79136" style="fill: #800080; stroke: #800080; stroke-linejoin: miter"/>
     <use xlink:href="#md21c9296ea" x="235.332802" y="259.880594" style="fill: #800080; stroke: #800080; stroke-linejoin: miter"/>
     <use xlink:href="#md21c9296ea" x="246.702921" y="274.316089" style="fill: #800080; stroke: #800080; stroke-linejoin: miter"/>
     <use xlink:href="#md21c9296ea" x="250.49296" y="279.142958" style="fill: #800080; stroke: #800080; stroke-linejoin: miter"/>
     <use xlink:href="#md21c9296ea" x="253.524992" y="282.977386" style="fill: #800080; stroke: #800080; stroke-linejoin: miter"/>
     <use xlink:href="#md21c9296ea" x="255.041008" y="282.932275" style="fill: #800080; stroke: #800080; stroke-linejoin: miter"/>
     <use xlink:href="#md21c9296ea" x="258.07304" y="278.73696" style="fill: #800080; stroke: #800080; stroke-linejoin: miter"/>
     <use xlink:href="#md21c9296ea" x="261.863079" y="273.549203" style="fill: #800080; stroke: #800080; stroke-linejoin: miter"/>
     <use xlink:href="#md21c9296ea" x="273.233198" y="257.895713" style="fill: #800080; stroke: #800080; stroke-linejoin: miter"/>
     <use xlink:href="#md21c9296ea" x="292.183396" y="232.002043" style="fill: #800080; stroke: #800080; stroke-linejoin: miter"/>
     <use xlink:href="#md21c9296ea" x="311.133594" y="206.153484" style="fill: #800080; stroke: #800080; stroke-linejoin: miter"/>
     <use xlink:href="#md21c9296ea" x="330.083792" y="180.440257" style="fill: #800080; stroke: #800080; stroke-linejoin: miter"/>
     <use xlink:href="#md21c9296ea" x="367.984188" y="129.28447" style="fill: #800080; stroke: #800080; stroke-linejoin: miter"/>
     <use xlink:href="#md21c9296ea" x="405.884584" y="78.444459" style="fill: #800080; stroke: #800080; stroke-linejoin: miter"/>
     <use xlink:href="#md21c9296ea" x="443.78498" y="27.875114" style="fill: #800080; stroke: #800080; stroke-linejoin: miter"/>
    </g>
   </g>
   <g id="patch_3">
    <path d="M 62.886 295.7325 
L 62.886 15.12 
" style="fill: none; stroke: #000000; stroke-width: 0.8; stroke-linejoin: miter; stroke-linecap: square"/>
   </g>
   <g id="patch_4">
    <path d="M 445.68 295.7325 
L 445.68 15.12 
" style="fill: none; stroke: #000000; stroke-width: 0.8; stroke-linejoin: miter; stroke-linecap: square"/>
   </g>
   <g id="patch_5">
    <path d="M 62.886 295.7325 
L 445.68 295.7325 
" style="fill: none; stroke: #000000; stroke-width: 0.8; stroke-linejoin: miter; stroke-linecap: square"/>
   </g>
   <g id="patch_6">
    <path d="M 62.886 15.12 
L 445.68 15.12 
" style="fill: none; stroke: #000000; stroke-width: 0.8; stroke-linejoin: miter; stroke-linecap: square"/>
   </g>
   <g id="legend_1">
    <g id="patch_7">
     <path d="M 72.686 288.7325 
L 152.682875 288.7325 
Q 155.482875 288.7325 155.482875 285.9325 
L 155.482875 248.29875 
Q 155.482875 245.49875 152.682875 245.49875 
L 72.686 245.49875 
Q 69.886 245.49875 69.886 248.29875 
L 69.886 285.9325 
Q 69.886 288.7325 72.686 288.7325 
z
" style="fill: #ffffff; opacity: 0.8; stroke: #cccccc; stroke-linejoin: miter"/>
    </g>
    <g id="line2d_115">
     <g>
      <use xlink:href="#m32660c4007" x="89.486" y="255.99875" style="fill: #ffa500; stroke: #ffa500; stroke-linejoin: miter"/>
     </g>
    </g>
    <g id="text_14">
     <!-- AFM -->
     <g transform="translate(114.686 260.89875) scale(0.14 -0.14)">
      <defs>
       <path id="LatinModernMath-Regular-41" d="M 4589 0 
L 4589 198 
L 4474 198 
C 4090 198 4000 243 3930 454 
L 2547 4454 
C 2515 4538 2502 4582 2400 4582 
C 2298 4582 2278 4544 2246 4454 
L 922 627 
C 806 301 550 205 205 198 
L 205 0 
L 858 19 
L 1594 0 
L 1594 198 
C 1274 198 1114 358 1114 525 
C 1114 544 1120 608 1126 621 
L 1421 1459 
L 3002 1459 
L 3341 480 
C 3347 454 3360 416 3360 390 
C 3360 198 3002 198 2829 198 
L 2829 0 
C 3059 19 3507 19 3750 19 
L 4589 0 
z
M 2931 1658 
L 1491 1658 
L 2208 3738 
L 2931 1658 
z
" transform="scale(0.015625)"/>
       <path id="LatinModernMath-Regular-46" d="M 3904 2912 
L 3725 4352 
L 211 4352 
L 211 4154 
L 365 4154 
C 858 4154 870 4083 870 3853 
L 870 499 
C 870 269 858 198 365 198 
L 211 198 
L 211 0 
C 435 19 934 19 1184 19 
C 1446 19 2029 19 2259 0 
L 2259 198 
L 2048 198 
C 1440 198 1440 282 1440 506 
L 1440 2080 
L 1990 2080 
C 2605 2080 2669 1875 2669 1331 
L 2829 1331 
L 2829 3027 
L 2669 3027 
C 2669 2490 2605 2278 1990 2278 
L 1440 2278 
L 1440 3898 
C 1440 4109 1453 4154 1754 4154 
L 2522 4154 
C 3482 4154 3642 3795 3744 2912 
L 3904 2912 
z
" transform="scale(0.015625)"/>
       <path id="LatinModernMath-Regular-4d" d="M 5626 0 
L 5626 198 
L 5472 198 
C 4979 198 4966 269 4966 499 
L 4966 3872 
C 4966 4102 4979 4173 5472 4173 
L 5626 4173 
L 5626 4371 
L 4544 4371 
C 4378 4371 4378 4365 4333 4250 
L 2931 646 
L 1542 4230 
C 1485 4371 1466 4371 1318 4371 
L 237 4371 
L 237 4173 
L 390 4173 
C 883 4173 896 4102 896 3872 
L 896 672 
C 896 499 896 198 237 198 
L 237 0 
L 986 19 
L 1734 0 
L 1734 198 
C 1075 198 1075 499 1075 672 
L 1075 4122 
L 1082 4122 
L 2624 141 
C 2656 58 2688 0 2752 0 
C 2822 0 2842 51 2867 122 
L 4442 4173 
L 4448 4173 
L 4448 499 
C 4448 269 4435 198 3942 198 
L 3789 198 
L 3789 0 
C 4026 19 4461 19 4710 19 
C 4960 19 5389 19 5626 0 
z
" transform="scale(0.015625)"/>
      </defs>
      <use xlink:href="#LatinModernMath-Regular-41"/>
      <use xlink:href="#LatinModernMath-Regular-46" x="74.999985"/>
      <use xlink:href="#LatinModernMath-Regular-4d" x="140.299973"/>
     </g>
    </g>
    <g id="line2d_116">
     <g>
      <use xlink:href="#md21c9296ea" x="89.486" y="275.515625" style="fill: #800080; stroke: #800080; stroke-linejoin: miter"/>
     </g>
    </g>
    <g id="text_15">
     <!-- CDW -->
     <g transform="translate(114.686 280.415625) scale(0.14 -0.14)">
      <defs>
       <path id="LatinModernMath-Regular-43" d="M 4256 1491 
C 4256 1555 4256 1600 4173 1600 
C 4102 1600 4102 1562 4096 1498 
C 4045 582 3360 58 2662 58 
C 2272 58 1018 275 1018 2182 
C 1018 4096 2266 4314 2656 4314 
C 3354 4314 3923 3731 4051 2797 
C 4064 2707 4064 2688 4154 2688 
C 4256 2688 4256 2707 4256 2842 
L 4256 4358 
C 4256 4467 4256 4512 4186 4512 
C 4160 4512 4134 4512 4083 4435 
L 3763 3962 
C 3526 4192 3200 4512 2586 4512 
C 1389 4512 358 3494 358 2189 
C 358 864 1395 -141 2586 -141 
C 3629 -141 4256 749 4256 1491 
z
" transform="scale(0.015625)"/>
       <path id="LatinModernMath-Regular-44" d="M 4525 2150 
C 4525 3366 3661 4371 2566 4371 
L 224 4371 
L 224 4173 
L 378 4173 
C 870 4173 883 4102 883 3872 
L 883 499 
C 883 269 870 198 378 198 
L 224 198 
L 224 0 
L 2566 0 
C 3642 0 4525 947 4525 2150 
z
M 3885 2150 
C 3885 1440 3763 1056 3533 742 
C 3405 570 3040 198 2394 198 
L 1747 198 
C 1446 198 1434 243 1434 454 
L 1434 3917 
C 1434 4128 1446 4173 1747 4173 
L 2387 4173 
C 2784 4173 3226 4032 3552 3578 
C 3827 3200 3885 2650 3885 2150 
z
" transform="scale(0.015625)"/>
       <path id="LatinModernMath-Regular-57" d="M 6458 4173 
L 6458 4371 
C 6266 4358 6067 4352 5875 4352 
L 5114 4371 
L 5114 4173 
C 5542 4166 5670 3955 5670 3834 
C 5670 3795 5651 3744 5638 3706 
L 4678 749 
L 3654 3885 
C 3648 3910 3635 3949 3635 3981 
C 3635 4173 4006 4173 4173 4173 
L 4173 4371 
C 3942 4352 3507 4352 3264 4352 
L 2483 4371 
L 2483 4173 
C 2848 4173 2982 4173 3059 3942 
L 3200 3494 
L 2310 749 
L 1280 3898 
C 1274 3917 1267 3962 1267 3981 
C 1267 4173 1638 4173 1805 4173 
L 1805 4371 
C 1574 4352 1139 4352 896 4352 
L 115 4371 
L 115 4173 
C 595 4173 621 4141 698 3904 
L 1978 -19 
C 1997 -77 2016 -141 2099 -141 
C 2189 -141 2202 -96 2227 -13 
L 3283 3238 
L 4346 -19 
C 4365 -77 4384 -141 4467 -141 
C 4557 -141 4570 -96 4595 -13 
L 5818 3744 
C 5933 4109 6208 4173 6458 4173 
z
" transform="scale(0.015625)"/>
      </defs>
      <use xlink:href="#LatinModernMath-Regular-43"/>
      <use xlink:href="#LatinModernMath-Regular-44" x="72.199982"/>
      <use xlink:href="#LatinModernMath-Regular-57" x="148.599976"/>
     </g>
    </g>
   </g>
  </g>
 </g>
 <defs>
  <clipPath id="paf7eb88e16">
   <rect x="62.886" y="15.12" width="382.794" height="280.6125"/>
  </clipPath>
 </defs>
</svg>
