<?xml version="1.0" encoding="utf-8" standalone="no"?>
<!DOCTYPE svg PUBLIC "-//W3C//DTD SVG 1.1//EN"
  "http://www.w3.org/Graphics/SVG/1.1/DTD/svg11.dtd">
<svg xmlns:xlink="http://www.w3.org/1999/xlink" width="460.8pt" height="345.6pt" viewBox="0 0 460.8 345.6" xmlns="http://www.w3.org/2000/svg" version="1.1">
 <metadata>
  <rdf:RDF xmlns:dc="http://purl.org/dc/elements/1.1/" xmlns:cc="http://creativecommons.org/ns#" xmlns:rdf="http://www.w3.org/1999/02/22-rdf-syntax-ns#">
   <cc:Work>
    <dc:type rdf:resource="http://purl.org/dc/dcmitype/StillImage"/>
    <dc:date>2023-11-06T13:37:28.859952</dc:date>
    <dc:format>image/svg+xml</dc:format>
    <dc:creator>
     <cc:Agent>
      <dc:title>Matplotlib v3.7.0, https://matplotlib.org/</dc:title>
     </cc:Agent>
    </dc:creator>
   </cc:Work>
  </rdf:RDF>
 </metadata>
 <defs>
  <style type="text/css">*{stroke-linejoin: round; stroke-linecap: butt}</style>
 </defs>
 <g id="figure_1">
  <g id="patch_1">
   <path d="M 0 345.6 
L 460.8 345.6 
L 460.8 0 
L 0 0 
z
" style="fill: #ffffff"/>
  </g>
  <g id="axes_1">
   <g id="patch_2">
    <path d="M 54.93 295.7325 
L 438.66 295.7325 
L 438.66 20.10375 
L 54.93 20.10375 
z
" style="fill: #ffffff"/>
   </g>
   <g id="patch_3">
    <path d="M 81.311438 295.7325 
L 86.108063 295.7325 
L 86.108063 20.10375 
L 81.311438 20.10375 
L 81.311438 295.7325 
z
" clip-path="url(#p76c2249678)" style="fill: none; stroke: #808080; stroke-linejoin: miter"/>
   </g>
   <g id="patch_4">
    <path d="M 83.711036 295.7325 
L 83.711036 20.10375 
L 426.349411 20.10375 
L 426.349411 295.7325 
z
" clip-path="url(#p76c2249678)" style="fill: #800080; opacity: 0.2; stroke: #800080; stroke-linejoin: miter"/>
   </g>
   <g id="matplotlib.axis_1">
    <g id="xtick_1">
     <g id="line2d_1">
      <defs>
       <path id="m060255ed29" d="M 0 0 
L 0 -3.5 
" style="stroke: #000000; stroke-width: 0.8"/>
      </defs>
      <g>
       <use xlink:href="#m060255ed29" x="54.93" y="295.7325" style="stroke: #000000; stroke-width: 0.8"/>
      </g>
     </g>
     <g id="line2d_2">
      <defs>
       <path id="m4b40bb3b47" d="M 0 0 
L 0 3.5 
" style="stroke: #000000; stroke-width: 0.8"/>
      </defs>
      <g>
       <use xlink:href="#m4b40bb3b47" x="54.93" y="20.10375" style="stroke: #000000; stroke-width: 0.8"/>
      </g>
     </g>
     <g id="text_1">
      <!-- 2 -->
      <g transform="translate(51.43 308.949375) scale(0.14 -0.14)">
       <defs>
        <path id="LatinModernMath-Regular-32" d="M 2874 1114 
L 2714 1114 
C 2682 922 2637 640 2573 544 
C 2528 493 2106 493 1965 493 
L 813 493 
L 1491 1152 
C 2490 2035 2874 2381 2874 3021 
C 2874 3750 2298 4262 1517 4262 
C 794 4262 320 3674 320 3104 
C 320 2746 640 2746 659 2746 
C 768 2746 992 2822 992 3085 
C 992 3251 877 3418 653 3418 
C 602 3418 589 3418 570 3411 
C 717 3827 1062 4064 1434 4064 
C 2016 4064 2291 3546 2291 3021 
C 2291 2509 1971 2003 1619 1606 
L 390 237 
C 320 166 320 154 320 0 
L 2694 0 
L 2874 1114 
z
" transform="scale(0.015625)"/>
       </defs>
       <use xlink:href="#LatinModernMath-Regular-32"/>
      </g>
     </g>
    </g>
    <g id="xtick_2">
     <g id="line2d_3">
      <g>
       <use xlink:href="#m060255ed29" x="102.89625" y="295.7325" style="stroke: #000000; stroke-width: 0.8"/>
      </g>
     </g>
     <g id="line2d_4">
      <g>
       <use xlink:href="#m4b40bb3b47" x="102.89625" y="20.10375" style="stroke: #000000; stroke-width: 0.8"/>
      </g>
     </g>
     <g id="text_2">
      <!-- 3 -->
      <g transform="translate(99.39625 308.949375) scale(0.14 -0.14)">
       <defs>
        <path id="LatinModernMath-Regular-33" d="M 2925 1094 
C 2925 1619 2522 2118 1856 2253 
C 2381 2426 2752 2874 2752 3379 
C 2752 3904 2189 4262 1574 4262 
C 928 4262 442 3878 442 3392 
C 442 3181 582 3059 768 3059 
C 966 3059 1094 3200 1094 3386 
C 1094 3706 794 3706 698 3706 
C 896 4019 1318 4102 1549 4102 
C 1811 4102 2163 3962 2163 3386 
C 2163 3309 2150 2938 1984 2656 
C 1792 2349 1574 2330 1414 2323 
C 1363 2317 1210 2304 1165 2304 
C 1114 2298 1069 2291 1069 2227 
C 1069 2157 1114 2157 1222 2157 
L 1504 2157 
C 2029 2157 2266 1722 2266 1094 
C 2266 224 1824 38 1542 38 
C 1267 38 787 147 563 525 
C 787 493 986 634 986 877 
C 986 1107 813 1235 627 1235 
C 474 1235 269 1146 269 864 
C 269 282 864 -141 1562 -141 
C 2342 -141 2925 442 2925 1094 
z
" transform="scale(0.015625)"/>
       </defs>
       <use xlink:href="#LatinModernMath-Regular-33"/>
      </g>
     </g>
    </g>
    <g id="xtick_3">
     <g id="line2d_5">
      <g>
       <use xlink:href="#m060255ed29" x="150.8625" y="295.7325" style="stroke: #000000; stroke-width: 0.8"/>
      </g>
     </g>
     <g id="line2d_6">
      <g>
       <use xlink:href="#m4b40bb3b47" x="150.8625" y="20.10375" style="stroke: #000000; stroke-width: 0.8"/>
      </g>
     </g>
     <g id="text_3">
      <!-- 4 -->
      <g transform="translate(147.3625 308.949375) scale(0.14 -0.14)">
       <defs>
        <path id="LatinModernMath-Regular-34" d="M 3014 1056 
L 3014 1254 
L 2374 1254 
L 2374 4166 
C 2374 4294 2374 4333 2272 4333 
C 2214 4333 2195 4333 2144 4256 
L 179 1254 
L 179 1056 
L 1882 1056 
L 1882 499 
C 1882 269 1869 198 1395 198 
L 1261 198 
L 1261 0 
C 1523 19 1856 19 2125 19 
C 2394 19 2733 19 2995 0 
L 2995 198 
L 2861 198 
C 2387 198 2374 269 2374 499 
L 2374 1056 
L 3014 1056 
z
M 1920 1254 
L 358 1254 
L 1920 3642 
L 1920 1254 
z
" transform="scale(0.015625)"/>
       </defs>
       <use xlink:href="#LatinModernMath-Regular-34"/>
      </g>
     </g>
    </g>
    <g id="xtick_4">
     <g id="line2d_7">
      <g>
       <use xlink:href="#m060255ed29" x="198.82875" y="295.7325" style="stroke: #000000; stroke-width: 0.8"/>
      </g>
     </g>
     <g id="line2d_8">
      <g>
       <use xlink:href="#m4b40bb3b47" x="198.82875" y="20.10375" style="stroke: #000000; stroke-width: 0.8"/>
      </g>
     </g>
     <g id="text_4">
      <!-- 5 -->
      <g transform="translate(195.32875 308.949375) scale(0.14 -0.14)">
       <defs>
        <path id="LatinModernMath-Regular-35" d="M 2874 1286 
C 2874 2048 2349 2688 1658 2688 
C 1350 2688 1075 2586 845 2362 
L 845 3610 
C 973 3571 1184 3526 1389 3526 
C 2176 3526 2624 4109 2624 4192 
C 2624 4230 2605 4262 2560 4262 
C 2560 4262 2541 4262 2509 4243 
C 2381 4186 2067 4058 1638 4058 
C 1382 4058 1088 4102 787 4237 
C 736 4256 710 4256 710 4256 
C 646 4256 646 4205 646 4102 
L 646 2208 
C 646 2093 646 2042 736 2042 
C 781 2042 794 2061 819 2099 
C 890 2202 1126 2547 1645 2547 
C 1978 2547 2138 2253 2189 2138 
C 2291 1901 2304 1651 2304 1331 
C 2304 1107 2304 723 2150 454 
C 1997 205 1760 38 1466 38 
C 998 38 634 378 525 755 
C 544 749 563 742 634 742 
C 845 742 954 902 954 1056 
C 954 1210 845 1370 634 1370 
C 544 1370 320 1325 320 1030 
C 320 480 762 -141 1478 -141 
C 2221 -141 2874 474 2874 1286 
z
" transform="scale(0.015625)"/>
       </defs>
       <use xlink:href="#LatinModernMath-Regular-35"/>
      </g>
     </g>
    </g>
    <g id="xtick_5">
     <g id="line2d_9">
      <g>
       <use xlink:href="#m060255ed29" x="246.795" y="295.7325" style="stroke: #000000; stroke-width: 0.8"/>
      </g>
     </g>
     <g id="line2d_10">
      <g>
       <use xlink:href="#m4b40bb3b47" x="246.795" y="20.10375" style="stroke: #000000; stroke-width: 0.8"/>
      </g>
     </g>
     <g id="text_5">
      <!-- 6 -->
      <g transform="translate(243.295 308.949375) scale(0.14 -0.14)">
       <defs>
        <path id="LatinModernMath-Regular-36" d="M 2925 1306 
C 2925 2118 2355 2733 1645 2733 
C 1210 2733 973 2406 845 2099 
L 845 2253 
C 845 3872 1638 4102 1965 4102 
C 2118 4102 2387 4064 2528 3846 
C 2432 3846 2176 3846 2176 3558 
C 2176 3360 2330 3264 2470 3264 
C 2573 3264 2765 3322 2765 3571 
C 2765 3955 2483 4262 1952 4262 
C 1133 4262 269 3437 269 2022 
C 269 314 1011 -141 1606 -141 
C 2317 -141 2925 461 2925 1306 
z
M 2349 1312 
C 2349 1005 2349 685 2240 454 
C 2048 70 1754 38 1606 38 
C 1203 38 1011 422 973 518 
C 858 819 858 1331 858 1446 
C 858 1946 1062 2586 1638 2586 
C 1741 2586 2035 2586 2234 2189 
C 2349 1952 2349 1626 2349 1312 
z
" transform="scale(0.015625)"/>
       </defs>
       <use xlink:href="#LatinModernMath-Regular-36"/>
      </g>
     </g>
    </g>
    <g id="xtick_6">
     <g id="line2d_11">
      <g>
       <use xlink:href="#m060255ed29" x="294.76125" y="295.7325" style="stroke: #000000; stroke-width: 0.8"/>
      </g>
     </g>
     <g id="line2d_12">
      <g>
       <use xlink:href="#m4b40bb3b47" x="294.76125" y="20.10375" style="stroke: #000000; stroke-width: 0.8"/>
      </g>
     </g>
     <g id="text_6">
      <!-- 7 -->
      <g transform="translate(291.26125 308.949375) scale(0.14 -0.14)">
       <defs>
        <path id="LatinModernMath-Regular-37" d="M 3104 4122 
L 1549 4122 
C 768 4122 755 4205 730 4326 
L 570 4326 
L 358 3008 
L 518 3008 
C 538 3110 595 3514 678 3590 
C 723 3629 1222 3629 1306 3629 
L 2630 3629 
L 1914 2618 
C 1338 1754 1126 864 1126 211 
C 1126 147 1126 -141 1421 -141 
C 1715 -141 1715 147 1715 211 
L 1715 538 
C 1715 890 1734 1242 1786 1587 
C 1811 1734 1901 2285 2182 2682 
L 3046 3898 
C 3104 3974 3104 3987 3104 4122 
z
" transform="scale(0.015625)"/>
       </defs>
       <use xlink:href="#LatinModernMath-Regular-37"/>
      </g>
     </g>
    </g>
    <g id="xtick_7">
     <g id="line2d_13">
      <g>
       <use xlink:href="#m060255ed29" x="342.7275" y="295.7325" style="stroke: #000000; stroke-width: 0.8"/>
      </g>
     </g>
     <g id="line2d_14">
      <g>
       <use xlink:href="#m4b40bb3b47" x="342.7275" y="20.10375" style="stroke: #000000; stroke-width: 0.8"/>
      </g>
     </g>
     <g id="text_7">
      <!-- 8 -->
      <g transform="translate(339.2275 308.949375) scale(0.14 -0.14)">
       <defs>
        <path id="LatinModernMath-Regular-38" d="M 2925 1075 
C 2925 1306 2854 1594 2611 1862 
C 2490 1997 2387 2061 1978 2317 
C 2438 2554 2752 2886 2752 3309 
C 2752 3898 2182 4262 1600 4262 
C 960 4262 442 3789 442 3194 
C 442 3078 454 2790 723 2490 
C 794 2413 1030 2253 1190 2144 
C 819 1958 269 1600 269 966 
C 269 288 922 -141 1594 -141 
C 2317 -141 2925 390 2925 1075 
z
M 2470 3309 
C 2470 2944 2221 2637 1837 2413 
L 1043 2925 
C 749 3117 723 3334 723 3443 
C 723 3834 1139 4102 1594 4102 
C 2061 4102 2470 3770 2470 3309 
z
M 2605 845 
C 2605 371 2125 38 1600 38 
C 1050 38 589 435 589 966 
C 589 1338 794 1747 1338 2048 
L 2125 1549 
C 2304 1427 2605 1235 2605 845 
z
" transform="scale(0.015625)"/>
       </defs>
       <use xlink:href="#LatinModernMath-Regular-38"/>
      </g>
     </g>
    </g>
    <g id="xtick_8">
     <g id="line2d_15">
      <g>
       <use xlink:href="#m060255ed29" x="390.69375" y="295.7325" style="stroke: #000000; stroke-width: 0.8"/>
      </g>
     </g>
     <g id="line2d_16">
      <g>
       <use xlink:href="#m4b40bb3b47" x="390.69375" y="20.10375" style="stroke: #000000; stroke-width: 0.8"/>
      </g>
     </g>
     <g id="text_8">
      <!-- 9 -->
      <g transform="translate(387.19375 308.949375) scale(0.14 -0.14)">
       <defs>
        <path id="LatinModernMath-Regular-39" d="M 2925 2106 
C 2925 3827 2189 4262 1619 4262 
C 1267 4262 954 4147 678 3859 
C 416 3571 269 3302 269 2822 
C 269 2022 832 1395 1549 1395 
C 1939 1395 2202 1664 2349 2035 
L 2349 1830 
C 2349 333 1683 38 1312 38 
C 1203 38 858 51 685 269 
C 966 269 1018 454 1018 563 
C 1018 762 864 858 723 858 
C 621 858 429 800 429 550 
C 429 122 774 -141 1318 -141 
C 2144 -141 2925 730 2925 2106 
z
M 2336 2694 
C 2336 2163 2118 1542 1555 1542 
C 1453 1542 1158 1542 960 1946 
C 845 2182 845 2502 845 2816 
C 845 3162 845 3462 979 3699 
C 1152 4019 1395 4102 1619 4102 
C 1914 4102 2125 3885 2234 3597 
C 2310 3392 2336 2989 2336 2694 
z
" transform="scale(0.015625)"/>
       </defs>
       <use xlink:href="#LatinModernMath-Regular-39"/>
      </g>
     </g>
    </g>
    <g id="xtick_9">
     <g id="line2d_17">
      <g>
       <use xlink:href="#m060255ed29" x="438.66" y="295.7325" style="stroke: #000000; stroke-width: 0.8"/>
      </g>
     </g>
     <g id="line2d_18">
      <g>
       <use xlink:href="#m4b40bb3b47" x="438.66" y="20.10375" style="stroke: #000000; stroke-width: 0.8"/>
      </g>
     </g>
     <g id="text_9">
      <!-- 10 -->
      <g transform="translate(431.66 308.949375) scale(0.14 -0.14)">
       <defs>
        <path id="LatinModernMath-Regular-31" d="M 2682 0 
L 2682 198 
L 2477 198 
C 1901 198 1882 269 1882 506 
L 1882 4096 
C 1882 4250 1882 4262 1734 4262 
C 1338 3853 774 3853 570 3853 
L 570 3654 
C 698 3654 1075 3654 1408 3821 
L 1408 506 
C 1408 275 1389 198 813 198 
L 608 198 
L 608 0 
C 832 19 1389 19 1645 19 
C 1901 19 2458 19 2682 0 
z
" transform="scale(0.015625)"/>
        <path id="LatinModernMath-Regular-30" d="M 2944 2048 
C 2944 2560 2912 3072 2688 3546 
C 2394 4160 1869 4262 1600 4262 
C 1216 4262 749 4096 486 3501 
C 282 3059 250 2560 250 2048 
C 250 1568 275 992 538 506 
C 813 -13 1280 -141 1594 -141 
C 1939 -141 2426 -6 2707 602 
C 2912 1043 2944 1542 2944 2048 
z
M 2413 2125 
C 2413 1645 2413 1210 2342 800 
C 2246 192 1882 0 1594 0 
C 1344 0 966 160 851 774 
C 781 1158 781 1747 781 2125 
C 781 2534 781 2957 832 3302 
C 954 4064 1434 4122 1594 4122 
C 1805 4122 2227 4006 2349 3373 
C 2413 3014 2413 2528 2413 2125 
z
" transform="scale(0.015625)"/>
       </defs>
       <use xlink:href="#LatinModernMath-Regular-31"/>
       <use xlink:href="#LatinModernMath-Regular-30" x="49.999985"/>
      </g>
     </g>
    </g>
    <g id="xtick_10">
     <g id="line2d_19">
      <defs>
       <path id="m1297a6d319" d="M 0 0 
L 0 -2 
" style="stroke: #000000; stroke-width: 0.6"/>
      </defs>
      <g>
       <use xlink:href="#m1297a6d319" x="64.52325" y="295.7325" style="stroke: #000000; stroke-width: 0.6"/>
      </g>
     </g>
     <g id="line2d_20">
      <defs>
       <path id="m46bfbe0aad" d="M 0 0 
L 0 2 
" style="stroke: #000000; stroke-width: 0.6"/>
      </defs>
      <g>
       <use xlink:href="#m46bfbe0aad" x="64.52325" y="20.10375" style="stroke: #000000; stroke-width: 0.6"/>
      </g>
     </g>
    </g>
    <g id="xtick_11">
     <g id="line2d_21">
      <g>
       <use xlink:href="#m1297a6d319" x="74.1165" y="295.7325" style="stroke: #000000; stroke-width: 0.6"/>
      </g>
     </g>
     <g id="line2d_22">
      <g>
       <use xlink:href="#m46bfbe0aad" x="74.1165" y="20.10375" style="stroke: #000000; stroke-width: 0.6"/>
      </g>
     </g>
    </g>
    <g id="xtick_12">
     <g id="line2d_23">
      <g>
       <use xlink:href="#m1297a6d319" x="83.70975" y="295.7325" style="stroke: #000000; stroke-width: 0.6"/>
      </g>
     </g>
     <g id="line2d_24">
      <g>
       <use xlink:href="#m46bfbe0aad" x="83.70975" y="20.10375" style="stroke: #000000; stroke-width: 0.6"/>
      </g>
     </g>
    </g>
    <g id="xtick_13">
     <g id="line2d_25">
      <g>
       <use xlink:href="#m1297a6d319" x="93.303" y="295.7325" style="stroke: #000000; stroke-width: 0.6"/>
      </g>
     </g>
     <g id="line2d_26">
      <g>
       <use xlink:href="#m46bfbe0aad" x="93.303" y="20.10375" style="stroke: #000000; stroke-width: 0.6"/>
      </g>
     </g>
    </g>
    <g id="xtick_14">
     <g id="line2d_27">
      <g>
       <use xlink:href="#m1297a6d319" x="112.4895" y="295.7325" style="stroke: #000000; stroke-width: 0.6"/>
      </g>
     </g>
     <g id="line2d_28">
      <g>
       <use xlink:href="#m46bfbe0aad" x="112.4895" y="20.10375" style="stroke: #000000; stroke-width: 0.6"/>
      </g>
     </g>
    </g>
    <g id="xtick_15">
     <g id="line2d_29">
      <g>
       <use xlink:href="#m1297a6d319" x="122.08275" y="295.7325" style="stroke: #000000; stroke-width: 0.6"/>
      </g>
     </g>
     <g id="line2d_30">
      <g>
       <use xlink:href="#m46bfbe0aad" x="122.08275" y="20.10375" style="stroke: #000000; stroke-width: 0.6"/>
      </g>
     </g>
    </g>
    <g id="xtick_16">
     <g id="line2d_31">
      <g>
       <use xlink:href="#m1297a6d319" x="131.676" y="295.7325" style="stroke: #000000; stroke-width: 0.6"/>
      </g>
     </g>
     <g id="line2d_32">
      <g>
       <use xlink:href="#m46bfbe0aad" x="131.676" y="20.10375" style="stroke: #000000; stroke-width: 0.6"/>
      </g>
     </g>
    </g>
    <g id="xtick_17">
     <g id="line2d_33">
      <g>
       <use xlink:href="#m1297a6d319" x="141.26925" y="295.7325" style="stroke: #000000; stroke-width: 0.6"/>
      </g>
     </g>
     <g id="line2d_34">
      <g>
       <use xlink:href="#m46bfbe0aad" x="141.26925" y="20.10375" style="stroke: #000000; stroke-width: 0.6"/>
      </g>
     </g>
    </g>
    <g id="xtick_18">
     <g id="line2d_35">
      <g>
       <use xlink:href="#m1297a6d319" x="160.45575" y="295.7325" style="stroke: #000000; stroke-width: 0.6"/>
      </g>
     </g>
     <g id="line2d_36">
      <g>
       <use xlink:href="#m46bfbe0aad" x="160.45575" y="20.10375" style="stroke: #000000; stroke-width: 0.6"/>
      </g>
     </g>
    </g>
    <g id="xtick_19">
     <g id="line2d_37">
      <g>
       <use xlink:href="#m1297a6d319" x="170.049" y="295.7325" style="stroke: #000000; stroke-width: 0.6"/>
      </g>
     </g>
     <g id="line2d_38">
      <g>
       <use xlink:href="#m46bfbe0aad" x="170.049" y="20.10375" style="stroke: #000000; stroke-width: 0.6"/>
      </g>
     </g>
    </g>
    <g id="xtick_20">
     <g id="line2d_39">
      <g>
       <use xlink:href="#m1297a6d319" x="179.64225" y="295.7325" style="stroke: #000000; stroke-width: 0.6"/>
      </g>
     </g>
     <g id="line2d_40">
      <g>
       <use xlink:href="#m46bfbe0aad" x="179.64225" y="20.10375" style="stroke: #000000; stroke-width: 0.6"/>
      </g>
     </g>
    </g>
    <g id="xtick_21">
     <g id="line2d_41">
      <g>
       <use xlink:href="#m1297a6d319" x="189.2355" y="295.7325" style="stroke: #000000; stroke-width: 0.6"/>
      </g>
     </g>
     <g id="line2d_42">
      <g>
       <use xlink:href="#m46bfbe0aad" x="189.2355" y="20.10375" style="stroke: #000000; stroke-width: 0.6"/>
      </g>
     </g>
    </g>
    <g id="xtick_22">
     <g id="line2d_43">
      <g>
       <use xlink:href="#m1297a6d319" x="208.422" y="295.7325" style="stroke: #000000; stroke-width: 0.6"/>
      </g>
     </g>
     <g id="line2d_44">
      <g>
       <use xlink:href="#m46bfbe0aad" x="208.422" y="20.10375" style="stroke: #000000; stroke-width: 0.6"/>
      </g>
     </g>
    </g>
    <g id="xtick_23">
     <g id="line2d_45">
      <g>
       <use xlink:href="#m1297a6d319" x="218.01525" y="295.7325" style="stroke: #000000; stroke-width: 0.6"/>
      </g>
     </g>
     <g id="line2d_46">
      <g>
       <use xlink:href="#m46bfbe0aad" x="218.01525" y="20.10375" style="stroke: #000000; stroke-width: 0.6"/>
      </g>
     </g>
    </g>
    <g id="xtick_24">
     <g id="line2d_47">
      <g>
       <use xlink:href="#m1297a6d319" x="227.6085" y="295.7325" style="stroke: #000000; stroke-width: 0.6"/>
      </g>
     </g>
     <g id="line2d_48">
      <g>
       <use xlink:href="#m46bfbe0aad" x="227.6085" y="20.10375" style="stroke: #000000; stroke-width: 0.6"/>
      </g>
     </g>
    </g>
    <g id="xtick_25">
     <g id="line2d_49">
      <g>
       <use xlink:href="#m1297a6d319" x="237.20175" y="295.7325" style="stroke: #000000; stroke-width: 0.6"/>
      </g>
     </g>
     <g id="line2d_50">
      <g>
       <use xlink:href="#m46bfbe0aad" x="237.20175" y="20.10375" style="stroke: #000000; stroke-width: 0.6"/>
      </g>
     </g>
    </g>
    <g id="xtick_26">
     <g id="line2d_51">
      <g>
       <use xlink:href="#m1297a6d319" x="256.38825" y="295.7325" style="stroke: #000000; stroke-width: 0.6"/>
      </g>
     </g>
     <g id="line2d_52">
      <g>
       <use xlink:href="#m46bfbe0aad" x="256.38825" y="20.10375" style="stroke: #000000; stroke-width: 0.6"/>
      </g>
     </g>
    </g>
    <g id="xtick_27">
     <g id="line2d_53">
      <g>
       <use xlink:href="#m1297a6d319" x="265.9815" y="295.7325" style="stroke: #000000; stroke-width: 0.6"/>
      </g>
     </g>
     <g id="line2d_54">
      <g>
       <use xlink:href="#m46bfbe0aad" x="265.9815" y="20.10375" style="stroke: #000000; stroke-width: 0.6"/>
      </g>
     </g>
    </g>
    <g id="xtick_28">
     <g id="line2d_55">
      <g>
       <use xlink:href="#m1297a6d319" x="275.57475" y="295.7325" style="stroke: #000000; stroke-width: 0.6"/>
      </g>
     </g>
     <g id="line2d_56">
      <g>
       <use xlink:href="#m46bfbe0aad" x="275.57475" y="20.10375" style="stroke: #000000; stroke-width: 0.6"/>
      </g>
     </g>
    </g>
    <g id="xtick_29">
     <g id="line2d_57">
      <g>
       <use xlink:href="#m1297a6d319" x="285.168" y="295.7325" style="stroke: #000000; stroke-width: 0.6"/>
      </g>
     </g>
     <g id="line2d_58">
      <g>
       <use xlink:href="#m46bfbe0aad" x="285.168" y="20.10375" style="stroke: #000000; stroke-width: 0.6"/>
      </g>
     </g>
    </g>
    <g id="xtick_30">
     <g id="line2d_59">
      <g>
       <use xlink:href="#m1297a6d319" x="304.3545" y="295.7325" style="stroke: #000000; stroke-width: 0.6"/>
      </g>
     </g>
     <g id="line2d_60">
      <g>
       <use xlink:href="#m46bfbe0aad" x="304.3545" y="20.10375" style="stroke: #000000; stroke-width: 0.6"/>
      </g>
     </g>
    </g>
    <g id="xtick_31">
     <g id="line2d_61">
      <g>
       <use xlink:href="#m1297a6d319" x="313.94775" y="295.7325" style="stroke: #000000; stroke-width: 0.6"/>
      </g>
     </g>
     <g id="line2d_62">
      <g>
       <use xlink:href="#m46bfbe0aad" x="313.94775" y="20.10375" style="stroke: #000000; stroke-width: 0.6"/>
      </g>
     </g>
    </g>
    <g id="xtick_32">
     <g id="line2d_63">
      <g>
       <use xlink:href="#m1297a6d319" x="323.541" y="295.7325" style="stroke: #000000; stroke-width: 0.6"/>
      </g>
     </g>
     <g id="line2d_64">
      <g>
       <use xlink:href="#m46bfbe0aad" x="323.541" y="20.10375" style="stroke: #000000; stroke-width: 0.6"/>
      </g>
     </g>
    </g>
    <g id="xtick_33">
     <g id="line2d_65">
      <g>
       <use xlink:href="#m1297a6d319" x="333.13425" y="295.7325" style="stroke: #000000; stroke-width: 0.6"/>
      </g>
     </g>
     <g id="line2d_66">
      <g>
       <use xlink:href="#m46bfbe0aad" x="333.13425" y="20.10375" style="stroke: #000000; stroke-width: 0.6"/>
      </g>
     </g>
    </g>
    <g id="xtick_34">
     <g id="line2d_67">
      <g>
       <use xlink:href="#m1297a6d319" x="352.32075" y="295.7325" style="stroke: #000000; stroke-width: 0.6"/>
      </g>
     </g>
     <g id="line2d_68">
      <g>
       <use xlink:href="#m46bfbe0aad" x="352.32075" y="20.10375" style="stroke: #000000; stroke-width: 0.6"/>
      </g>
     </g>
    </g>
    <g id="xtick_35">
     <g id="line2d_69">
      <g>
       <use xlink:href="#m1297a6d319" x="361.914" y="295.7325" style="stroke: #000000; stroke-width: 0.6"/>
      </g>
     </g>
     <g id="line2d_70">
      <g>
       <use xlink:href="#m46bfbe0aad" x="361.914" y="20.10375" style="stroke: #000000; stroke-width: 0.6"/>
      </g>
     </g>
    </g>
    <g id="xtick_36">
     <g id="line2d_71">
      <g>
       <use xlink:href="#m1297a6d319" x="371.50725" y="295.7325" style="stroke: #000000; stroke-width: 0.6"/>
      </g>
     </g>
     <g id="line2d_72">
      <g>
       <use xlink:href="#m46bfbe0aad" x="371.50725" y="20.10375" style="stroke: #000000; stroke-width: 0.6"/>
      </g>
     </g>
    </g>
    <g id="xtick_37">
     <g id="line2d_73">
      <g>
       <use xlink:href="#m1297a6d319" x="381.1005" y="295.7325" style="stroke: #000000; stroke-width: 0.6"/>
      </g>
     </g>
     <g id="line2d_74">
      <g>
       <use xlink:href="#m46bfbe0aad" x="381.1005" y="20.10375" style="stroke: #000000; stroke-width: 0.6"/>
      </g>
     </g>
    </g>
    <g id="xtick_38">
     <g id="line2d_75">
      <g>
       <use xlink:href="#m1297a6d319" x="400.287" y="295.7325" style="stroke: #000000; stroke-width: 0.6"/>
      </g>
     </g>
     <g id="line2d_76">
      <g>
       <use xlink:href="#m46bfbe0aad" x="400.287" y="20.10375" style="stroke: #000000; stroke-width: 0.6"/>
      </g>
     </g>
    </g>
    <g id="xtick_39">
     <g id="line2d_77">
      <g>
       <use xlink:href="#m1297a6d319" x="409.88025" y="295.7325" style="stroke: #000000; stroke-width: 0.6"/>
      </g>
     </g>
     <g id="line2d_78">
      <g>
       <use xlink:href="#m46bfbe0aad" x="409.88025" y="20.10375" style="stroke: #000000; stroke-width: 0.6"/>
      </g>
     </g>
    </g>
    <g id="xtick_40">
     <g id="line2d_79">
      <g>
       <use xlink:href="#m1297a6d319" x="419.4735" y="295.7325" style="stroke: #000000; stroke-width: 0.6"/>
      </g>
     </g>
     <g id="line2d_80">
      <g>
       <use xlink:href="#m46bfbe0aad" x="419.4735" y="20.10375" style="stroke: #000000; stroke-width: 0.6"/>
      </g>
     </g>
    </g>
    <g id="xtick_41">
     <g id="line2d_81">
      <g>
       <use xlink:href="#m1297a6d319" x="429.06675" y="295.7325" style="stroke: #000000; stroke-width: 0.6"/>
      </g>
     </g>
     <g id="line2d_82">
      <g>
       <use xlink:href="#m46bfbe0aad" x="429.06675" y="20.10375" style="stroke: #000000; stroke-width: 0.6"/>
      </g>
     </g>
    </g>
    <g id="text_10">
     <!-- $z / t$ -->
     <g transform="translate(237.975 325.383125) scale(0.14 -0.14)">
      <defs>
       <path id="DejaVuSans-Oblique-7a" d="M 744 3500 
L 3475 3500 
L 3372 2975 
L 738 459 
L 2913 459 
L 2822 0 
L -19 0 
L 84 525 
L 2719 3041 
L 653 3041 
L 744 3500 
z
" transform="scale(0.015625)"/>
       <path id="DejaVuSans-2f" d="M 1625 4666 
L 2156 4666 
L 531 -594 
L 0 -594 
L 1625 4666 
z
" transform="scale(0.015625)"/>
       <path id="DejaVuSans-Oblique-74" d="M 2706 3500 
L 2619 3053 
L 1472 3053 
L 1100 1153 
Q 1081 1047 1072 975 
Q 1063 903 1063 863 
Q 1063 663 1183 572 
Q 1303 481 1569 481 
L 2150 481 
L 2053 0 
L 1503 0 
Q 991 0 739 200 
Q 488 400 488 806 
Q 488 878 497 964 
Q 506 1050 525 1153 
L 897 3053 
L 409 3053 
L 500 3500 
L 978 3500 
L 1172 4494 
L 1747 4494 
L 1556 3500 
L 2706 3500 
z
" transform="scale(0.015625)"/>
      </defs>
      <use xlink:href="#DejaVuSans-Oblique-7a" transform="translate(0 0.09375)"/>
      <use xlink:href="#DejaVuSans-2f" transform="translate(52.490234 0.09375)"/>
      <use xlink:href="#DejaVuSans-Oblique-74" transform="translate(86.181641 0.09375)"/>
     </g>
    </g>
   </g>
   <g id="matplotlib.axis_2">
    <g id="ytick_1">
     <g id="line2d_83">
      <defs>
       <path id="m33b0639a74" d="M 0 0 
L 3.5 0 
" style="stroke: #000000; stroke-width: 0.8"/>
      </defs>
      <g>
       <use xlink:href="#m33b0639a74" x="54.93" y="295.7325" style="stroke: #000000; stroke-width: 0.8"/>
      </g>
     </g>
     <g id="line2d_84">
      <defs>
       <path id="mea0f15db16" d="M 0 0 
L -3.5 0 
" style="stroke: #000000; stroke-width: 0.8"/>
      </defs>
      <g>
       <use xlink:href="#mea0f15db16" x="438.66" y="295.7325" style="stroke: #000000; stroke-width: 0.8"/>
      </g>
     </g>
     <g id="text_11">
      <!-- 0.0 -->
      <g transform="translate(33.538438 300.590937) scale(0.14 -0.14)">
       <defs>
        <path id="LatinModernMath-Regular-2e" d="M 1229 339 
C 1229 525 1075 678 890 678 
C 704 678 550 525 550 339 
C 550 154 704 0 890 0 
C 1075 0 1229 154 1229 339 
z
" transform="scale(0.015625)"/>
       </defs>
       <use xlink:href="#LatinModernMath-Regular-30"/>
       <use xlink:href="#LatinModernMath-Regular-2e" x="49.999985"/>
       <use xlink:href="#LatinModernMath-Regular-30" x="77.799973"/>
      </g>
     </g>
    </g>
    <g id="ytick_2">
     <g id="line2d_85">
      <g>
       <use xlink:href="#m33b0639a74" x="54.93" y="240.60675" style="stroke: #000000; stroke-width: 0.8"/>
      </g>
     </g>
     <g id="line2d_86">
      <g>
       <use xlink:href="#mea0f15db16" x="438.66" y="240.60675" style="stroke: #000000; stroke-width: 0.8"/>
      </g>
     </g>
     <g id="text_12">
      <!-- 0.2 -->
      <g transform="translate(33.538438 245.465187) scale(0.14 -0.14)">
       <use xlink:href="#LatinModernMath-Regular-30"/>
       <use xlink:href="#LatinModernMath-Regular-2e" x="49.999985"/>
       <use xlink:href="#LatinModernMath-Regular-32" x="77.799973"/>
      </g>
     </g>
    </g>
    <g id="ytick_3">
     <g id="line2d_87">
      <g>
       <use xlink:href="#m33b0639a74" x="54.93" y="185.481" style="stroke: #000000; stroke-width: 0.8"/>
      </g>
     </g>
     <g id="line2d_88">
      <g>
       <use xlink:href="#mea0f15db16" x="438.66" y="185.481" style="stroke: #000000; stroke-width: 0.8"/>
      </g>
     </g>
     <g id="text_13">
      <!-- 0.4 -->
      <g transform="translate(33.538438 190.339437) scale(0.14 -0.14)">
       <use xlink:href="#LatinModernMath-Regular-30"/>
       <use xlink:href="#LatinModernMath-Regular-2e" x="49.999985"/>
       <use xlink:href="#LatinModernMath-Regular-34" x="77.799973"/>
      </g>
     </g>
    </g>
    <g id="ytick_4">
     <g id="line2d_89">
      <g>
       <use xlink:href="#m33b0639a74" x="54.93" y="130.35525" style="stroke: #000000; stroke-width: 0.8"/>
      </g>
     </g>
     <g id="line2d_90">
      <g>
       <use xlink:href="#mea0f15db16" x="438.66" y="130.35525" style="stroke: #000000; stroke-width: 0.8"/>
      </g>
     </g>
     <g id="text_14">
      <!-- 0.6 -->
      <g transform="translate(33.538438 135.213687) scale(0.14 -0.14)">
       <use xlink:href="#LatinModernMath-Regular-30"/>
       <use xlink:href="#LatinModernMath-Regular-2e" x="49.999985"/>
       <use xlink:href="#LatinModernMath-Regular-36" x="77.799973"/>
      </g>
     </g>
    </g>
    <g id="ytick_5">
     <g id="line2d_91">
      <g>
       <use xlink:href="#m33b0639a74" x="54.93" y="75.2295" style="stroke: #000000; stroke-width: 0.8"/>
      </g>
     </g>
     <g id="line2d_92">
      <g>
       <use xlink:href="#mea0f15db16" x="438.66" y="75.2295" style="stroke: #000000; stroke-width: 0.8"/>
      </g>
     </g>
     <g id="text_15">
      <!-- 0.8 -->
      <g transform="translate(33.538438 80.087937) scale(0.14 -0.14)">
       <use xlink:href="#LatinModernMath-Regular-30"/>
       <use xlink:href="#LatinModernMath-Regular-2e" x="49.999985"/>
       <use xlink:href="#LatinModernMath-Regular-38" x="77.799973"/>
      </g>
     </g>
    </g>
    <g id="ytick_6">
     <g id="line2d_93">
      <g>
       <use xlink:href="#m33b0639a74" x="54.93" y="20.10375" style="stroke: #000000; stroke-width: 0.8"/>
      </g>
     </g>
     <g id="line2d_94">
      <g>
       <use xlink:href="#mea0f15db16" x="438.66" y="20.10375" style="stroke: #000000; stroke-width: 0.8"/>
      </g>
     </g>
     <g id="text_16">
      <!-- 1.0 -->
      <g transform="translate(33.538438 24.962187) scale(0.14 -0.14)">
       <use xlink:href="#LatinModernMath-Regular-31"/>
       <use xlink:href="#LatinModernMath-Regular-2e" x="49.999985"/>
       <use xlink:href="#LatinModernMath-Regular-30" x="77.799973"/>
      </g>
     </g>
    </g>
    <g id="ytick_7">
     <g id="line2d_95">
      <defs>
       <path id="m74ae7f58e2" d="M 0 0 
L 2 0 
" style="stroke: #000000; stroke-width: 0.6"/>
      </defs>
      <g>
       <use xlink:href="#m74ae7f58e2" x="54.93" y="281.951062" style="stroke: #000000; stroke-width: 0.6"/>
      </g>
     </g>
     <g id="line2d_96">
      <defs>
       <path id="mf245ac99ad" d="M 0 0 
L -2 0 
" style="stroke: #000000; stroke-width: 0.6"/>
      </defs>
      <g>
       <use xlink:href="#mf245ac99ad" x="438.66" y="281.951062" style="stroke: #000000; stroke-width: 0.6"/>
      </g>
     </g>
    </g>
    <g id="ytick_8">
     <g id="line2d_97">
      <g>
       <use xlink:href="#m74ae7f58e2" x="54.93" y="268.169625" style="stroke: #000000; stroke-width: 0.6"/>
      </g>
     </g>
     <g id="line2d_98">
      <g>
       <use xlink:href="#mf245ac99ad" x="438.66" y="268.169625" style="stroke: #000000; stroke-width: 0.6"/>
      </g>
     </g>
    </g>
    <g id="ytick_9">
     <g id="line2d_99">
      <g>
       <use xlink:href="#m74ae7f58e2" x="54.93" y="254.388187" style="stroke: #000000; stroke-width: 0.6"/>
      </g>
     </g>
     <g id="line2d_100">
      <g>
       <use xlink:href="#mf245ac99ad" x="438.66" y="254.388187" style="stroke: #000000; stroke-width: 0.6"/>
      </g>
     </g>
    </g>
    <g id="ytick_10">
     <g id="line2d_101">
      <g>
       <use xlink:href="#m74ae7f58e2" x="54.93" y="226.825312" style="stroke: #000000; stroke-width: 0.6"/>
      </g>
     </g>
     <g id="line2d_102">
      <g>
       <use xlink:href="#mf245ac99ad" x="438.66" y="226.825312" style="stroke: #000000; stroke-width: 0.6"/>
      </g>
     </g>
    </g>
    <g id="ytick_11">
     <g id="line2d_103">
      <g>
       <use xlink:href="#m74ae7f58e2" x="54.93" y="213.043875" style="stroke: #000000; stroke-width: 0.6"/>
      </g>
     </g>
     <g id="line2d_104">
      <g>
       <use xlink:href="#mf245ac99ad" x="438.66" y="213.043875" style="stroke: #000000; stroke-width: 0.6"/>
      </g>
     </g>
    </g>
    <g id="ytick_12">
     <g id="line2d_105">
      <g>
       <use xlink:href="#m74ae7f58e2" x="54.93" y="199.262437" style="stroke: #000000; stroke-width: 0.6"/>
      </g>
     </g>
     <g id="line2d_106">
      <g>
       <use xlink:href="#mf245ac99ad" x="438.66" y="199.262437" style="stroke: #000000; stroke-width: 0.6"/>
      </g>
     </g>
    </g>
    <g id="ytick_13">
     <g id="line2d_107">
      <g>
       <use xlink:href="#m74ae7f58e2" x="54.93" y="171.699562" style="stroke: #000000; stroke-width: 0.6"/>
      </g>
     </g>
     <g id="line2d_108">
      <g>
       <use xlink:href="#mf245ac99ad" x="438.66" y="171.699562" style="stroke: #000000; stroke-width: 0.6"/>
      </g>
     </g>
    </g>
    <g id="ytick_14">
     <g id="line2d_109">
      <g>
       <use xlink:href="#m74ae7f58e2" x="54.93" y="157.918125" style="stroke: #000000; stroke-width: 0.6"/>
      </g>
     </g>
     <g id="line2d_110">
      <g>
       <use xlink:href="#mf245ac99ad" x="438.66" y="157.918125" style="stroke: #000000; stroke-width: 0.6"/>
      </g>
     </g>
    </g>
    <g id="ytick_15">
     <g id="line2d_111">
      <g>
       <use xlink:href="#m74ae7f58e2" x="54.93" y="144.136687" style="stroke: #000000; stroke-width: 0.6"/>
      </g>
     </g>
     <g id="line2d_112">
      <g>
       <use xlink:href="#mf245ac99ad" x="438.66" y="144.136687" style="stroke: #000000; stroke-width: 0.6"/>
      </g>
     </g>
    </g>
    <g id="ytick_16">
     <g id="line2d_113">
      <g>
       <use xlink:href="#m74ae7f58e2" x="54.93" y="116.573812" style="stroke: #000000; stroke-width: 0.6"/>
      </g>
     </g>
     <g id="line2d_114">
      <g>
       <use xlink:href="#mf245ac99ad" x="438.66" y="116.573812" style="stroke: #000000; stroke-width: 0.6"/>
      </g>
     </g>
    </g>
    <g id="ytick_17">
     <g id="line2d_115">
      <g>
       <use xlink:href="#m74ae7f58e2" x="54.93" y="102.792375" style="stroke: #000000; stroke-width: 0.6"/>
      </g>
     </g>
     <g id="line2d_116">
      <g>
       <use xlink:href="#mf245ac99ad" x="438.66" y="102.792375" style="stroke: #000000; stroke-width: 0.6"/>
      </g>
     </g>
    </g>
    <g id="ytick_18">
     <g id="line2d_117">
      <g>
       <use xlink:href="#m74ae7f58e2" x="54.93" y="89.010937" style="stroke: #000000; stroke-width: 0.6"/>
      </g>
     </g>
     <g id="line2d_118">
      <g>
       <use xlink:href="#mf245ac99ad" x="438.66" y="89.010937" style="stroke: #000000; stroke-width: 0.6"/>
      </g>
     </g>
    </g>
    <g id="ytick_19">
     <g id="line2d_119">
      <g>
       <use xlink:href="#m74ae7f58e2" x="54.93" y="61.448062" style="stroke: #000000; stroke-width: 0.6"/>
      </g>
     </g>
     <g id="line2d_120">
      <g>
       <use xlink:href="#mf245ac99ad" x="438.66" y="61.448062" style="stroke: #000000; stroke-width: 0.6"/>
      </g>
     </g>
    </g>
    <g id="ytick_20">
     <g id="line2d_121">
      <g>
       <use xlink:href="#m74ae7f58e2" x="54.93" y="47.666625" style="stroke: #000000; stroke-width: 0.6"/>
      </g>
     </g>
     <g id="line2d_122">
      <g>
       <use xlink:href="#mf245ac99ad" x="438.66" y="47.666625" style="stroke: #000000; stroke-width: 0.6"/>
      </g>
     </g>
    </g>
    <g id="ytick_21">
     <g id="line2d_123">
      <g>
       <use xlink:href="#m74ae7f58e2" x="54.93" y="33.885187" style="stroke: #000000; stroke-width: 0.6"/>
      </g>
     </g>
     <g id="line2d_124">
      <g>
       <use xlink:href="#mf245ac99ad" x="438.66" y="33.885187" style="stroke: #000000; stroke-width: 0.6"/>
      </g>
     </g>
    </g>
    <g id="text_17">
     <!-- Spectral density / a.u. -->
     <g transform="translate(26.038438 226.602344) rotate(-90) scale(0.14 -0.14)">
      <defs>
       <path id="LatinModernMath-Regular-53" d="M 3194 1190 
C 3194 1830 2771 2355 2234 2483 
L 1414 2682 
C 1018 2778 768 3123 768 3494 
C 768 3942 1114 4333 1613 4333 
C 2682 4333 2822 3283 2861 2995 
C 2867 2957 2867 2918 2938 2918 
C 3021 2918 3021 2950 3021 3072 
L 3021 4358 
C 3021 4467 3021 4512 2950 4512 
C 2906 4512 2899 4506 2854 4429 
L 2630 4064 
C 2438 4250 2176 4512 1606 4512 
C 896 4512 358 3949 358 3270 
C 358 2739 698 2272 1197 2099 
C 1267 2074 1594 1997 2042 1888 
C 2214 1843 2406 1798 2586 1562 
C 2720 1395 2784 1184 2784 973 
C 2784 518 2464 58 1926 58 
C 1741 58 1254 90 915 403 
C 544 749 525 1158 518 1389 
C 512 1453 461 1453 442 1453 
C 358 1453 358 1408 358 1293 
L 358 13 
C 358 -96 358 -141 429 -141 
C 474 -141 480 -128 525 -58 
C 525 -58 544 -32 755 307 
C 954 90 1363 -141 1933 -141 
C 2682 -141 3194 486 3194 1190 
z
" transform="scale(0.015625)"/>
       <path id="LatinModernMath-Regular-70" d="M 3334 1382 
C 3334 2195 2714 2829 1997 2829 
C 1498 2829 1229 2547 1101 2406 
L 1101 2829 
L 179 2758 
L 179 2560 
C 634 2560 678 2522 678 2240 
L 678 -755 
C 678 -1043 608 -1043 179 -1043 
L 179 -1242 
L 896 -1222 
L 1619 -1242 
L 1619 -1043 
C 1190 -1043 1120 -1043 1120 -755 
L 1120 320 
L 1120 378 
C 1152 275 1421 -70 1907 -70 
C 2669 -70 3334 557 3334 1382 
z
M 2803 1382 
C 2803 608 2355 70 1882 70 
C 1626 70 1382 198 1210 461 
C 1120 595 1120 602 1120 730 
L 1120 2157 
C 1306 2483 1619 2669 1946 2669 
C 2413 2669 2803 2106 2803 1382 
z
" transform="scale(0.015625)"/>
       <path id="LatinModernMath-Regular-65" d="M 2656 762 
C 2656 826 2605 838 2573 838 
C 2515 838 2502 800 2490 749 
C 2266 90 1690 90 1626 90 
C 1306 90 1050 282 902 518 
C 710 826 710 1248 710 1478 
L 2496 1478 
C 2637 1478 2656 1478 2656 1613 
C 2656 2246 2310 2867 1510 2867 
C 768 2867 179 2208 179 1408 
C 179 550 851 -70 1587 -70 
C 2368 -70 2656 640 2656 762 
z
M 2234 1613 
L 717 1613 
C 755 2566 1293 2726 1510 2726 
C 2170 2726 2234 1862 2234 1613 
z
" transform="scale(0.015625)"/>
       <path id="LatinModernMath-Regular-63" d="M 2656 762 
C 2656 826 2592 826 2573 826 
C 2515 826 2502 800 2490 762 
C 2304 166 1888 90 1651 90 
C 1312 90 749 365 749 1395 
C 749 2438 1274 2707 1613 2707 
C 1670 2707 2074 2701 2298 2470 
C 2035 2451 1997 2259 1997 2176 
C 1997 2010 2112 1882 2291 1882 
C 2458 1882 2586 1990 2586 2182 
C 2586 2618 2099 2867 1606 2867 
C 806 2867 218 2176 218 1382 
C 218 563 851 -70 1594 -70 
C 2451 -70 2656 698 2656 762 
z
" transform="scale(0.015625)"/>
       <path id="LatinModernMath-Regular-74" d="M 2125 794 
L 2125 1158 
L 1965 1158 
L 1965 806 
C 1965 333 1773 90 1536 90 
C 1107 90 1107 672 1107 781 
L 1107 2560 
L 2022 2560 
L 2022 2758 
L 1107 2758 
L 1107 3936 
L 947 3936 
C 941 3411 749 2726 122 2701 
L 122 2560 
L 666 2560 
L 666 794 
C 666 6 1261 -70 1491 -70 
C 1946 -70 2125 384 2125 794 
z
" transform="scale(0.015625)"/>
       <path id="LatinModernMath-Regular-72" d="M 2330 2438 
C 2330 2643 2131 2829 1856 2829 
C 1389 2829 1158 2400 1069 2125 
L 1069 2829 
L 179 2758 
L 179 2560 
C 627 2560 678 2515 678 2202 
L 678 486 
C 678 198 608 198 179 198 
L 179 0 
L 909 19 
C 1165 19 1466 19 1722 0 
L 1722 198 
L 1587 198 
C 1114 198 1101 269 1101 499 
L 1101 1485 
C 1101 2118 1370 2688 1856 2688 
C 1901 2688 1914 2688 1926 2682 
C 1907 2675 1779 2598 1779 2432 
C 1779 2253 1914 2157 2054 2157 
C 2170 2157 2330 2234 2330 2438 
z
" transform="scale(0.015625)"/>
       <path id="LatinModernMath-Regular-61" d="M 3091 570 
L 3091 928 
L 2931 928 
L 2931 570 
C 2931 198 2771 160 2701 160 
C 2490 160 2464 448 2464 480 
L 2464 1760 
C 2464 2029 2464 2278 2234 2515 
C 1984 2765 1664 2867 1357 2867 
C 832 2867 390 2566 390 2144 
C 390 1952 518 1843 685 1843 
C 864 1843 979 1971 979 2138 
C 979 2214 947 2426 653 2432 
C 826 2656 1139 2726 1344 2726 
C 1658 2726 2022 2477 2022 1907 
L 2022 1670 
C 1696 1651 1248 1632 845 1440 
C 365 1222 205 890 205 608 
C 205 90 826 -70 1229 -70 
C 1651 -70 1946 186 2067 486 
C 2093 230 2266 -38 2566 -38 
C 2701 -38 3091 51 3091 570 
z
M 2022 896 
C 2022 288 1562 70 1274 70 
C 960 70 698 294 698 614 
C 698 966 966 1498 2022 1536 
L 2022 896 
z
" transform="scale(0.015625)"/>
       <path id="LatinModernMath-Regular-6c" d="M 1632 0 
L 1632 198 
C 1203 198 1133 198 1133 486 
L 1133 4442 
L 211 4371 
L 211 4173 
C 659 4173 710 4128 710 3814 
L 710 486 
C 710 198 640 198 211 198 
L 211 0 
L 922 19 
L 1632 0 
z
" transform="scale(0.015625)"/>
       <path id="LatinModernMath-Regular-20" transform="scale(0.015625)"/>
       <path id="LatinModernMath-Regular-64" d="M 3373 0 
L 3373 198 
C 2925 198 2874 243 2874 557 
L 2874 4442 
L 1952 4371 
L 1952 4173 
C 2400 4173 2451 4128 2451 3814 
L 2451 2432 
C 2266 2662 1990 2829 1645 2829 
C 890 2829 218 2202 218 1376 
C 218 563 845 -70 1574 -70 
C 1984 -70 2272 147 2432 352 
L 2432 -70 
L 3373 0 
z
M 2432 755 
C 2432 640 2432 627 2362 518 
C 2170 211 1882 70 1606 70 
C 1318 70 1088 237 934 480 
C 768 742 749 1107 749 1370 
C 749 1606 762 1990 947 2278 
C 1082 2477 1325 2688 1670 2688 
C 1894 2688 2163 2592 2362 2304 
C 2432 2195 2432 2182 2432 2067 
L 2432 755 
z
" transform="scale(0.015625)"/>
       <path id="LatinModernMath-Regular-6e" d="M 3424 0 
L 3424 198 
C 3091 198 2931 198 2925 390 
L 2925 1613 
C 2925 2163 2925 2362 2726 2592 
C 2637 2701 2426 2829 2054 2829 
C 1587 2829 1286 2554 1107 2157 
L 1107 2829 
L 205 2758 
L 205 2560 
C 653 2560 704 2515 704 2202 
L 704 486 
C 704 198 634 198 205 198 
L 205 0 
L 928 19 
L 1645 0 
L 1645 198 
C 1216 198 1146 198 1146 486 
L 1146 1664 
C 1146 2330 1600 2688 2010 2688 
C 2413 2688 2483 2342 2483 1978 
L 2483 486 
C 2483 198 2413 198 1984 198 
L 1984 0 
L 2707 19 
L 3424 0 
z
" transform="scale(0.015625)"/>
       <path id="LatinModernMath-Regular-73" d="M 2304 819 
C 2304 1158 2112 1350 2035 1427 
C 1824 1632 1574 1683 1306 1734 
C 947 1805 518 1888 518 2259 
C 518 2483 685 2746 1235 2746 
C 1939 2746 1971 2170 1984 1971 
C 1990 1914 2061 1914 2061 1914 
C 2144 1914 2144 1946 2144 2067 
L 2144 2714 
C 2144 2822 2144 2867 2074 2867 
C 2042 2867 2029 2867 1946 2790 
C 1926 2765 1862 2707 1837 2688 
C 1594 2867 1331 2867 1235 2867 
C 454 2867 211 2438 211 2080 
C 211 1856 314 1677 486 1536 
C 691 1370 870 1331 1331 1242 
C 1472 1216 1997 1114 1997 653 
C 1997 326 1773 70 1274 70 
C 736 70 506 435 384 979 
C 365 1062 358 1088 294 1088 
C 211 1088 211 1043 211 928 
L 211 83 
C 211 -26 211 -70 282 -70 
C 314 -70 320 -64 442 58 
C 454 70 454 83 570 205 
C 851 -64 1139 -70 1274 -70 
C 2010 -70 2304 358 2304 819 
z
" transform="scale(0.015625)"/>
       <path id="LatinModernMath-Regular-69" d="M 1581 0 
L 1581 198 
C 1158 198 1133 230 1133 480 
L 1133 2829 
L 237 2758 
L 237 2560 
C 653 2560 710 2522 710 2208 
L 710 486 
C 710 198 640 198 211 198 
L 211 0 
L 915 19 
C 1139 19 1363 6 1581 0 
z
M 1229 3866 
C 1229 4038 1082 4205 890 4205 
C 672 4205 544 4026 544 3866 
C 544 3693 691 3526 883 3526 
C 1101 3526 1229 3706 1229 3866 
z
" transform="scale(0.015625)"/>
       <path id="LatinModernMath-Regular-79" d="M 3251 2560 
L 3251 2758 
C 3104 2746 2918 2739 2771 2739 
L 2214 2758 
L 2214 2560 
C 2413 2554 2515 2445 2515 2285 
C 2515 2221 2509 2208 2477 2131 
L 1830 557 
L 1120 2278 
C 1094 2342 1082 2368 1082 2394 
C 1082 2560 1318 2560 1440 2560 
L 1440 2758 
L 742 2739 
C 570 2739 314 2746 122 2758 
L 122 2560 
C 429 2560 550 2560 640 2336 
L 1600 0 
L 1440 -378 
C 1299 -730 1120 -1171 710 -1171 
C 678 -1171 531 -1171 410 -1056 
C 608 -1030 659 -890 659 -787 
C 659 -621 538 -518 390 -518 
C 262 -518 122 -602 122 -794 
C 122 -1082 390 -1312 710 -1312 
C 1114 -1312 1376 -947 1530 -582 
L 2656 2150 
C 2822 2554 3149 2560 3251 2560 
z
" transform="scale(0.015625)"/>
       <path id="LatinModernMath-Regular-2f" d="M 2848 4672 
C 2848 4742 2790 4800 2720 4800 
C 2662 4800 2618 4768 2598 4717 
L 365 -1427 
C 358 -1440 358 -1459 358 -1472 
C 358 -1542 416 -1600 486 -1600 
C 544 -1600 589 -1568 608 -1517 
L 2842 4627 
C 2848 4640 2848 4659 2848 4672 
z
" transform="scale(0.015625)"/>
       <path id="LatinModernMath-Regular-75" d="M 3424 0 
L 3424 198 
C 2976 198 2925 243 2925 557 
L 2925 2829 
L 1984 2758 
L 1984 2560 
C 2432 2560 2483 2515 2483 2202 
L 2483 1062 
C 2483 506 2176 70 1709 70 
C 1171 70 1146 371 1146 704 
L 1146 2829 
L 205 2758 
L 205 2560 
C 704 2560 704 2541 704 1971 
L 704 1011 
C 704 512 704 -70 1677 -70 
C 2035 -70 2317 109 2502 506 
L 2502 -70 
L 3424 0 
z
" transform="scale(0.015625)"/>
      </defs>
      <use xlink:href="#LatinModernMath-Regular-53"/>
      <use xlink:href="#LatinModernMath-Regular-70" x="55.599991"/>
      <use xlink:href="#LatinModernMath-Regular-65" x="111.199982"/>
      <use xlink:href="#LatinModernMath-Regular-63" x="155.599976"/>
      <use xlink:href="#LatinModernMath-Regular-74" x="199.999969"/>
      <use xlink:href="#LatinModernMath-Regular-72" x="238.899963"/>
      <use xlink:href="#LatinModernMath-Regular-61" x="278.09996"/>
      <use xlink:href="#LatinModernMath-Regular-6c" x="328.099945"/>
      <use xlink:href="#LatinModernMath-Regular-20" x="355.899933"/>
      <use xlink:href="#LatinModernMath-Regular-64" x="389.09993"/>
      <use xlink:href="#LatinModernMath-Regular-65" x="444.699921"/>
      <use xlink:href="#LatinModernMath-Regular-6e" x="489.099915"/>
      <use xlink:href="#LatinModernMath-Regular-73" x="544.699905"/>
      <use xlink:href="#LatinModernMath-Regular-69" x="584.099899"/>
      <use xlink:href="#LatinModernMath-Regular-74" x="611.899887"/>
      <use xlink:href="#LatinModernMath-Regular-79" x="650.799881"/>
      <use xlink:href="#LatinModernMath-Regular-20" x="703.599869"/>
      <use xlink:href="#LatinModernMath-Regular-2f" x="736.799866"/>
      <use xlink:href="#LatinModernMath-Regular-20" x="786.79985"/>
      <use xlink:href="#LatinModernMath-Regular-61" x="819.999847"/>
      <use xlink:href="#LatinModernMath-Regular-2e" x="869.999832"/>
      <use xlink:href="#LatinModernMath-Regular-75" x="897.79982"/>
      <use xlink:href="#LatinModernMath-Regular-2e" x="953.399811"/>
     </g>
    </g>
   </g>
   <g id="line2d_125">
    <path d="M 54.93 295.732464 
L 83.09719 295.631718 
L 83.231503 295.430016 
L 83.308252 294.798168 
L 83.346627 293.253298 
L 83.385002 276.782853 
L 83.388247 -1 
M 83.420241 -1 
L 83.519314 295.095194 
L 83.672814 295.637315 
L 83.692002 295.654505 
L 83.711189 287.932387 
L 83.845501 134.794922 
L 84.018188 119.117607 
L 84.037376 119.016961 
L 84.075751 119.232969 
L 84.210063 122.565365 
L 85.74506 171.727871 
L 86.474183 185.134371 
L 87.241682 195.355812 
L 88.08593 203.703745 
L 89.006928 210.646528 
L 90.043051 216.783055 
L 91.194298 222.284888 
L 92.441483 227.184343 
L 93.74623 231.430626 
L 95.089352 235.064573 
L 96.509224 238.273831 
L 98.063409 241.235054 
L 99.809467 244.079562 
L 101.766588 246.843529 
L 103.838834 249.392262 
L 105.949454 251.642435 
L 108.1752 253.688879 
L 110.669569 255.672351 
L 113.624438 257.729977 
L 116.943869 259.771444 
L 120.263299 261.555646 
L 123.793792 263.196548 
L 128.149345 264.963533 
L 133.310772 266.819061 
L 138.203574 268.343772 
L 144.017374 269.905771 
L 151.558045 271.701055 
L 158.350406 273.088392 
L 168.13601 274.83262 
L 176.962242 276.194571 
L 189.74109 277.913359 
L 202.424 279.371419 
L 215.874409 280.731056 
L 233.603622 282.295119 
L 254.863327 283.914467 
L 276.871343 285.378573 
L 300.932417 286.78688 
L 341.801705 288.894263 
L 407.518753 292.148661 
L 416.632797 292.803467 
L 423.003033 293.476394 
L 425.363091 293.980117 
L 425.90034 294.330244 
L 426.322464 294.603767 
L 426.495151 295.732367 
L 438.66 295.732495 
L 438.66 295.732495 
" clip-path="url(#p76c2249678)" style="fill: none; stroke: #1f77b4; stroke-width: 2; stroke-linecap: square"/>
   </g>
   <g id="line2d_126">
    <path d="M 54.93 295.732459 
L 82.655879 295.6266 
L 82.809378 295.434202 
L 82.905316 294.818307 
L 82.962878 292.670226 
L 83.001253 280.19736 
L 83.039628 60.574157 
L 83.09719 292.376473 
L 83.25069 295.437681 
L 83.461752 295.657983 
L 83.692002 295.702828 
L 83.711189 292.051691 
L 83.864689 200.715853 
L 84.094938 177.188899 
L 84.325188 171.85646 
L 84.421125 171.534562 
L 84.4595 171.581563 
L 84.574625 172.150766 
L 84.843249 174.950213 
L 87.126557 202.631921 
L 88.047555 209.799058 
L 89.06449 215.998368 
L 90.19655 221.551975 
L 91.462923 226.661447 
L 92.786857 231.102119 
L 94.149167 234.912504 
L 95.549851 238.186582 
L 97.065661 241.165904 
L 98.754157 243.989055 
L 100.672903 246.759676 
L 102.764336 249.391033 
L 104.913332 251.740012 
L 107.119889 253.821335 
L 109.518322 255.773843 
L 112.338878 257.775698 
L 115.639121 259.842426 
L 119.016114 261.69888 
L 122.469857 263.342143 
L 126.556786 265.029989 
L 131.699025 266.907491 
L 136.668577 268.492661 
L 142.07944 269.974154 
L 149.581737 271.783556 
L 156.374098 273.203945 
L 165.296266 274.81278 
L 174.467872 276.26573 
L 186.440847 277.895952 
L 197.646323 279.21543 
L 212.91954 280.792271 
L 231.416251 282.424872 
L 253.385892 284.081754 
L 276.871343 285.617702 
L 301.220229 287.009903 
L 342.07033 289.067052 
L 406.463443 292.177354 
L 415.942048 292.817805 
L 423.156533 293.563265 
L 425.497403 294.093427 
L 426.322464 294.639924 
L 426.495151 295.732371 
L 438.66 295.732495 
L 438.66 295.732495 
" clip-path="url(#p76c2249678)" style="fill: none; stroke-dasharray: 7.4,3.2; stroke-dashoffset: 0; stroke: #ff7f0e; stroke-width: 2"/>
   </g>
   <g id="patch_5">
    <path d="M 54.93 295.7325 
L 54.93 20.10375 
" style="fill: none; stroke: #000000; stroke-width: 0.8; stroke-linejoin: miter; stroke-linecap: square"/>
   </g>
   <g id="patch_6">
    <path d="M 438.66 295.7325 
L 438.66 20.10375 
" style="fill: none; stroke: #000000; stroke-width: 0.8; stroke-linejoin: miter; stroke-linecap: square"/>
   </g>
   <g id="patch_7">
    <path d="M 54.93 295.7325 
L 438.66 295.7325 
" style="fill: none; stroke: #000000; stroke-width: 0.8; stroke-linejoin: miter; stroke-linecap: square"/>
   </g>
   <g id="patch_8">
    <path d="M 54.93 20.10375 
L 438.66 20.10375 
" style="fill: none; stroke: #000000; stroke-width: 0.8; stroke-linejoin: miter; stroke-linecap: square"/>
   </g>
   <g id="legend_1">
    <g id="patch_9">
     <path d="M 189.774531 89.854375 
L 303.815469 89.854375 
Q 306.615469 89.854375 306.615469 87.054375 
L 306.615469 29.90375 
Q 306.615469 27.10375 303.815469 27.10375 
L 189.774531 27.10375 
Q 186.974531 27.10375 186.974531 29.90375 
L 186.974531 87.054375 
Q 186.974531 89.854375 189.774531 89.854375 
z
" style="fill: #ffffff; opacity: 0.8; stroke: #cccccc; stroke-linejoin: miter"/>
    </g>
    <g id="line2d_127">
     <path d="M 192.574531 37.60375 
L 206.574531 37.60375 
L 220.574531 37.60375 
" style="fill: none; stroke: #1f77b4; stroke-width: 2; stroke-linecap: square"/>
    </g>
    <g id="text_18">
     <!-- CDW -->
     <g transform="translate(231.774531 42.50375) scale(0.14 -0.14)">
      <defs>
       <path id="LatinModernMath-Regular-43" d="M 4256 1491 
C 4256 1555 4256 1600 4173 1600 
C 4102 1600 4102 1562 4096 1498 
C 4045 582 3360 58 2662 58 
C 2272 58 1018 275 1018 2182 
C 1018 4096 2266 4314 2656 4314 
C 3354 4314 3923 3731 4051 2797 
C 4064 2707 4064 2688 4154 2688 
C 4256 2688 4256 2707 4256 2842 
L 4256 4358 
C 4256 4467 4256 4512 4186 4512 
C 4160 4512 4134 4512 4083 4435 
L 3763 3962 
C 3526 4192 3200 4512 2586 4512 
C 1389 4512 358 3494 358 2189 
C 358 864 1395 -141 2586 -141 
C 3629 -141 4256 749 4256 1491 
z
" transform="scale(0.015625)"/>
       <path id="LatinModernMath-Regular-44" d="M 4525 2150 
C 4525 3366 3661 4371 2566 4371 
L 224 4371 
L 224 4173 
L 378 4173 
C 870 4173 883 4102 883 3872 
L 883 499 
C 883 269 870 198 378 198 
L 224 198 
L 224 0 
L 2566 0 
C 3642 0 4525 947 4525 2150 
z
M 3885 2150 
C 3885 1440 3763 1056 3533 742 
C 3405 570 3040 198 2394 198 
L 1747 198 
C 1446 198 1434 243 1434 454 
L 1434 3917 
C 1434 4128 1446 4173 1747 4173 
L 2387 4173 
C 2784 4173 3226 4032 3552 3578 
C 3827 3200 3885 2650 3885 2150 
z
" transform="scale(0.015625)"/>
       <path id="LatinModernMath-Regular-57" d="M 6458 4173 
L 6458 4371 
C 6266 4358 6067 4352 5875 4352 
L 5114 4371 
L 5114 4173 
C 5542 4166 5670 3955 5670 3834 
C 5670 3795 5651 3744 5638 3706 
L 4678 749 
L 3654 3885 
C 3648 3910 3635 3949 3635 3981 
C 3635 4173 4006 4173 4173 4173 
L 4173 4371 
C 3942 4352 3507 4352 3264 4352 
L 2483 4371 
L 2483 4173 
C 2848 4173 2982 4173 3059 3942 
L 3200 3494 
L 2310 749 
L 1280 3898 
C 1274 3917 1267 3962 1267 3981 
C 1267 4173 1638 4173 1805 4173 
L 1805 4371 
C 1574 4352 1139 4352 896 4352 
L 115 4371 
L 115 4173 
C 595 4173 621 4141 698 3904 
L 1978 -19 
C 1997 -77 2016 -141 2099 -141 
C 2189 -141 2202 -96 2227 -13 
L 3283 3238 
L 4346 -19 
C 4365 -77 4384 -141 4467 -141 
C 4557 -141 4570 -96 4595 -13 
L 5818 3744 
C 5933 4109 6208 4173 6458 4173 
z
" transform="scale(0.015625)"/>
      </defs>
      <use xlink:href="#LatinModernMath-Regular-43"/>
      <use xlink:href="#LatinModernMath-Regular-44" x="72.199982"/>
      <use xlink:href="#LatinModernMath-Regular-57" x="148.599976"/>
     </g>
    </g>
    <g id="line2d_128">
     <path d="M 192.574531 57.120625 
L 206.574531 57.120625 
L 220.574531 57.120625 
" style="fill: none; stroke-dasharray: 7.4,3.2; stroke-dashoffset: 0; stroke: #ff7f0e; stroke-width: 2"/>
    </g>
    <g id="text_19">
     <!-- AFM -->
     <g transform="translate(231.774531 62.020625) scale(0.14 -0.14)">
      <defs>
       <path id="LatinModernMath-Regular-41" d="M 4589 0 
L 4589 198 
L 4474 198 
C 4090 198 4000 243 3930 454 
L 2547 4454 
C 2515 4538 2502 4582 2400 4582 
C 2298 4582 2278 4544 2246 4454 
L 922 627 
C 806 301 550 205 205 198 
L 205 0 
L 858 19 
L 1594 0 
L 1594 198 
C 1274 198 1114 358 1114 525 
C 1114 544 1120 608 1126 621 
L 1421 1459 
L 3002 1459 
L 3341 480 
C 3347 454 3360 416 3360 390 
C 3360 198 3002 198 2829 198 
L 2829 0 
C 3059 19 3507 19 3750 19 
L 4589 0 
z
M 2931 1658 
L 1491 1658 
L 2208 3738 
L 2931 1658 
z
" transform="scale(0.015625)"/>
       <path id="LatinModernMath-Regular-46" d="M 3904 2912 
L 3725 4352 
L 211 4352 
L 211 4154 
L 365 4154 
C 858 4154 870 4083 870 3853 
L 870 499 
C 870 269 858 198 365 198 
L 211 198 
L 211 0 
C 435 19 934 19 1184 19 
C 1446 19 2029 19 2259 0 
L 2259 198 
L 2048 198 
C 1440 198 1440 282 1440 506 
L 1440 2080 
L 1990 2080 
C 2605 2080 2669 1875 2669 1331 
L 2829 1331 
L 2829 3027 
L 2669 3027 
C 2669 2490 2605 2278 1990 2278 
L 1440 2278 
L 1440 3898 
C 1440 4109 1453 4154 1754 4154 
L 2522 4154 
C 3482 4154 3642 3795 3744 2912 
L 3904 2912 
z
" transform="scale(0.015625)"/>
       <path id="LatinModernMath-Regular-4d" d="M 5626 0 
L 5626 198 
L 5472 198 
C 4979 198 4966 269 4966 499 
L 4966 3872 
C 4966 4102 4979 4173 5472 4173 
L 5626 4173 
L 5626 4371 
L 4544 4371 
C 4378 4371 4378 4365 4333 4250 
L 2931 646 
L 1542 4230 
C 1485 4371 1466 4371 1318 4371 
L 237 4371 
L 237 4173 
L 390 4173 
C 883 4173 896 4102 896 3872 
L 896 672 
C 896 499 896 198 237 198 
L 237 0 
L 986 19 
L 1734 0 
L 1734 198 
C 1075 198 1075 499 1075 672 
L 1075 4122 
L 1082 4122 
L 2624 141 
C 2656 58 2688 0 2752 0 
C 2822 0 2842 51 2867 122 
L 4442 4173 
L 4448 4173 
L 4448 499 
C 4448 269 4435 198 3942 198 
L 3789 198 
L 3789 0 
C 4026 19 4461 19 4710 19 
C 4960 19 5389 19 5626 0 
z
" transform="scale(0.015625)"/>
      </defs>
      <use xlink:href="#LatinModernMath-Regular-41"/>
      <use xlink:href="#LatinModernMath-Regular-46" x="74.999985"/>
      <use xlink:href="#LatinModernMath-Regular-4d" x="140.299973"/>
     </g>
    </g>
    <g id="patch_10">
     <path d="M 192.574531 81.5375 
L 220.574531 81.5375 
L 220.574531 71.7375 
L 192.574531 71.7375 
z
" style="fill: #800080; opacity: 0.2; stroke: #800080; stroke-linejoin: miter"/>
    </g>
    <g id="text_20">
     <!-- Continuum -->
     <g transform="translate(231.774531 81.5375) scale(0.14 -0.14)">
      <defs>
       <path id="LatinModernMath-Regular-6f" d="M 3014 1370 
C 3014 2189 2374 2867 1600 2867 
C 800 2867 179 2170 179 1370 
C 179 544 845 -70 1594 -70 
C 2368 -70 3014 557 3014 1370 
z
M 2483 1421 
C 2483 1190 2483 845 2342 563 
C 2202 275 1920 90 1600 90 
C 1325 90 1043 224 870 518 
C 710 800 710 1190 710 1421 
C 710 1670 710 2016 864 2298 
C 1037 2592 1338 2726 1594 2726 
C 1875 2726 2150 2586 2317 2310 
C 2483 2035 2483 1664 2483 1421 
z
" transform="scale(0.015625)"/>
       <path id="LatinModernMath-Regular-6d" d="M 5203 0 
L 5203 198 
C 4870 198 4710 198 4704 390 
L 4704 1613 
C 4704 2163 4704 2362 4506 2592 
C 4416 2701 4205 2829 3834 2829 
C 3296 2829 3014 2445 2906 2202 
C 2816 2758 2342 2829 2054 2829 
C 1587 2829 1286 2554 1107 2157 
L 1107 2829 
L 205 2758 
L 205 2560 
C 653 2560 704 2515 704 2202 
L 704 486 
C 704 198 634 198 205 198 
L 205 0 
L 928 19 
L 1645 0 
L 1645 198 
C 1216 198 1146 198 1146 486 
L 1146 1664 
C 1146 2330 1600 2688 2010 2688 
C 2413 2688 2483 2342 2483 1978 
L 2483 486 
C 2483 198 2413 198 1984 198 
L 1984 0 
L 2707 19 
L 3424 0 
L 3424 198 
C 2995 198 2925 198 2925 486 
L 2925 1664 
C 2925 2330 3379 2688 3789 2688 
C 4192 2688 4262 2342 4262 1978 
L 4262 486 
C 4262 198 4192 198 3763 198 
L 3763 0 
L 4486 19 
L 5203 0 
z
" transform="scale(0.015625)"/>
      </defs>
      <use xlink:href="#LatinModernMath-Regular-43"/>
      <use xlink:href="#LatinModernMath-Regular-6f" x="72.199982"/>
      <use xlink:href="#LatinModernMath-Regular-6e" x="122.199966"/>
      <use xlink:href="#LatinModernMath-Regular-74" x="177.799957"/>
      <use xlink:href="#LatinModernMath-Regular-69" x="216.699951"/>
      <use xlink:href="#LatinModernMath-Regular-6e" x="244.499939"/>
      <use xlink:href="#LatinModernMath-Regular-75" x="300.09993"/>
      <use xlink:href="#LatinModernMath-Regular-75" x="355.699921"/>
      <use xlink:href="#LatinModernMath-Regular-6d" x="411.299911"/>
     </g>
    </g>
   </g>
  </g>
  <g id="axes_2">
   <g id="patch_11">
    <path d="M 239.795 199.262437 
L 431.66 199.262437 
L 431.66 116.573813 
L 239.795 116.573813 
z
" style="fill: #ffffff"/>
   </g>
   <g id="patch_12">
    <path d="M 239.795 116.573813 
L 81.311438 20.10375 
" style="fill: none; stroke: #808080; stroke-linejoin: miter"/>
   </g>
   <g id="patch_13">
    <path d="M 431.66 199.262437 
L 86.108063 295.7325 
" style="fill: none; stroke: #808080; stroke-linejoin: miter"/>
   </g>
   <g id="patch_14">
    <path d="M 335.77893 199.262437 
L 335.77893 116.573813 
L 14041.313941 116.573813 
L 14041.313941 199.262437 
z
" clip-path="url(#pc13bf770f2)" style="fill: #800080; opacity: 0.2; stroke: #800080; stroke-linejoin: miter"/>
   </g>
   <g id="matplotlib.axis_3">
    <g id="xtick_42">
     <g id="line2d_129">
      <g>
       <use xlink:href="#m060255ed29" x="239.795" y="199.262437" style="stroke: #000000; stroke-width: 0.8"/>
      </g>
     </g>
     <g id="line2d_130">
      <g>
       <use xlink:href="#m4b40bb3b47" x="239.795" y="116.573813" style="stroke: #000000; stroke-width: 0.8"/>
      </g>
     </g>
    </g>
    <g id="xtick_43">
     <g id="line2d_131">
      <g>
       <use xlink:href="#m060255ed29" x="335.7275" y="199.262437" style="stroke: #000000; stroke-width: 0.8"/>
      </g>
     </g>
     <g id="line2d_132">
      <g>
       <use xlink:href="#m4b40bb3b47" x="335.7275" y="116.573813" style="stroke: #000000; stroke-width: 0.8"/>
      </g>
     </g>
    </g>
    <g id="xtick_44">
     <g id="line2d_133">
      <g>
       <use xlink:href="#m060255ed29" x="431.66" y="199.262437" style="stroke: #000000; stroke-width: 0.8"/>
      </g>
     </g>
     <g id="line2d_134">
      <g>
       <use xlink:href="#m4b40bb3b47" x="431.66" y="116.573813" style="stroke: #000000; stroke-width: 0.8"/>
      </g>
     </g>
    </g>
    <g id="xtick_45">
     <g id="line2d_135">
      <g>
       <use xlink:href="#m1297a6d319" x="258.9815" y="199.262437" style="stroke: #000000; stroke-width: 0.6"/>
      </g>
     </g>
     <g id="line2d_136">
      <g>
       <use xlink:href="#m46bfbe0aad" x="258.9815" y="116.573813" style="stroke: #000000; stroke-width: 0.6"/>
      </g>
     </g>
    </g>
    <g id="xtick_46">
     <g id="line2d_137">
      <g>
       <use xlink:href="#m1297a6d319" x="278.168" y="199.262437" style="stroke: #000000; stroke-width: 0.6"/>
      </g>
     </g>
     <g id="line2d_138">
      <g>
       <use xlink:href="#m46bfbe0aad" x="278.168" y="116.573813" style="stroke: #000000; stroke-width: 0.6"/>
      </g>
     </g>
    </g>
    <g id="xtick_47">
     <g id="line2d_139">
      <g>
       <use xlink:href="#m1297a6d319" x="297.3545" y="199.262437" style="stroke: #000000; stroke-width: 0.6"/>
      </g>
     </g>
     <g id="line2d_140">
      <g>
       <use xlink:href="#m46bfbe0aad" x="297.3545" y="116.573813" style="stroke: #000000; stroke-width: 0.6"/>
      </g>
     </g>
    </g>
    <g id="xtick_48">
     <g id="line2d_141">
      <g>
       <use xlink:href="#m1297a6d319" x="316.541" y="199.262437" style="stroke: #000000; stroke-width: 0.6"/>
      </g>
     </g>
     <g id="line2d_142">
      <g>
       <use xlink:href="#m46bfbe0aad" x="316.541" y="116.573813" style="stroke: #000000; stroke-width: 0.6"/>
      </g>
     </g>
    </g>
    <g id="xtick_49">
     <g id="line2d_143">
      <g>
       <use xlink:href="#m1297a6d319" x="354.914" y="199.262437" style="stroke: #000000; stroke-width: 0.6"/>
      </g>
     </g>
     <g id="line2d_144">
      <g>
       <use xlink:href="#m46bfbe0aad" x="354.914" y="116.573813" style="stroke: #000000; stroke-width: 0.6"/>
      </g>
     </g>
    </g>
    <g id="xtick_50">
     <g id="line2d_145">
      <g>
       <use xlink:href="#m1297a6d319" x="374.1005" y="199.262437" style="stroke: #000000; stroke-width: 0.6"/>
      </g>
     </g>
     <g id="line2d_146">
      <g>
       <use xlink:href="#m46bfbe0aad" x="374.1005" y="116.573813" style="stroke: #000000; stroke-width: 0.6"/>
      </g>
     </g>
    </g>
    <g id="xtick_51">
     <g id="line2d_147">
      <g>
       <use xlink:href="#m1297a6d319" x="393.287" y="199.262437" style="stroke: #000000; stroke-width: 0.6"/>
      </g>
     </g>
     <g id="line2d_148">
      <g>
       <use xlink:href="#m46bfbe0aad" x="393.287" y="116.573813" style="stroke: #000000; stroke-width: 0.6"/>
      </g>
     </g>
    </g>
    <g id="xtick_52">
     <g id="line2d_149">
      <g>
       <use xlink:href="#m1297a6d319" x="412.4735" y="199.262437" style="stroke: #000000; stroke-width: 0.6"/>
      </g>
     </g>
     <g id="line2d_150">
      <g>
       <use xlink:href="#m46bfbe0aad" x="412.4735" y="116.573813" style="stroke: #000000; stroke-width: 0.6"/>
      </g>
     </g>
    </g>
   </g>
   <g id="matplotlib.axis_4">
    <g id="ytick_22">
     <g id="line2d_151">
      <g>
       <use xlink:href="#m33b0639a74" x="239.795" y="199.262437" style="stroke: #000000; stroke-width: 0.8"/>
      </g>
     </g>
     <g id="line2d_152">
      <g>
       <use xlink:href="#mea0f15db16" x="431.66" y="199.262437" style="stroke: #000000; stroke-width: 0.8"/>
      </g>
     </g>
    </g>
    <g id="ytick_23">
     <g id="line2d_153">
      <g>
       <use xlink:href="#m33b0639a74" x="239.795" y="157.918125" style="stroke: #000000; stroke-width: 0.8"/>
      </g>
     </g>
     <g id="line2d_154">
      <g>
       <use xlink:href="#mea0f15db16" x="431.66" y="157.918125" style="stroke: #000000; stroke-width: 0.8"/>
      </g>
     </g>
    </g>
    <g id="ytick_24">
     <g id="line2d_155">
      <g>
       <use xlink:href="#m33b0639a74" x="239.795" y="116.573813" style="stroke: #000000; stroke-width: 0.8"/>
      </g>
     </g>
     <g id="line2d_156">
      <g>
       <use xlink:href="#mea0f15db16" x="431.66" y="116.573813" style="stroke: #000000; stroke-width: 0.8"/>
      </g>
     </g>
    </g>
    <g id="ytick_25">
     <g id="line2d_157">
      <g>
       <use xlink:href="#m74ae7f58e2" x="239.795" y="190.993575" style="stroke: #000000; stroke-width: 0.6"/>
      </g>
     </g>
     <g id="line2d_158">
      <g>
       <use xlink:href="#mf245ac99ad" x="431.66" y="190.993575" style="stroke: #000000; stroke-width: 0.6"/>
      </g>
     </g>
    </g>
    <g id="ytick_26">
     <g id="line2d_159">
      <g>
       <use xlink:href="#m74ae7f58e2" x="239.795" y="182.724712" style="stroke: #000000; stroke-width: 0.6"/>
      </g>
     </g>
     <g id="line2d_160">
      <g>
       <use xlink:href="#mf245ac99ad" x="431.66" y="182.724712" style="stroke: #000000; stroke-width: 0.6"/>
      </g>
     </g>
    </g>
    <g id="ytick_27">
     <g id="line2d_161">
      <g>
       <use xlink:href="#m74ae7f58e2" x="239.795" y="174.45585" style="stroke: #000000; stroke-width: 0.6"/>
      </g>
     </g>
     <g id="line2d_162">
      <g>
       <use xlink:href="#mf245ac99ad" x="431.66" y="174.45585" style="stroke: #000000; stroke-width: 0.6"/>
      </g>
     </g>
    </g>
    <g id="ytick_28">
     <g id="line2d_163">
      <g>
       <use xlink:href="#m74ae7f58e2" x="239.795" y="166.186987" style="stroke: #000000; stroke-width: 0.6"/>
      </g>
     </g>
     <g id="line2d_164">
      <g>
       <use xlink:href="#mf245ac99ad" x="431.66" y="166.186987" style="stroke: #000000; stroke-width: 0.6"/>
      </g>
     </g>
    </g>
    <g id="ytick_29">
     <g id="line2d_165">
      <g>
       <use xlink:href="#m74ae7f58e2" x="239.795" y="149.649262" style="stroke: #000000; stroke-width: 0.6"/>
      </g>
     </g>
     <g id="line2d_166">
      <g>
       <use xlink:href="#mf245ac99ad" x="431.66" y="149.649262" style="stroke: #000000; stroke-width: 0.6"/>
      </g>
     </g>
    </g>
    <g id="ytick_30">
     <g id="line2d_167">
      <g>
       <use xlink:href="#m74ae7f58e2" x="239.795" y="141.3804" style="stroke: #000000; stroke-width: 0.6"/>
      </g>
     </g>
     <g id="line2d_168">
      <g>
       <use xlink:href="#mf245ac99ad" x="431.66" y="141.3804" style="stroke: #000000; stroke-width: 0.6"/>
      </g>
     </g>
    </g>
    <g id="ytick_31">
     <g id="line2d_169">
      <g>
       <use xlink:href="#m74ae7f58e2" x="239.795" y="133.111537" style="stroke: #000000; stroke-width: 0.6"/>
      </g>
     </g>
     <g id="line2d_170">
      <g>
       <use xlink:href="#mf245ac99ad" x="431.66" y="133.111537" style="stroke: #000000; stroke-width: 0.6"/>
      </g>
     </g>
    </g>
    <g id="ytick_32">
     <g id="line2d_171">
      <g>
       <use xlink:href="#m74ae7f58e2" x="239.795" y="124.842675" style="stroke: #000000; stroke-width: 0.6"/>
      </g>
     </g>
     <g id="line2d_172">
      <g>
       <use xlink:href="#mf245ac99ad" x="431.66" y="124.842675" style="stroke: #000000; stroke-width: 0.6"/>
      </g>
     </g>
    </g>
   </g>
   <g id="line2d_173">
    <path d="M 239.080267 199.261573 
L 316.597603 199.171692 
L 319.667597 198.982138 
L 320.435095 198.832695 
L 321.202593 198.518677 
L 321.970092 197.663857 
L 322.73759 193.577543 
L 323.040603 -1 
M 323.972725 -1 
L 324.272587 190.256774 
L 325.040085 197.305895 
L 325.807584 198.436965 
L 326.575082 198.812528 
L 328.110079 199.071246 
L 331.180072 199.198954 
L 335.017564 199.239039 
L 335.785062 196.922403 
L 336.552561 174.660405 
L 337.320059 166.434225 
L 338.087558 161.154015 
L 338.855056 157.423253 
L 339.622554 154.667876 
L 340.390053 152.582283 
L 341.157551 150.981164 
L 341.925049 149.74291 
L 342.692548 148.783355 
L 343.460046 148.041969 
L 344.227545 147.473938 
L 345.762541 146.729914 
L 347.297538 146.360918 
L 348.832535 146.247776 
L 351.13503 146.394555 
L 353.437525 146.781663 
L 357.275017 147.715704 
L 363.415004 149.509671 
L 375.694978 153.124263 
L 384.13746 155.359133 
L 392.579942 157.36052 
L 401.789923 159.301131 
L 411.767401 161.15557 
L 422.512379 162.908581 
L 431.722359 164.240723 
L 431.722359 164.240723 
" clip-path="url(#pc13bf770f2)" style="fill: none; stroke: #1f77b4; stroke-width: 2; stroke-linecap: square"/>
   </g>
   <g id="line2d_174">
    <path d="M 239.080267 199.260781 
L 300.480137 199.155444 
L 303.550131 198.98818 
L 305.085127 198.699295 
L 305.852626 198.343755 
L 306.620124 197.501299 
L 307.387623 194.601896 
L 308.155121 165.598789 
L 308.922619 128.714935 
L 309.690118 193.342977 
L 310.457616 197.242066 
L 311.225114 198.255629 
L 311.992613 198.661758 
L 313.52761 198.979295 
L 316.597603 199.155962 
L 324.272587 199.235348 
L 335.017564 199.253536 
L 335.785062 198.158195 
L 336.552561 187.269435 
L 337.320059 182.77626 
L 338.087558 179.59432 
L 338.855056 177.117606 
L 339.622554 175.102164 
L 341.157551 171.988043 
L 342.692548 169.689374 
L 344.227545 167.936145 
L 345.762541 166.573036 
L 347.297538 165.501103 
L 348.832535 164.653031 
L 351.13503 163.699357 
L 353.437525 163.031626 
L 355.74002 162.574728 
L 358.810014 162.205596 
L 362.647506 162.016615 
L 367.252496 162.054863 
L 372.624984 162.327729 
L 380.299968 162.95558 
L 393.34744 164.288955 
L 423.279877 167.385788 
L 431.722359 168.171359 
L 431.722359 168.171359 
" clip-path="url(#pc13bf770f2)" style="fill: none; stroke: #ff7f0e; stroke-width: 2; stroke-linecap: square"/>
   </g>
   <g id="patch_15">
    <path d="M 239.795 199.262437 
L 239.795 116.573813 
" style="fill: none; stroke: #000000; stroke-width: 0.8; stroke-linejoin: miter; stroke-linecap: square"/>
   </g>
   <g id="patch_16">
    <path d="M 431.66 199.262437 
L 431.66 116.573813 
" style="fill: none; stroke: #000000; stroke-width: 0.8; stroke-linejoin: miter; stroke-linecap: square"/>
   </g>
   <g id="patch_17">
    <path d="M 239.795 199.262437 
L 431.66 199.262437 
" style="fill: none; stroke: #000000; stroke-width: 0.8; stroke-linejoin: miter; stroke-linecap: square"/>
   </g>
   <g id="patch_18">
    <path d="M 239.795 116.573813 
L 431.66 116.573813 
" style="fill: none; stroke: #000000; stroke-width: 0.8; stroke-linejoin: miter; stroke-linecap: square"/>
   </g>
  </g>
 </g>
 <defs>
  <clipPath id="p76c2249678">
   <rect x="54.93" y="20.10375" width="383.73" height="275.62875"/>
  </clipPath>
  <clipPath id="pc13bf770f2">
   <rect x="239.795" y="116.573813" width="191.865" height="82.688625"/>
  </clipPath>
 </defs>
</svg>
