<?xml version="1.0" encoding="utf-8" standalone="no"?>
<!DOCTYPE svg PUBLIC "-//W3C//DTD SVG 1.1//EN"
  "http://www.w3.org/Graphics/SVG/1.1/DTD/svg11.dtd">
<svg xmlns:xlink="http://www.w3.org/1999/xlink" width="460.8pt" height="345.6pt" viewBox="0 0 460.8 345.6" xmlns="http://www.w3.org/2000/svg" version="1.1">
 <metadata>
  <rdf:RDF xmlns:dc="http://purl.org/dc/elements/1.1/" xmlns:cc="http://creativecommons.org/ns#" xmlns:rdf="http://www.w3.org/1999/02/22-rdf-syntax-ns#">
   <cc:Work>
    <dc:type rdf:resource="http://purl.org/dc/dcmitype/StillImage"/>
    <dc:date>2023-11-03T13:14:30.846011</dc:date>
    <dc:format>image/svg+xml</dc:format>
    <dc:creator>
     <cc:Agent>
      <dc:title>Matplotlib v3.7.0, https://matplotlib.org/</dc:title>
     </cc:Agent>
    </dc:creator>
   </cc:Work>
  </rdf:RDF>
 </metadata>
 <defs>
  <style type="text/css">*{stroke-linejoin: round; stroke-linecap: butt}</style>
 </defs>
 <g id="figure_1">
  <g id="patch_1">
   <path d="M 0 345.6 
L 460.8 345.6 
L 460.8 0 
L 0 0 
z
" style="fill: #ffffff"/>
  </g>
  <g id="axes_1">
   <g id="patch_2">
    <path d="M 67.98 148.6425 
L 438.492921 148.6425 
L 438.492921 15.12 
L 67.98 15.12 
z
" style="fill: #ffffff"/>
   </g>
   <g id="matplotlib.axis_1">
    <g id="xtick_1">
     <g id="line2d_1">
      <defs>
       <path id="mdb3c34ee53" d="M 0 0 
L 0 -3.5 
" style="stroke: #000000; stroke-width: 0.8"/>
      </defs>
      <g>
       <use xlink:href="#mdb3c34ee53" x="69.814222" y="148.6425" style="stroke: #000000; stroke-width: 0.8"/>
      </g>
     </g>
     <g id="line2d_2">
      <defs>
       <path id="m922a10234a" d="M 0 0 
L 0 3.5 
" style="stroke: #000000; stroke-width: 0.8"/>
      </defs>
      <g>
       <use xlink:href="#m922a10234a" x="69.814222" y="15.12" style="stroke: #000000; stroke-width: 0.8"/>
      </g>
     </g>
    </g>
    <g id="xtick_2">
     <g id="line2d_3">
      <g>
       <use xlink:href="#mdb3c34ee53" x="161.525341" y="148.6425" style="stroke: #000000; stroke-width: 0.8"/>
      </g>
     </g>
     <g id="line2d_4">
      <g>
       <use xlink:href="#m922a10234a" x="161.525341" y="15.12" style="stroke: #000000; stroke-width: 0.8"/>
      </g>
     </g>
    </g>
    <g id="xtick_3">
     <g id="line2d_5">
      <g>
       <use xlink:href="#mdb3c34ee53" x="253.23646" y="148.6425" style="stroke: #000000; stroke-width: 0.8"/>
      </g>
     </g>
     <g id="line2d_6">
      <g>
       <use xlink:href="#m922a10234a" x="253.23646" y="15.12" style="stroke: #000000; stroke-width: 0.8"/>
      </g>
     </g>
    </g>
    <g id="xtick_4">
     <g id="line2d_7">
      <g>
       <use xlink:href="#mdb3c34ee53" x="344.947579" y="148.6425" style="stroke: #000000; stroke-width: 0.8"/>
      </g>
     </g>
     <g id="line2d_8">
      <g>
       <use xlink:href="#m922a10234a" x="344.947579" y="15.12" style="stroke: #000000; stroke-width: 0.8"/>
      </g>
     </g>
    </g>
    <g id="xtick_5">
     <g id="line2d_9">
      <g>
       <use xlink:href="#mdb3c34ee53" x="436.658698" y="148.6425" style="stroke: #000000; stroke-width: 0.8"/>
      </g>
     </g>
     <g id="line2d_10">
      <g>
       <use xlink:href="#m922a10234a" x="436.658698" y="15.12" style="stroke: #000000; stroke-width: 0.8"/>
      </g>
     </g>
    </g>
    <g id="xtick_6">
     <g id="line2d_11">
      <defs>
       <path id="m9bc16487e0" d="M 0 0 
L 0 -2 
" style="stroke: #000000; stroke-width: 0.6"/>
      </defs>
      <g>
       <use xlink:href="#m9bc16487e0" x="88.156446" y="148.6425" style="stroke: #000000; stroke-width: 0.6"/>
      </g>
     </g>
     <g id="line2d_12">
      <defs>
       <path id="m14acf216d1" d="M 0 0 
L 0 2 
" style="stroke: #000000; stroke-width: 0.6"/>
      </defs>
      <g>
       <use xlink:href="#m14acf216d1" x="88.156446" y="15.12" style="stroke: #000000; stroke-width: 0.6"/>
      </g>
     </g>
    </g>
    <g id="xtick_7">
     <g id="line2d_13">
      <g>
       <use xlink:href="#m9bc16487e0" x="106.49867" y="148.6425" style="stroke: #000000; stroke-width: 0.6"/>
      </g>
     </g>
     <g id="line2d_14">
      <g>
       <use xlink:href="#m14acf216d1" x="106.49867" y="15.12" style="stroke: #000000; stroke-width: 0.6"/>
      </g>
     </g>
    </g>
    <g id="xtick_8">
     <g id="line2d_15">
      <g>
       <use xlink:href="#m9bc16487e0" x="124.840894" y="148.6425" style="stroke: #000000; stroke-width: 0.6"/>
      </g>
     </g>
     <g id="line2d_16">
      <g>
       <use xlink:href="#m14acf216d1" x="124.840894" y="15.12" style="stroke: #000000; stroke-width: 0.6"/>
      </g>
     </g>
    </g>
    <g id="xtick_9">
     <g id="line2d_17">
      <g>
       <use xlink:href="#m9bc16487e0" x="143.183118" y="148.6425" style="stroke: #000000; stroke-width: 0.6"/>
      </g>
     </g>
     <g id="line2d_18">
      <g>
       <use xlink:href="#m14acf216d1" x="143.183118" y="15.12" style="stroke: #000000; stroke-width: 0.6"/>
      </g>
     </g>
    </g>
    <g id="xtick_10">
     <g id="line2d_19">
      <g>
       <use xlink:href="#m9bc16487e0" x="179.867565" y="148.6425" style="stroke: #000000; stroke-width: 0.6"/>
      </g>
     </g>
     <g id="line2d_20">
      <g>
       <use xlink:href="#m14acf216d1" x="179.867565" y="15.12" style="stroke: #000000; stroke-width: 0.6"/>
      </g>
     </g>
    </g>
    <g id="xtick_11">
     <g id="line2d_21">
      <g>
       <use xlink:href="#m9bc16487e0" x="198.209789" y="148.6425" style="stroke: #000000; stroke-width: 0.6"/>
      </g>
     </g>
     <g id="line2d_22">
      <g>
       <use xlink:href="#m14acf216d1" x="198.209789" y="15.12" style="stroke: #000000; stroke-width: 0.6"/>
      </g>
     </g>
    </g>
    <g id="xtick_12">
     <g id="line2d_23">
      <g>
       <use xlink:href="#m9bc16487e0" x="216.552013" y="148.6425" style="stroke: #000000; stroke-width: 0.6"/>
      </g>
     </g>
     <g id="line2d_24">
      <g>
       <use xlink:href="#m14acf216d1" x="216.552013" y="15.12" style="stroke: #000000; stroke-width: 0.6"/>
      </g>
     </g>
    </g>
    <g id="xtick_13">
     <g id="line2d_25">
      <g>
       <use xlink:href="#m9bc16487e0" x="234.894237" y="148.6425" style="stroke: #000000; stroke-width: 0.6"/>
      </g>
     </g>
     <g id="line2d_26">
      <g>
       <use xlink:href="#m14acf216d1" x="234.894237" y="15.12" style="stroke: #000000; stroke-width: 0.6"/>
      </g>
     </g>
    </g>
    <g id="xtick_14">
     <g id="line2d_27">
      <g>
       <use xlink:href="#m9bc16487e0" x="271.578684" y="148.6425" style="stroke: #000000; stroke-width: 0.6"/>
      </g>
     </g>
     <g id="line2d_28">
      <g>
       <use xlink:href="#m14acf216d1" x="271.578684" y="15.12" style="stroke: #000000; stroke-width: 0.6"/>
      </g>
     </g>
    </g>
    <g id="xtick_15">
     <g id="line2d_29">
      <g>
       <use xlink:href="#m9bc16487e0" x="289.920908" y="148.6425" style="stroke: #000000; stroke-width: 0.6"/>
      </g>
     </g>
     <g id="line2d_30">
      <g>
       <use xlink:href="#m14acf216d1" x="289.920908" y="15.12" style="stroke: #000000; stroke-width: 0.6"/>
      </g>
     </g>
    </g>
    <g id="xtick_16">
     <g id="line2d_31">
      <g>
       <use xlink:href="#m9bc16487e0" x="308.263132" y="148.6425" style="stroke: #000000; stroke-width: 0.6"/>
      </g>
     </g>
     <g id="line2d_32">
      <g>
       <use xlink:href="#m14acf216d1" x="308.263132" y="15.12" style="stroke: #000000; stroke-width: 0.6"/>
      </g>
     </g>
    </g>
    <g id="xtick_17">
     <g id="line2d_33">
      <g>
       <use xlink:href="#m9bc16487e0" x="326.605356" y="148.6425" style="stroke: #000000; stroke-width: 0.6"/>
      </g>
     </g>
     <g id="line2d_34">
      <g>
       <use xlink:href="#m14acf216d1" x="326.605356" y="15.12" style="stroke: #000000; stroke-width: 0.6"/>
      </g>
     </g>
    </g>
    <g id="xtick_18">
     <g id="line2d_35">
      <g>
       <use xlink:href="#m9bc16487e0" x="363.289803" y="148.6425" style="stroke: #000000; stroke-width: 0.6"/>
      </g>
     </g>
     <g id="line2d_36">
      <g>
       <use xlink:href="#m14acf216d1" x="363.289803" y="15.12" style="stroke: #000000; stroke-width: 0.6"/>
      </g>
     </g>
    </g>
    <g id="xtick_19">
     <g id="line2d_37">
      <g>
       <use xlink:href="#m9bc16487e0" x="381.632027" y="148.6425" style="stroke: #000000; stroke-width: 0.6"/>
      </g>
     </g>
     <g id="line2d_38">
      <g>
       <use xlink:href="#m14acf216d1" x="381.632027" y="15.12" style="stroke: #000000; stroke-width: 0.6"/>
      </g>
     </g>
    </g>
    <g id="xtick_20">
     <g id="line2d_39">
      <g>
       <use xlink:href="#m9bc16487e0" x="399.974251" y="148.6425" style="stroke: #000000; stroke-width: 0.6"/>
      </g>
     </g>
     <g id="line2d_40">
      <g>
       <use xlink:href="#m14acf216d1" x="399.974251" y="15.12" style="stroke: #000000; stroke-width: 0.6"/>
      </g>
     </g>
    </g>
    <g id="xtick_21">
     <g id="line2d_41">
      <g>
       <use xlink:href="#m9bc16487e0" x="418.316475" y="148.6425" style="stroke: #000000; stroke-width: 0.6"/>
      </g>
     </g>
     <g id="line2d_42">
      <g>
       <use xlink:href="#m14acf216d1" x="418.316475" y="15.12" style="stroke: #000000; stroke-width: 0.6"/>
      </g>
     </g>
    </g>
   </g>
   <g id="matplotlib.axis_2">
    <g id="ytick_1">
     <g id="line2d_43">
      <defs>
       <path id="m4a48dde3e5" d="M 0 0 
L 3.5 0 
" style="stroke: #000000; stroke-width: 0.8"/>
      </defs>
      <g>
       <use xlink:href="#m4a48dde3e5" x="67.98" y="133.553861" style="stroke: #000000; stroke-width: 0.8"/>
      </g>
     </g>
     <g id="line2d_44">
      <defs>
       <path id="mdca079a2a7" d="M 0 0 
L -3.5 0 
" style="stroke: #000000; stroke-width: 0.8"/>
      </defs>
      <g>
       <use xlink:href="#mdca079a2a7" x="438.492921" y="133.553861" style="stroke: #000000; stroke-width: 0.8"/>
      </g>
     </g>
     <g id="text_1">
      <!-- 1.4 -->
      <g transform="translate(46.588438 138.412298) scale(0.14 -0.14)">
       <defs>
        <path id="LatinModernMath-Regular-31" d="M 2682 0 
L 2682 198 
L 2477 198 
C 1901 198 1882 269 1882 506 
L 1882 4096 
C 1882 4250 1882 4262 1734 4262 
C 1338 3853 774 3853 570 3853 
L 570 3654 
C 698 3654 1075 3654 1408 3821 
L 1408 506 
C 1408 275 1389 198 813 198 
L 608 198 
L 608 0 
C 832 19 1389 19 1645 19 
C 1901 19 2458 19 2682 0 
z
" transform="scale(0.015625)"/>
        <path id="LatinModernMath-Regular-2e" d="M 1229 339 
C 1229 525 1075 678 890 678 
C 704 678 550 525 550 339 
C 550 154 704 0 890 0 
C 1075 0 1229 154 1229 339 
z
" transform="scale(0.015625)"/>
        <path id="LatinModernMath-Regular-34" d="M 3014 1056 
L 3014 1254 
L 2374 1254 
L 2374 4166 
C 2374 4294 2374 4333 2272 4333 
C 2214 4333 2195 4333 2144 4256 
L 179 1254 
L 179 1056 
L 1882 1056 
L 1882 499 
C 1882 269 1869 198 1395 198 
L 1261 198 
L 1261 0 
C 1523 19 1856 19 2125 19 
C 2394 19 2733 19 2995 0 
L 2995 198 
L 2861 198 
C 2387 198 2374 269 2374 499 
L 2374 1056 
L 3014 1056 
z
M 1920 1254 
L 358 1254 
L 1920 3642 
L 1920 1254 
z
" transform="scale(0.015625)"/>
       </defs>
       <use xlink:href="#LatinModernMath-Regular-31"/>
       <use xlink:href="#LatinModernMath-Regular-2e" x="49.999985"/>
       <use xlink:href="#LatinModernMath-Regular-34" x="77.799973"/>
      </g>
     </g>
    </g>
    <g id="ytick_2">
     <g id="line2d_45">
      <g>
       <use xlink:href="#m4a48dde3e5" x="67.98" y="67.766591" style="stroke: #000000; stroke-width: 0.8"/>
      </g>
     </g>
     <g id="line2d_46">
      <g>
       <use xlink:href="#mdca079a2a7" x="438.492921" y="67.766591" style="stroke: #000000; stroke-width: 0.8"/>
      </g>
     </g>
     <g id="text_2">
      <!-- 1.5 -->
      <g transform="translate(46.588438 72.625029) scale(0.14 -0.14)">
       <defs>
        <path id="LatinModernMath-Regular-35" d="M 2874 1286 
C 2874 2048 2349 2688 1658 2688 
C 1350 2688 1075 2586 845 2362 
L 845 3610 
C 973 3571 1184 3526 1389 3526 
C 2176 3526 2624 4109 2624 4192 
C 2624 4230 2605 4262 2560 4262 
C 2560 4262 2541 4262 2509 4243 
C 2381 4186 2067 4058 1638 4058 
C 1382 4058 1088 4102 787 4237 
C 736 4256 710 4256 710 4256 
C 646 4256 646 4205 646 4102 
L 646 2208 
C 646 2093 646 2042 736 2042 
C 781 2042 794 2061 819 2099 
C 890 2202 1126 2547 1645 2547 
C 1978 2547 2138 2253 2189 2138 
C 2291 1901 2304 1651 2304 1331 
C 2304 1107 2304 723 2150 454 
C 1997 205 1760 38 1466 38 
C 998 38 634 378 525 755 
C 544 749 563 742 634 742 
C 845 742 954 902 954 1056 
C 954 1210 845 1370 634 1370 
C 544 1370 320 1325 320 1030 
C 320 480 762 -141 1478 -141 
C 2221 -141 2874 474 2874 1286 
z
" transform="scale(0.015625)"/>
       </defs>
       <use xlink:href="#LatinModernMath-Regular-31"/>
       <use xlink:href="#LatinModernMath-Regular-2e" x="49.999985"/>
       <use xlink:href="#LatinModernMath-Regular-35" x="77.799973"/>
      </g>
     </g>
    </g>
    <g id="ytick_3">
     <g id="line2d_47">
      <defs>
       <path id="m94c1b1927b" d="M 0 0 
L 2 0 
" style="stroke: #000000; stroke-width: 0.6"/>
      </defs>
      <g>
       <use xlink:href="#m94c1b1927b" x="67.98" y="146.711315" style="stroke: #000000; stroke-width: 0.6"/>
      </g>
     </g>
     <g id="line2d_48">
      <defs>
       <path id="m4289948436" d="M 0 0 
L -2 0 
" style="stroke: #000000; stroke-width: 0.6"/>
      </defs>
      <g>
       <use xlink:href="#m4289948436" x="438.492921" y="146.711315" style="stroke: #000000; stroke-width: 0.6"/>
      </g>
     </g>
    </g>
    <g id="ytick_4">
     <g id="line2d_49">
      <g>
       <use xlink:href="#m94c1b1927b" x="67.98" y="120.396407" style="stroke: #000000; stroke-width: 0.6"/>
      </g>
     </g>
     <g id="line2d_50">
      <g>
       <use xlink:href="#m4289948436" x="438.492921" y="120.396407" style="stroke: #000000; stroke-width: 0.6"/>
      </g>
     </g>
    </g>
    <g id="ytick_5">
     <g id="line2d_51">
      <g>
       <use xlink:href="#m94c1b1927b" x="67.98" y="107.238953" style="stroke: #000000; stroke-width: 0.6"/>
      </g>
     </g>
     <g id="line2d_52">
      <g>
       <use xlink:href="#m4289948436" x="438.492921" y="107.238953" style="stroke: #000000; stroke-width: 0.6"/>
      </g>
     </g>
    </g>
    <g id="ytick_6">
     <g id="line2d_53">
      <g>
       <use xlink:href="#m94c1b1927b" x="67.98" y="94.081499" style="stroke: #000000; stroke-width: 0.6"/>
      </g>
     </g>
     <g id="line2d_54">
      <g>
       <use xlink:href="#m4289948436" x="438.492921" y="94.081499" style="stroke: #000000; stroke-width: 0.6"/>
      </g>
     </g>
    </g>
    <g id="ytick_7">
     <g id="line2d_55">
      <g>
       <use xlink:href="#m94c1b1927b" x="67.98" y="80.924045" style="stroke: #000000; stroke-width: 0.6"/>
      </g>
     </g>
     <g id="line2d_56">
      <g>
       <use xlink:href="#m4289948436" x="438.492921" y="80.924045" style="stroke: #000000; stroke-width: 0.6"/>
      </g>
     </g>
    </g>
    <g id="ytick_8">
     <g id="line2d_57">
      <g>
       <use xlink:href="#m94c1b1927b" x="67.98" y="54.609137" style="stroke: #000000; stroke-width: 0.6"/>
      </g>
     </g>
     <g id="line2d_58">
      <g>
       <use xlink:href="#m4289948436" x="438.492921" y="54.609137" style="stroke: #000000; stroke-width: 0.6"/>
      </g>
     </g>
    </g>
    <g id="ytick_9">
     <g id="line2d_59">
      <g>
       <use xlink:href="#m94c1b1927b" x="67.98" y="41.451684" style="stroke: #000000; stroke-width: 0.6"/>
      </g>
     </g>
     <g id="line2d_60">
      <g>
       <use xlink:href="#m4289948436" x="438.492921" y="41.451684" style="stroke: #000000; stroke-width: 0.6"/>
      </g>
     </g>
    </g>
    <g id="ytick_10">
     <g id="line2d_61">
      <g>
       <use xlink:href="#m94c1b1927b" x="67.98" y="28.29423" style="stroke: #000000; stroke-width: 0.6"/>
      </g>
     </g>
     <g id="line2d_62">
      <g>
       <use xlink:href="#m4289948436" x="438.492921" y="28.29423" style="stroke: #000000; stroke-width: 0.6"/>
      </g>
     </g>
    </g>
    <g id="ytick_11">
     <g id="line2d_63">
      <g>
       <use xlink:href="#m94c1b1927b" x="67.98" y="15.136776" style="stroke: #000000; stroke-width: 0.6"/>
      </g>
     </g>
     <g id="line2d_64">
      <g>
       <use xlink:href="#m4289948436" x="438.492921" y="15.136776" style="stroke: #000000; stroke-width: 0.6"/>
      </g>
     </g>
    </g>
    <g id="text_3">
     <!-- $R(u, \gamma)$ -->
     <g transform="translate(39.648438 104.42125) rotate(-90) scale(0.14 -0.14)">
      <defs>
       <path id="DejaVuSans-Oblique-52" d="M 1613 4147 
L 1294 2491 
L 2106 2491 
Q 2584 2491 2879 2755 
Q 3175 3019 3175 3444 
Q 3175 3784 2976 3965 
Q 2778 4147 2406 4147 
L 1613 4147 
z
M 2772 2241 
Q 2972 2194 3105 2009 
Q 3238 1825 3413 1275 
L 3809 0 
L 3144 0 
L 2778 1197 
Q 2638 1659 2453 1815 
Q 2269 1972 1888 1972 
L 1191 1972 
L 806 0 
L 172 0 
L 1081 4666 
L 2503 4666 
Q 3150 4666 3495 4373 
Q 3841 4081 3841 3531 
Q 3841 3044 3547 2687 
Q 3253 2331 2772 2241 
z
" transform="scale(0.015625)"/>
       <path id="DejaVuSans-28" d="M 1984 4856 
Q 1566 4138 1362 3434 
Q 1159 2731 1159 2009 
Q 1159 1288 1364 580 
Q 1569 -128 1984 -844 
L 1484 -844 
Q 1016 -109 783 600 
Q 550 1309 550 2009 
Q 550 2706 781 3412 
Q 1013 4119 1484 4856 
L 1984 4856 
z
" transform="scale(0.015625)"/>
       <path id="DejaVuSans-Oblique-75" d="M 428 1388 
L 838 3500 
L 1416 3500 
L 1006 1409 
Q 975 1256 961 1147 
Q 947 1038 947 966 
Q 947 700 1109 554 
Q 1272 409 1569 409 
Q 2031 409 2368 721 
Q 2706 1034 2809 1563 
L 3194 3500 
L 3769 3500 
L 3091 0 
L 2516 0 
L 2631 550 
Q 2388 244 2052 76 
Q 1716 -91 1338 -91 
Q 878 -91 622 161 
Q 366 413 366 863 
Q 366 956 381 1097 
Q 397 1238 428 1388 
z
" transform="scale(0.015625)"/>
       <path id="DejaVuSans-2c" d="M 750 794 
L 1409 794 
L 1409 256 
L 897 -744 
L 494 -744 
L 750 256 
L 750 794 
z
" transform="scale(0.015625)"/>
       <path id="DejaVuSans-Oblique-3b3" d="M 1491 2950 
L 1838 788 
L 3456 3500 
L 4066 3500 
L 1972 0 
L 1713 -1331 
L 1138 -1331 
L 1397 0 
L 988 2613 
Q 925 3006 628 3006 
L 475 3006 
L 569 3500 
L 788 3500 
Q 1403 3500 1491 2950 
z
" transform="scale(0.015625)"/>
       <path id="DejaVuSans-29" d="M 513 4856 
L 1013 4856 
Q 1481 4119 1714 3412 
Q 1947 2706 1947 2009 
Q 1947 1309 1714 600 
Q 1481 -109 1013 -844 
L 513 -844 
Q 928 -128 1133 580 
Q 1338 1288 1338 2009 
Q 1338 2731 1133 3434 
Q 928 4138 513 4856 
z
" transform="scale(0.015625)"/>
      </defs>
      <use xlink:href="#DejaVuSans-Oblique-52" transform="translate(0 0.125)"/>
      <use xlink:href="#DejaVuSans-28" transform="translate(69.482422 0.125)"/>
      <use xlink:href="#DejaVuSans-Oblique-75" transform="translate(108.496094 0.125)"/>
      <use xlink:href="#DejaVuSans-2c" transform="translate(171.875 0.125)"/>
      <use xlink:href="#DejaVuSans-Oblique-3b3" transform="translate(223.144531 0.125)"/>
      <use xlink:href="#DejaVuSans-29" transform="translate(282.324219 0.125)"/>
     </g>
    </g>
   </g>
   <g id="line2d_65">
    <path d="M 69.814222 91.864468 
L 88.156446 98.653714 
L 125.941427 112.094054 
L 146.117873 118.856985 
L 162.992719 124.192332 
L 176.932809 128.330352 
L 187.938144 131.376302 
L 197.842945 133.928848 
L 206.280367 135.93536 
L 220.587302 138.902366 
L 230.492103 140.566784 
L 238.562681 141.61938 
L 245.532726 142.264095 
L 250.668549 142.527244 
L 254.336994 142.560138 
L 259.105972 142.382512 
L 267.17655 141.698325 
L 273.779751 140.882563 
L 282.217174 139.560239 
L 292.488819 137.606357 
L 305.328376 134.731453 
L 313.03211 132.823622 
L 332.474867 127.481696 
L 342.379668 124.527847 
L 355.952914 120.27799 
L 372.82776 114.718966 
L 394.838428 107.107378 
L 426.753898 95.548555 
L 436.658698 91.864468 
L 436.658698 91.864468 
" clip-path="url(#pebcf894301)" style="fill: none; stroke: #1f77b4; stroke-width: 2; stroke-linecap: square"/>
   </g>
   <g id="line2d_66">
    <path d="M 69.814222 123.744979 
L 85.22169 128.330352 
L 96.227025 131.376302 
L 106.131826 133.928848 
L 114.569248 135.93536 
L 128.876183 138.902366 
L 138.780984 140.566784 
L 146.851562 141.61938 
L 153.821607 142.264095 
L 158.95743 142.527244 
L 162.625875 142.560138 
L 167.394853 142.382512 
L 175.465431 141.698325 
L 182.068632 140.882563 
L 190.506055 139.560239 
L 200.7777 137.606357 
L 213.617257 134.731453 
L 221.320991 132.823622 
L 240.763748 127.481696 
L 250.668549 124.527847 
L 264.241795 120.27799 
L 281.116641 114.718966 
L 303.127309 107.107378 
L 335.042779 95.548555 
L 394.838428 72.911156 
L 408.778518 67.529757 
L 420.517541 62.990436 
L 436.658698 56.727488 
L 436.658698 56.727488 
" clip-path="url(#pebcf894301)" style="fill: none; stroke: #ff7f0e; stroke-width: 2; stroke-linecap: square"/>
   </g>
   <g id="line2d_67">
    <path d="M 69.814222 142.573295 
L 76.050578 142.356197 
L 80.819557 141.994367 
L 86.689068 141.36281 
L 94.392802 140.283898 
L 103.563914 138.691847 
L 109.433426 137.527412 
L 115.302937 136.264296 
L 129.609872 132.823622 
L 149.052629 127.481696 
L 158.95743 124.527847 
L 172.530676 120.27799 
L 189.405522 114.718966 
L 211.41619 107.107378 
L 243.33166 95.548555 
L 303.127309 72.911156 
L 317.067399 67.529757 
L 328.806422 62.990436 
L 347.515491 55.727521 
L 357.787136 51.740812 
L 377.963582 43.89897 
L 388.602072 39.774108 
L 406.210607 32.94539 
L 418.316475 28.267915 
L 432.256565 22.886516 
L 436.658698 21.189205 
L 436.658698 21.189205 
" clip-path="url(#pebcf894301)" style="fill: none; stroke: #2ca02c; stroke-width: 2; stroke-linecap: square"/>
   </g>
   <g id="patch_3">
    <path d="M 67.98 148.6425 
L 67.98 15.12 
" style="fill: none; stroke: #000000; stroke-width: 0.8; stroke-linejoin: miter; stroke-linecap: square"/>
   </g>
   <g id="patch_4">
    <path d="M 438.492921 148.6425 
L 438.492921 15.12 
" style="fill: none; stroke: #000000; stroke-width: 0.8; stroke-linejoin: miter; stroke-linecap: square"/>
   </g>
   <g id="patch_5">
    <path d="M 67.98 148.6425 
L 438.492921 148.6425 
" style="fill: none; stroke: #000000; stroke-width: 0.8; stroke-linejoin: miter; stroke-linecap: square"/>
   </g>
   <g id="patch_6">
    <path d="M 67.98 15.12 
L 438.492921 15.12 
" style="fill: none; stroke: #000000; stroke-width: 0.8; stroke-linejoin: miter; stroke-linecap: square"/>
   </g>
   <g id="legend_1">
    <g id="patch_7">
     <path d="M 77.78 87.36 
L 170.32 87.36 
Q 173.12 87.36 173.12 84.56 
L 173.12 24.92 
Q 173.12 22.12 170.32 22.12 
L 77.78 22.12 
Q 74.98 22.12 74.98 24.92 
L 74.98 84.56 
Q 74.98 87.36 77.78 87.36 
z
" style="fill: #ffffff; opacity: 0.8; stroke: #cccccc; stroke-linejoin: miter"/>
    </g>
    <g id="line2d_68">
     <path d="M 80.58 33.32 
L 94.58 33.32 
L 108.58 33.32 
" style="fill: none; stroke: #1f77b4; stroke-width: 2; stroke-linecap: square"/>
    </g>
    <g id="text_4">
     <!-- $\gamma = 0$ -->
     <g transform="translate(119.78 38.22) scale(0.14 -0.14)">
      <defs>
       <path id="DejaVuSans-3d" d="M 678 2906 
L 4684 2906 
L 4684 2381 
L 678 2381 
L 678 2906 
z
M 678 1631 
L 4684 1631 
L 4684 1100 
L 678 1100 
L 678 1631 
z
" transform="scale(0.015625)"/>
       <path id="DejaVuSans-30" d="M 2034 4250 
Q 1547 4250 1301 3770 
Q 1056 3291 1056 2328 
Q 1056 1369 1301 889 
Q 1547 409 2034 409 
Q 2525 409 2770 889 
Q 3016 1369 3016 2328 
Q 3016 3291 2770 3770 
Q 2525 4250 2034 4250 
z
M 2034 4750 
Q 2819 4750 3233 4129 
Q 3647 3509 3647 2328 
Q 3647 1150 3233 529 
Q 2819 -91 2034 -91 
Q 1250 -91 836 529 
Q 422 1150 422 2328 
Q 422 3509 836 4129 
Q 1250 4750 2034 4750 
z
" transform="scale(0.015625)"/>
      </defs>
      <use xlink:href="#DejaVuSans-Oblique-3b3" transform="translate(0 0.78125)"/>
      <use xlink:href="#DejaVuSans-3d" transform="translate(78.662109 0.78125)"/>
      <use xlink:href="#DejaVuSans-30" transform="translate(181.933594 0.78125)"/>
     </g>
    </g>
    <g id="line2d_69">
     <path d="M 80.58 53.76 
L 94.58 53.76 
L 108.58 53.76 
" style="fill: none; stroke: #ff7f0e; stroke-width: 2; stroke-linecap: square"/>
    </g>
    <g id="text_5">
     <!-- $\gamma = 0.5$ -->
     <g transform="translate(119.78 58.66) scale(0.14 -0.14)">
      <defs>
       <path id="DejaVuSans-2e" d="M 684 794 
L 1344 794 
L 1344 0 
L 684 0 
L 684 794 
z
" transform="scale(0.015625)"/>
       <path id="DejaVuSans-35" d="M 691 4666 
L 3169 4666 
L 3169 4134 
L 1269 4134 
L 1269 2991 
Q 1406 3038 1543 3061 
Q 1681 3084 1819 3084 
Q 2600 3084 3056 2656 
Q 3513 2228 3513 1497 
Q 3513 744 3044 326 
Q 2575 -91 1722 -91 
Q 1428 -91 1123 -41 
Q 819 9 494 109 
L 494 744 
Q 775 591 1075 516 
Q 1375 441 1709 441 
Q 2250 441 2565 725 
Q 2881 1009 2881 1497 
Q 2881 1984 2565 2268 
Q 2250 2553 1709 2553 
Q 1456 2553 1204 2497 
Q 953 2441 691 2322 
L 691 4666 
z
" transform="scale(0.015625)"/>
      </defs>
      <use xlink:href="#DejaVuSans-Oblique-3b3" transform="translate(0 0.78125)"/>
      <use xlink:href="#DejaVuSans-3d" transform="translate(78.662109 0.78125)"/>
      <use xlink:href="#DejaVuSans-30" transform="translate(181.933594 0.78125)"/>
      <use xlink:href="#DejaVuSans-2e" transform="translate(245.556641 0.78125)"/>
      <use xlink:href="#DejaVuSans-35" transform="translate(277.34375 0.78125)"/>
     </g>
    </g>
    <g id="line2d_70">
     <path d="M 80.58 73.92 
L 94.58 73.92 
L 108.58 73.92 
" style="fill: none; stroke: #2ca02c; stroke-width: 2; stroke-linecap: square"/>
    </g>
    <g id="text_6">
     <!-- $\gamma = 1$ -->
     <g transform="translate(119.78 78.82) scale(0.14 -0.14)">
      <defs>
       <path id="DejaVuSans-31" d="M 794 531 
L 1825 531 
L 1825 4091 
L 703 3866 
L 703 4441 
L 1819 4666 
L 2450 4666 
L 2450 531 
L 3481 531 
L 3481 0 
L 794 0 
L 794 531 
z
" transform="scale(0.015625)"/>
      </defs>
      <use xlink:href="#DejaVuSans-Oblique-3b3" transform="translate(0 0.09375)"/>
      <use xlink:href="#DejaVuSans-3d" transform="translate(78.662109 0.09375)"/>
      <use xlink:href="#DejaVuSans-31" transform="translate(181.933594 0.09375)"/>
     </g>
    </g>
   </g>
  </g>
  <g id="axes_2">
   <g id="patch_8">
    <path d="M 67.98 297.285 
L 438.492921 297.285 
L 438.492921 163.7625 
L 67.98 163.7625 
z
" style="fill: #ffffff"/>
   </g>
   <g id="matplotlib.axis_3">
    <g id="xtick_22">
     <g id="line2d_71">
      <g>
       <use xlink:href="#mdb3c34ee53" x="69.814222" y="297.285" style="stroke: #000000; stroke-width: 0.8"/>
      </g>
     </g>
     <g id="line2d_72">
      <g>
       <use xlink:href="#m922a10234a" x="69.814222" y="163.7625" style="stroke: #000000; stroke-width: 0.8"/>
      </g>
     </g>
     <g id="text_7">
      <!-- −1.0 -->
      <g transform="translate(55.42266 310.501875) scale(0.14 -0.14)">
       <defs>
        <path id="LatinModernMath-Regular-2212" d="M 4621 1600 
C 4621 1670 4563 1728 4493 1728 
L 486 1728 
C 416 1728 358 1670 358 1600 
C 358 1530 416 1472 486 1472 
L 4493 1472 
C 4563 1472 4621 1530 4621 1600 
z
" transform="scale(0.015625)"/>
        <path id="LatinModernMath-Regular-30" d="M 2944 2048 
C 2944 2560 2912 3072 2688 3546 
C 2394 4160 1869 4262 1600 4262 
C 1216 4262 749 4096 486 3501 
C 282 3059 250 2560 250 2048 
C 250 1568 275 992 538 506 
C 813 -13 1280 -141 1594 -141 
C 1939 -141 2426 -6 2707 602 
C 2912 1043 2944 1542 2944 2048 
z
M 2413 2125 
C 2413 1645 2413 1210 2342 800 
C 2246 192 1882 0 1594 0 
C 1344 0 966 160 851 774 
C 781 1158 781 1747 781 2125 
C 781 2534 781 2957 832 3302 
C 954 4064 1434 4122 1594 4122 
C 1805 4122 2227 4006 2349 3373 
C 2413 3014 2413 2528 2413 2125 
z
" transform="scale(0.015625)"/>
       </defs>
       <use xlink:href="#LatinModernMath-Regular-2212"/>
       <use xlink:href="#LatinModernMath-Regular-31" x="77.799988"/>
       <use xlink:href="#LatinModernMath-Regular-2e" x="127.799973"/>
       <use xlink:href="#LatinModernMath-Regular-30" x="155.59996"/>
      </g>
     </g>
    </g>
    <g id="xtick_23">
     <g id="line2d_73">
      <g>
       <use xlink:href="#mdb3c34ee53" x="161.525341" y="297.285" style="stroke: #000000; stroke-width: 0.8"/>
      </g>
     </g>
     <g id="line2d_74">
      <g>
       <use xlink:href="#m922a10234a" x="161.525341" y="163.7625" style="stroke: #000000; stroke-width: 0.8"/>
      </g>
     </g>
     <g id="text_8">
      <!-- −0.5 -->
      <g transform="translate(147.133779 310.501875) scale(0.14 -0.14)">
       <use xlink:href="#LatinModernMath-Regular-2212"/>
       <use xlink:href="#LatinModernMath-Regular-30" x="77.799988"/>
       <use xlink:href="#LatinModernMath-Regular-2e" x="127.799973"/>
       <use xlink:href="#LatinModernMath-Regular-35" x="155.59996"/>
      </g>
     </g>
    </g>
    <g id="xtick_24">
     <g id="line2d_75">
      <g>
       <use xlink:href="#mdb3c34ee53" x="253.23646" y="297.285" style="stroke: #000000; stroke-width: 0.8"/>
      </g>
     </g>
     <g id="line2d_76">
      <g>
       <use xlink:href="#m922a10234a" x="253.23646" y="163.7625" style="stroke: #000000; stroke-width: 0.8"/>
      </g>
     </g>
     <g id="text_9">
      <!-- 0.0 -->
      <g transform="translate(244.290679 310.501875) scale(0.14 -0.14)">
       <use xlink:href="#LatinModernMath-Regular-30"/>
       <use xlink:href="#LatinModernMath-Regular-2e" x="49.999985"/>
       <use xlink:href="#LatinModernMath-Regular-30" x="77.799973"/>
      </g>
     </g>
    </g>
    <g id="xtick_25">
     <g id="line2d_77">
      <g>
       <use xlink:href="#mdb3c34ee53" x="344.947579" y="297.285" style="stroke: #000000; stroke-width: 0.8"/>
      </g>
     </g>
     <g id="line2d_78">
      <g>
       <use xlink:href="#m922a10234a" x="344.947579" y="163.7625" style="stroke: #000000; stroke-width: 0.8"/>
      </g>
     </g>
     <g id="text_10">
      <!-- 0.5 -->
      <g transform="translate(336.001798 310.501875) scale(0.14 -0.14)">
       <use xlink:href="#LatinModernMath-Regular-30"/>
       <use xlink:href="#LatinModernMath-Regular-2e" x="49.999985"/>
       <use xlink:href="#LatinModernMath-Regular-35" x="77.799973"/>
      </g>
     </g>
    </g>
    <g id="xtick_26">
     <g id="line2d_79">
      <g>
       <use xlink:href="#mdb3c34ee53" x="436.658698" y="297.285" style="stroke: #000000; stroke-width: 0.8"/>
      </g>
     </g>
     <g id="line2d_80">
      <g>
       <use xlink:href="#m922a10234a" x="436.658698" y="163.7625" style="stroke: #000000; stroke-width: 0.8"/>
      </g>
     </g>
     <g id="text_11">
      <!-- 1.0 -->
      <g transform="translate(427.712917 310.501875) scale(0.14 -0.14)">
       <use xlink:href="#LatinModernMath-Regular-31"/>
       <use xlink:href="#LatinModernMath-Regular-2e" x="49.999985"/>
       <use xlink:href="#LatinModernMath-Regular-30" x="77.799973"/>
      </g>
     </g>
    </g>
    <g id="xtick_27">
     <g id="line2d_81">
      <g>
       <use xlink:href="#m9bc16487e0" x="88.156446" y="297.285" style="stroke: #000000; stroke-width: 0.6"/>
      </g>
     </g>
     <g id="line2d_82">
      <g>
       <use xlink:href="#m14acf216d1" x="88.156446" y="163.7625" style="stroke: #000000; stroke-width: 0.6"/>
      </g>
     </g>
    </g>
    <g id="xtick_28">
     <g id="line2d_83">
      <g>
       <use xlink:href="#m9bc16487e0" x="106.49867" y="297.285" style="stroke: #000000; stroke-width: 0.6"/>
      </g>
     </g>
     <g id="line2d_84">
      <g>
       <use xlink:href="#m14acf216d1" x="106.49867" y="163.7625" style="stroke: #000000; stroke-width: 0.6"/>
      </g>
     </g>
    </g>
    <g id="xtick_29">
     <g id="line2d_85">
      <g>
       <use xlink:href="#m9bc16487e0" x="124.840894" y="297.285" style="stroke: #000000; stroke-width: 0.6"/>
      </g>
     </g>
     <g id="line2d_86">
      <g>
       <use xlink:href="#m14acf216d1" x="124.840894" y="163.7625" style="stroke: #000000; stroke-width: 0.6"/>
      </g>
     </g>
    </g>
    <g id="xtick_30">
     <g id="line2d_87">
      <g>
       <use xlink:href="#m9bc16487e0" x="143.183118" y="297.285" style="stroke: #000000; stroke-width: 0.6"/>
      </g>
     </g>
     <g id="line2d_88">
      <g>
       <use xlink:href="#m14acf216d1" x="143.183118" y="163.7625" style="stroke: #000000; stroke-width: 0.6"/>
      </g>
     </g>
    </g>
    <g id="xtick_31">
     <g id="line2d_89">
      <g>
       <use xlink:href="#m9bc16487e0" x="179.867565" y="297.285" style="stroke: #000000; stroke-width: 0.6"/>
      </g>
     </g>
     <g id="line2d_90">
      <g>
       <use xlink:href="#m14acf216d1" x="179.867565" y="163.7625" style="stroke: #000000; stroke-width: 0.6"/>
      </g>
     </g>
    </g>
    <g id="xtick_32">
     <g id="line2d_91">
      <g>
       <use xlink:href="#m9bc16487e0" x="198.209789" y="297.285" style="stroke: #000000; stroke-width: 0.6"/>
      </g>
     </g>
     <g id="line2d_92">
      <g>
       <use xlink:href="#m14acf216d1" x="198.209789" y="163.7625" style="stroke: #000000; stroke-width: 0.6"/>
      </g>
     </g>
    </g>
    <g id="xtick_33">
     <g id="line2d_93">
      <g>
       <use xlink:href="#m9bc16487e0" x="216.552013" y="297.285" style="stroke: #000000; stroke-width: 0.6"/>
      </g>
     </g>
     <g id="line2d_94">
      <g>
       <use xlink:href="#m14acf216d1" x="216.552013" y="163.7625" style="stroke: #000000; stroke-width: 0.6"/>
      </g>
     </g>
    </g>
    <g id="xtick_34">
     <g id="line2d_95">
      <g>
       <use xlink:href="#m9bc16487e0" x="234.894237" y="297.285" style="stroke: #000000; stroke-width: 0.6"/>
      </g>
     </g>
     <g id="line2d_96">
      <g>
       <use xlink:href="#m14acf216d1" x="234.894237" y="163.7625" style="stroke: #000000; stroke-width: 0.6"/>
      </g>
     </g>
    </g>
    <g id="xtick_35">
     <g id="line2d_97">
      <g>
       <use xlink:href="#m9bc16487e0" x="271.578684" y="297.285" style="stroke: #000000; stroke-width: 0.6"/>
      </g>
     </g>
     <g id="line2d_98">
      <g>
       <use xlink:href="#m14acf216d1" x="271.578684" y="163.7625" style="stroke: #000000; stroke-width: 0.6"/>
      </g>
     </g>
    </g>
    <g id="xtick_36">
     <g id="line2d_99">
      <g>
       <use xlink:href="#m9bc16487e0" x="289.920908" y="297.285" style="stroke: #000000; stroke-width: 0.6"/>
      </g>
     </g>
     <g id="line2d_100">
      <g>
       <use xlink:href="#m14acf216d1" x="289.920908" y="163.7625" style="stroke: #000000; stroke-width: 0.6"/>
      </g>
     </g>
    </g>
    <g id="xtick_37">
     <g id="line2d_101">
      <g>
       <use xlink:href="#m9bc16487e0" x="308.263132" y="297.285" style="stroke: #000000; stroke-width: 0.6"/>
      </g>
     </g>
     <g id="line2d_102">
      <g>
       <use xlink:href="#m14acf216d1" x="308.263132" y="163.7625" style="stroke: #000000; stroke-width: 0.6"/>
      </g>
     </g>
    </g>
    <g id="xtick_38">
     <g id="line2d_103">
      <g>
       <use xlink:href="#m9bc16487e0" x="326.605356" y="297.285" style="stroke: #000000; stroke-width: 0.6"/>
      </g>
     </g>
     <g id="line2d_104">
      <g>
       <use xlink:href="#m14acf216d1" x="326.605356" y="163.7625" style="stroke: #000000; stroke-width: 0.6"/>
      </g>
     </g>
    </g>
    <g id="xtick_39">
     <g id="line2d_105">
      <g>
       <use xlink:href="#m9bc16487e0" x="363.289803" y="297.285" style="stroke: #000000; stroke-width: 0.6"/>
      </g>
     </g>
     <g id="line2d_106">
      <g>
       <use xlink:href="#m14acf216d1" x="363.289803" y="163.7625" style="stroke: #000000; stroke-width: 0.6"/>
      </g>
     </g>
    </g>
    <g id="xtick_40">
     <g id="line2d_107">
      <g>
       <use xlink:href="#m9bc16487e0" x="381.632027" y="297.285" style="stroke: #000000; stroke-width: 0.6"/>
      </g>
     </g>
     <g id="line2d_108">
      <g>
       <use xlink:href="#m14acf216d1" x="381.632027" y="163.7625" style="stroke: #000000; stroke-width: 0.6"/>
      </g>
     </g>
    </g>
    <g id="xtick_41">
     <g id="line2d_109">
      <g>
       <use xlink:href="#m9bc16487e0" x="399.974251" y="297.285" style="stroke: #000000; stroke-width: 0.6"/>
      </g>
     </g>
     <g id="line2d_110">
      <g>
       <use xlink:href="#m14acf216d1" x="399.974251" y="163.7625" style="stroke: #000000; stroke-width: 0.6"/>
      </g>
     </g>
    </g>
    <g id="xtick_42">
     <g id="line2d_111">
      <g>
       <use xlink:href="#m9bc16487e0" x="418.316475" y="297.285" style="stroke: #000000; stroke-width: 0.6"/>
      </g>
     </g>
     <g id="line2d_112">
      <g>
       <use xlink:href="#m14acf216d1" x="418.316475" y="163.7625" style="stroke: #000000; stroke-width: 0.6"/>
      </g>
     </g>
    </g>
    <g id="text_12">
     <!-- $u$ -->
     <g transform="translate(248.75646 326.935625) scale(0.14 -0.14)">
      <use xlink:href="#DejaVuSans-Oblique-75" transform="translate(0 0.3125)"/>
     </g>
    </g>
   </g>
   <g id="matplotlib.axis_4">
    <g id="ytick_12">
     <g id="line2d_113">
      <g>
       <use xlink:href="#m4a48dde3e5" x="67.98" y="288.874728" style="stroke: #000000; stroke-width: 0.8"/>
      </g>
     </g>
     <g id="line2d_114">
      <g>
       <use xlink:href="#mdca079a2a7" x="438.492921" y="288.874728" style="stroke: #000000; stroke-width: 0.8"/>
      </g>
     </g>
     <g id="text_13">
      <!-- −0.1 -->
      <g transform="translate(35.696875 293.733165) scale(0.14 -0.14)">
       <use xlink:href="#LatinModernMath-Regular-2212"/>
       <use xlink:href="#LatinModernMath-Regular-30" x="77.799988"/>
       <use xlink:href="#LatinModernMath-Regular-2e" x="127.799973"/>
       <use xlink:href="#LatinModernMath-Regular-31" x="155.59996"/>
      </g>
     </g>
    </g>
    <g id="ytick_13">
     <g id="line2d_115">
      <g>
       <use xlink:href="#m4a48dde3e5" x="67.98" y="231.733711" style="stroke: #000000; stroke-width: 0.8"/>
      </g>
     </g>
     <g id="line2d_116">
      <g>
       <use xlink:href="#mdca079a2a7" x="438.492921" y="231.733711" style="stroke: #000000; stroke-width: 0.8"/>
      </g>
     </g>
     <g id="text_14">
      <!-- 0.0 -->
      <g transform="translate(46.588438 236.592149) scale(0.14 -0.14)">
       <use xlink:href="#LatinModernMath-Regular-30"/>
       <use xlink:href="#LatinModernMath-Regular-2e" x="49.999985"/>
       <use xlink:href="#LatinModernMath-Regular-30" x="77.799973"/>
      </g>
     </g>
    </g>
    <g id="ytick_14">
     <g id="line2d_117">
      <g>
       <use xlink:href="#m4a48dde3e5" x="67.98" y="174.592694" style="stroke: #000000; stroke-width: 0.8"/>
      </g>
     </g>
     <g id="line2d_118">
      <g>
       <use xlink:href="#mdca079a2a7" x="438.492921" y="174.592694" style="stroke: #000000; stroke-width: 0.8"/>
      </g>
     </g>
     <g id="text_15">
      <!-- 0.1 -->
      <g transform="translate(46.588438 179.451132) scale(0.14 -0.14)">
       <use xlink:href="#LatinModernMath-Regular-30"/>
       <use xlink:href="#LatinModernMath-Regular-2e" x="49.999985"/>
       <use xlink:href="#LatinModernMath-Regular-31" x="77.799973"/>
      </g>
     </g>
    </g>
    <g id="ytick_15">
     <g id="line2d_119">
      <g>
       <use xlink:href="#m94c1b1927b" x="67.98" y="277.446525" style="stroke: #000000; stroke-width: 0.6"/>
      </g>
     </g>
     <g id="line2d_120">
      <g>
       <use xlink:href="#m4289948436" x="438.492921" y="277.446525" style="stroke: #000000; stroke-width: 0.6"/>
      </g>
     </g>
    </g>
    <g id="ytick_16">
     <g id="line2d_121">
      <g>
       <use xlink:href="#m94c1b1927b" x="67.98" y="266.018321" style="stroke: #000000; stroke-width: 0.6"/>
      </g>
     </g>
     <g id="line2d_122">
      <g>
       <use xlink:href="#m4289948436" x="438.492921" y="266.018321" style="stroke: #000000; stroke-width: 0.6"/>
      </g>
     </g>
    </g>
    <g id="ytick_17">
     <g id="line2d_123">
      <g>
       <use xlink:href="#m94c1b1927b" x="67.98" y="254.590118" style="stroke: #000000; stroke-width: 0.6"/>
      </g>
     </g>
     <g id="line2d_124">
      <g>
       <use xlink:href="#m4289948436" x="438.492921" y="254.590118" style="stroke: #000000; stroke-width: 0.6"/>
      </g>
     </g>
    </g>
    <g id="ytick_18">
     <g id="line2d_125">
      <g>
       <use xlink:href="#m94c1b1927b" x="67.98" y="243.161914" style="stroke: #000000; stroke-width: 0.6"/>
      </g>
     </g>
     <g id="line2d_126">
      <g>
       <use xlink:href="#m4289948436" x="438.492921" y="243.161914" style="stroke: #000000; stroke-width: 0.6"/>
      </g>
     </g>
    </g>
    <g id="ytick_19">
     <g id="line2d_127">
      <g>
       <use xlink:href="#m94c1b1927b" x="67.98" y="220.305508" style="stroke: #000000; stroke-width: 0.6"/>
      </g>
     </g>
     <g id="line2d_128">
      <g>
       <use xlink:href="#m4289948436" x="438.492921" y="220.305508" style="stroke: #000000; stroke-width: 0.6"/>
      </g>
     </g>
    </g>
    <g id="ytick_20">
     <g id="line2d_129">
      <g>
       <use xlink:href="#m94c1b1927b" x="67.98" y="208.877304" style="stroke: #000000; stroke-width: 0.6"/>
      </g>
     </g>
     <g id="line2d_130">
      <g>
       <use xlink:href="#m4289948436" x="438.492921" y="208.877304" style="stroke: #000000; stroke-width: 0.6"/>
      </g>
     </g>
    </g>
    <g id="ytick_21">
     <g id="line2d_131">
      <g>
       <use xlink:href="#m94c1b1927b" x="67.98" y="197.449101" style="stroke: #000000; stroke-width: 0.6"/>
      </g>
     </g>
     <g id="line2d_132">
      <g>
       <use xlink:href="#m4289948436" x="438.492921" y="197.449101" style="stroke: #000000; stroke-width: 0.6"/>
      </g>
     </g>
    </g>
    <g id="ytick_22">
     <g id="line2d_133">
      <g>
       <use xlink:href="#m94c1b1927b" x="67.98" y="186.020897" style="stroke: #000000; stroke-width: 0.6"/>
      </g>
     </g>
     <g id="line2d_134">
      <g>
       <use xlink:href="#m4289948436" x="438.492921" y="186.020897" style="stroke: #000000; stroke-width: 0.6"/>
      </g>
     </g>
    </g>
    <g id="text_16">
     <!-- $\partial_u R(u, \gamma)$ -->
     <g transform="translate(28.756875 260.06375) rotate(-90) scale(0.14 -0.14)">
      <defs>
       <path id="DejaVuSans-2202" d="M 1366 -91 
Q 925 -91 638 175 
Q 297 491 297 1063 
Q 297 1656 597 2119 
Q 906 2594 1463 2594 
Q 1828 2594 2116 2366 
Q 2284 2231 2400 2006 
Q 2441 2259 2441 2547 
Q 2441 2969 2341 3213 
Q 2119 3753 1531 3753 
Q 1309 3753 966 3616 
L 966 4141 
Q 1328 4238 1653 4238 
Q 2491 4238 2847 3469 
Q 3013 3106 3013 2566 
Q 3013 2213 2934 1803 
Q 2738 778 2228 291 
Q 1828 -91 1366 -91 
z
M 831 969 
Q 831 656 969 488 
Q 1116 309 1341 309 
Q 1541 309 1700 450 
Q 1925 644 2091 959 
Q 2228 1219 2297 1497 
Q 2019 2169 1538 2169 
Q 1125 2169 944 1625 
Q 831 1288 831 969 
z
" transform="scale(0.015625)"/>
      </defs>
      <use xlink:href="#DejaVuSans-2202" transform="translate(0 0.125)"/>
      <use xlink:href="#DejaVuSans-Oblique-75" transform="translate(52.666016 -16.28125) scale(0.7)"/>
      <use xlink:href="#DejaVuSans-Oblique-52" transform="translate(99.765625 0.125)"/>
      <use xlink:href="#DejaVuSans-28" transform="translate(169.248047 0.125)"/>
      <use xlink:href="#DejaVuSans-Oblique-75" transform="translate(208.261719 0.125)"/>
      <use xlink:href="#DejaVuSans-2c" transform="translate(271.640625 0.125)"/>
      <use xlink:href="#DejaVuSans-Oblique-3b3" transform="translate(322.910156 0.125)"/>
      <use xlink:href="#DejaVuSans-29" transform="translate(382.089844 0.125)"/>
     </g>
    </g>
   </g>
   <g id="line2d_135">
    <path d="M 69.814222 291.215795 
L 85.588535 290.24497 
L 99.16178 289.20786 
L 112.368182 287.985842 
L 124.474049 286.648457 
L 135.846228 285.16959 
L 146.117873 283.617354 
L 155.65583 281.961922 
L 164.826942 280.144552 
L 173.264365 278.24627 
L 180.968099 276.293933 
L 188.304988 274.209829 
L 195.275033 271.995214 
L 201.511389 269.789285 
L 207.380901 267.488902 
L 212.883568 265.103208 
L 218.019391 262.643573 
L 222.788369 260.12354 
L 227.190503 257.559394 
L 231.225792 254.970277 
L 234.894237 252.378703 
L 238.562681 249.509824 
L 241.864282 246.630031 
L 244.799037 243.761609 
L 247.366949 240.928044 
L 249.568016 238.15059 
L 251.402238 235.436992 
L 252.502771 233.476781 
L 253.23646 231.733711 
L 253.970149 229.990641 
L 255.070683 228.03043 
L 256.904905 225.316832 
L 259.105972 222.539379 
L 261.673883 219.705813 
L 264.608639 216.837391 
L 267.910239 213.957598 
L 271.578684 211.088719 
L 275.247129 208.497145 
L 279.282418 205.908028 
L 283.684552 203.343882 
L 288.45353 200.823849 
L 293.589353 198.364214 
L 299.09202 195.97852 
L 304.961532 193.678137 
L 311.197888 191.472208 
L 317.801088 189.368104 
L 325.137978 187.272229 
L 332.841712 185.309092 
L 341.279135 183.400639 
L 350.083402 181.642296 
L 359.621358 179.969664 
L 369.893004 178.401486 
L 380.898338 176.952104 
L 392.637361 175.631918 
L 405.476918 174.416128 
L 418.316475 173.403018 
L 433.357098 172.436192 
L 436.658698 172.251627 
L 436.658698 172.251627 
" clip-path="url(#pa53d687a1d)" style="fill: none; stroke: #1f77b4; stroke-width: 2; stroke-linecap: square"/>
   </g>
   <g id="line2d_136">
    <path d="M 69.814222 280.826416 
L 78.61849 278.93322 
L 86.689068 276.969911 
L 94.025958 274.966262 
L 100.996003 272.839987 
L 107.599203 270.594117 
L 113.83556 268.233164 
L 119.705071 265.763072 
L 124.840894 263.371435 
L 129.609872 260.925514 
L 134.37885 258.224115 
L 138.780984 255.459976 
L 142.816273 252.649323 
L 146.484718 249.811015 
L 149.786318 246.966363 
L 152.721074 244.139254 
L 155.288985 241.355744 
L 157.490052 238.642689 
L 159.324275 236.021424 
L 160.791652 233.476781 
L 161.525341 231.733711 
L 162.25903 229.990641 
L 163.359564 228.03043 
L 165.193786 225.316832 
L 167.394853 222.539379 
L 169.962764 219.705813 
L 172.89752 216.837391 
L 176.19912 213.957598 
L 179.867565 211.088719 
L 183.53601 208.497145 
L 187.571299 205.908028 
L 191.973433 203.343882 
L 196.742411 200.823849 
L 201.878234 198.364214 
L 207.380901 195.97852 
L 213.250413 193.678137 
L 219.486769 191.472208 
L 226.089969 189.368104 
L 233.426859 187.272229 
L 241.130593 185.309092 
L 249.568016 183.400639 
L 258.372283 181.642296 
L 267.910239 179.969664 
L 278.181885 178.401486 
L 289.187219 176.952104 
L 300.926242 175.631918 
L 313.765799 174.416128 
L 326.605356 173.403018 
L 341.645979 172.436192 
L 357.420292 171.635646 
L 374.295137 170.981953 
L 394.838428 170.419686 
L 417.215941 170.042555 
L 436.658698 169.876275 
L 436.658698 169.876275 
" clip-path="url(#pa53d687a1d)" style="fill: none; stroke: #ff7f0e; stroke-width: 2; stroke-linecap: square"/>
   </g>
   <g id="line2d_137">
    <path d="M 69.814222 231.733711 
L 70.547911 229.990641 
L 71.648445 228.03043 
L 73.482667 225.316832 
L 75.683734 222.539379 
L 78.251645 219.705813 
L 81.186401 216.837391 
L 84.488001 213.957598 
L 88.156446 211.088719 
L 91.824891 208.497145 
L 95.86018 205.908028 
L 100.262314 203.343882 
L 105.031292 200.823849 
L 110.167115 198.364214 
L 115.669782 195.97852 
L 121.539294 193.678137 
L 127.77565 191.472208 
L 134.37885 189.368104 
L 141.71574 187.272229 
L 149.419474 185.309092 
L 157.856897 183.400639 
L 166.661164 181.642296 
L 176.19912 179.969664 
L 186.470766 178.401486 
L 197.4761 176.952104 
L 209.215123 175.631918 
L 222.05468 174.416128 
L 234.894237 173.403018 
L 249.93486 172.436192 
L 265.709173 171.635646 
L 282.584018 170.981953 
L 303.127309 170.419686 
L 325.504822 170.042555 
L 353.751847 169.842561 
L 386.401005 169.902559 
L 423.085453 170.240263 
L 436.658698 170.420828 
L 436.658698 170.420828 
" clip-path="url(#pa53d687a1d)" style="fill: none; stroke: #2ca02c; stroke-width: 2; stroke-linecap: square"/>
   </g>
   <g id="patch_9">
    <path d="M 67.98 297.285 
L 67.98 163.7625 
" style="fill: none; stroke: #000000; stroke-width: 0.8; stroke-linejoin: miter; stroke-linecap: square"/>
   </g>
   <g id="patch_10">
    <path d="M 438.492921 297.285 
L 438.492921 163.7625 
" style="fill: none; stroke: #000000; stroke-width: 0.8; stroke-linejoin: miter; stroke-linecap: square"/>
   </g>
   <g id="patch_11">
    <path d="M 67.98 297.285 
L 438.492921 297.285 
" style="fill: none; stroke: #000000; stroke-width: 0.8; stroke-linejoin: miter; stroke-linecap: square"/>
   </g>
   <g id="patch_12">
    <path d="M 67.98 163.7625 
L 438.492921 163.7625 
" style="fill: none; stroke: #000000; stroke-width: 0.8; stroke-linejoin: miter; stroke-linecap: square"/>
   </g>
  </g>
 </g>
 <defs>
  <clipPath id="pebcf894301">
   <rect x="67.98" y="15.12" width="370.512921" height="133.5225"/>
  </clipPath>
  <clipPath id="pa53d687a1d">
   <rect x="67.98" y="163.7625" width="370.512921" height="133.5225"/>
  </clipPath>
 </defs>
</svg>
